<?xml version="1.0" standalone="no"?>
<!DOCTYPE svg PUBLIC "-//W3C//DTD SVG 1.1//EN" "http://www.w3.org/Graphics/SVG/1.1/DTD/svg11.dtd" >
<svg>
<metadata>
Created by FontForge 20120731 at Mon Oct 13 08:15:46 2014
 By Orthosie Webhosting
Copyright (c) 1993 Adobe Systems Incorporated.  All Rights Reserved.ITC Officina Sans is a trademark of International Typeface Corporation.
</metadata>
<defs>
<font id="OfficinaSansLT-Bold" horiz-adv-x="556" >
  <font-face 
    font-family="ITCOfficinaSans LT Book"
    font-weight="700"
    font-stretch="normal"
    units-per-em="1000"
    panose-1="2 0 8 6 5 0 0 2 0 4"
    ascent="800"
    descent="-200"
    x-height="494"
    cap-height="685"
    bbox="-55 -261 1137 964"
    underline-thickness="50"
    underline-position="-75"
    unicode-range="U+0020-FB02"
  />
<missing-glyph horiz-adv-x="500" 
 />
    <glyph glyph-name=".notdef" horiz-adv-x="500" 
 />
    <glyph glyph-name=".null" horiz-adv-x="0" 
 />
    <glyph glyph-name="nonmarkingreturn" horiz-adv-x="296" 
 />
    <glyph glyph-name="space" unicode=" " horiz-adv-x="296" 
 />
    <glyph glyph-name="percent" unicode="%" horiz-adv-x="833" 
d="M199 391q16 0 25.5 8t15 21.5t7 32t1.5 39.5q0 43 -9 72t-40 29q-16 0 -25.5 -8t-15 -21.5t-7 -32t-1.5 -39.5t1.5 -39.5t7 -32t15 -21.5t25.5 -8zM348 492q0 -79 -38.5 -127.5t-110.5 -48.5t-110.5 48t-38.5 128q0 79 38.5 127.5t110.5 48.5t110.5 -48.5t38.5 -127.5z
M350 0q-6 -17 -23 -17h-51q-7 0 -14 1t-7 9q0 4 4 14l237 662q4 11 10.5 13.5t12.5 2.5h51q8 0 13.5 -2t5.5 -10q0 -5 -3 -14zM781 159q0 -79 -38.5 -127.5t-110.5 -48.5t-110.5 48t-38.5 128q0 79 38.5 127.5t110.5 48.5t110.5 -48.5t38.5 -127.5zM632 58q16 0 25.5 8
t15 21.5t7 32t1.5 39.5q0 43 -9 72t-40 29q-16 0 -25.5 -8t-15 -21.5t-7 -32t-1.5 -39.5t1.5 -39.5t7 -32t15 -21.5t25.5 -8z" />
    <glyph glyph-name="ampersand" unicode="&#x26;" horiz-adv-x="611" 
d="M249 303q-8 -6 -20.5 -15.5t-24.5 -23.5t-21 -33t-9 -43q0 -23 8 -41t22 -31.5t32 -20.5t39 -7q22 0 40 6t31.5 15t23 18.5l15.5 15.5zM280 431q8 7 20 17t22.5 23t18 28.5t7.5 35.5q0 33 -17.5 52t-47.5 19t-50 -19.5t-20 -51.5q0 -18 8 -34t19 -29t22.5 -23.5
t17.5 -17.5zM545 -11q-8 -6 -14 -6q-5 0 -8.5 3.5l-6.5 6.5l-56 64q-11 -11 -26.5 -23.5t-38.5 -24t-54 -19t-74 -7.5q-52 0 -94 13t-72 37.5t-46 59.5t-16 80q0 46 17.5 80t41.5 58t48.5 39t38.5 24q-7 8 -22.5 23.5t-31 36t-27 46t-11.5 53.5q0 40 17.5 71t45.5 53
t63 33.5t70 11.5q37 0 70 -11t57 -31t38 -50t14 -67q0 -35 -15.5 -64t-36.5 -52t-42.5 -39.5t-32.5 -25.5l107 -126q15 29 21 53.5t8.5 42.5t4 28t7.5 10q3 0 5.5 -0.5t5.5 -1.5l73 -20q8 -2 10 -6.5t2 -9.5q0 -23 -7 -51t-17 -54.5t-20 -47.5t-16 -30l71 -86q3 -4 6 -7
t3 -7q0 -5 -3.5 -9t-6.5 -6z" />
    <glyph glyph-name="quoteright" unicode="&#x2019;" horiz-adv-x="222" 
d="M91 468q-3 -5 -6 -9.5t-8 -4.5q-4 0 -6.5 1t-5.5 2l-38 13q-6 2 -11 5t-5 8q0 4 0.5 6t2.5 7l62 204q5 17 22 17h97q8 0 14 -1.5t6 -9.5q0 -4 -1.5 -8.5t-3.5 -6.5z" />
    <glyph glyph-name="parenleft" unicode="(" horiz-adv-x="444" 
d="M406 -213q0 -4 -9 -12t-21 -16t-24 -14t-17 -6t-23 18.5t-42 52t-50.5 80t-49 102.5t-37.5 120t-15 133q0 68 15 132.5t37.5 120.5t49.5 102.5t51 79.5t41.5 51.5t22.5 18.5t17 -6t24 -14t21 -16t9 -12q0 -11 -24.5 -43.5t-54.5 -88.5t-54.5 -137t-24.5 -188
q0 -72 11.5 -131.5t29.5 -108t38 -86t38 -64.5t29.5 -44t11.5 -24z" />
    <glyph glyph-name="parenright" unicode=")" horiz-adv-x="444" 
d="M326 245q0 -68 -15 -132.5t-37.5 -120.5t-49 -102.5t-50.5 -80t-42 -52t-23 -18.5t-17 6t-24 14t-21 16t-9 12q0 7 11.5 24t29.5 44t38 64.5t38 86t29.5 108t11.5 131.5q0 107 -24.5 188t-54.5 137t-54.5 88.5t-24.5 43.5q0 4 9 12t21 16t24 14t17 6q4 0 22 -18.5
t42 -51.5t51 -79.5t49.5 -102.5t37.5 -120.5t15 -132.5z" />
    <glyph glyph-name="asterisk" unicode="*" 
d="M363 330q-4 -3 -7.5 -5.5t-7.5 -2.5q-5 0 -7.5 3t-6.5 11l-57 112l-56 -112q-4 -8 -6.5 -11t-7.5 -3q-4 0 -7.5 2.5t-7.5 5.5l-52 37q-4 2 -7.5 6t-3.5 9q0 4 3 8t6 7l90 86l-123 19q-8 1 -13.5 3t-5.5 9q0 3 1 6.5t2 6.5l20 61q5 16 13 16q4 0 7.5 -1.5t6.5 -3.5
l111 -59l-21 123q-1 5 -1 11q0 8 6.5 9.5t13.5 1.5h65q7 0 13.5 -1.5t6.5 -9.5q0 -6 -1 -11l-21 -123l111 59q3 2 6.5 3.5t7.5 1.5q8 0 13 -16l20 -61q1 -3 2 -6.5t1 -6.5q0 -7 -5.5 -9t-13.5 -3l-123 -19l90 -86q3 -3 6 -7t3 -8q0 -5 -3.5 -9t-7.5 -6z" />
    <glyph glyph-name="plus" unicode="+" 
d="M328 47q0 -11 -3 -14t-14 -3h-66q-11 0 -14 3t-3 14v160h-160q-11 0 -14 3t-3 14v66q0 11 3.5 14t13.5 3h160v160q0 11 3 14t14 3h66q11 0 14 -3t3 -14v-160h160q11 0 14 -3t3 -14v-66q0 -11 -3 -14t-14 -3h-160v-160z" />
    <glyph glyph-name="comma" unicode="," horiz-adv-x="296" 
d="M112 -124q-3 -5 -6 -9.5t-8 -4.5q-4 0 -6.5 1t-5.5 2l-38 13q-6 2 -11 5t-5 8q0 4 0.5 6t2.5 7l62 204q5 17 22 17h97q8 0 14 -1.5t6 -9.5q0 -4 -1.5 -8.5t-3.5 -6.5z" />
    <glyph glyph-name="hyphen" unicode="-" horiz-adv-x="370" 
d="M328 219q0 -14 -3.5 -17.5t-17.5 -3.5h-244q-14 0 -17.5 3.5t-3.5 17.5v73q0 14 3.5 17.5t17.5 3.5h244q14 0 17.5 -3.5t3.5 -17.5v-73z" />
    <glyph glyph-name="hyphen" unicode="&#xad;" horiz-adv-x="370" 
d="M328 219q0 -14 -3.5 -17.5t-17.5 -3.5h-244q-14 0 -17.5 3.5t-3.5 17.5v73q0 14 3.5 17.5t17.5 3.5h244q14 0 17.5 -3.5t3.5 -17.5v-73z" />
    <glyph glyph-name="period" unicode="." horiz-adv-x="296" 
d="M243 78q0 -20 -7.5 -37.5t-20.5 -30t-30.5 -20t-36.5 -7.5t-36.5 7.5t-30.5 20t-20.5 30t-7.5 37.5t7.5 37.5t20.5 30t30.5 20t36.5 7.5t36.5 -7.5t30.5 -20t20.5 -30t7.5 -37.5z" />
    <glyph glyph-name="slash" unicode="/" horiz-adv-x="444" 
d="M85 -193q-4 -11 -9.5 -15t-17.5 -4h-58q-7 0 -13.5 1.5t-6.5 10.5q0 4 1 8.5t2 6.5l326 891q4 11 10 14.5t17 3.5h59q18 0 18 -12q0 -6 -0.5 -8.5t-2.5 -7.5z" />
    <glyph glyph-name="zero" unicode="0" 
d="M515 334q0 -172 -60 -261.5t-177 -89.5t-177 90t-60 261t59.5 261t177.5 90q116 0 176.5 -89.5t60.5 -261.5zM278 91q34 0 55.5 19t33.5 52t16.5 77.5t4.5 94.5t-4.5 94.5t-16.5 77.5t-33.5 52t-55.5 19q-33 0 -54.5 -19t-34 -52t-17 -77.5t-4.5 -94.5t4.5 -94.5
t17 -77.5t34 -52t54.5 -19z" />
    <glyph glyph-name="one" unicode="1" 
d="M470 14q0 -8 -2.5 -11t-11.5 -3h-307q-9 0 -11.5 3t-2.5 11v65q0 8 2.5 11t11.5 3h101v424l-106 -66q-4 -2 -7 -4t-7 -2q-7 0 -14 13l-26 45q-4 5 -4 13q0 7 12 16l189 136h70q14 0 17 -4t3 -16v-555h79q9 0 11.5 -3t2.5 -11v-65z" />
    <glyph glyph-name="two" unicode="2" 
d="M476 21q0 -14 -3.5 -17.5t-16.5 -3.5h-361q-8 0 -10.5 3t-2.5 14q0 40 3 67.5t7 45.5t9 30t10 21q14 31 38 56.5t52 48.5t56.5 44.5t52 45.5t38 51.5t14.5 62.5q0 45 -22 66t-60 21q-35 0 -54 -16t-29.5 -35.5t-17 -35.5t-15.5 -16q-5 0 -11 3l-64 24q-11 4 -11 15
q0 15 11.5 43t37 56t66 49t99.5 21q90 0 140 -48.5t50 -141.5q0 -56 -17.5 -95.5t-45.5 -69.5t-61.5 -54.5t-65.5 -50.5q-23 -19 -36 -33t-20.5 -26t-10.5 -24t-4 -27h235q14 0 17 -4t3 -17v-73z" />
    <glyph glyph-name="three" unicode="3" 
d="M75 573q-5 3 -5 10t11.5 23.5t34 34t56 31t77.5 13.5q43 0 79 -12.5t62 -35.5t40.5 -56t14.5 -73q0 -36 -9 -60.5t-22.5 -41.5t-30.5 -28t-32 -19q15 -5 35 -15t38 -29t31 -49.5t13 -76.5q0 -48 -18 -86.5t-49.5 -65t-73 -40.5t-87.5 -14q-29 0 -62 5.5t-61.5 13.5
t-47.5 17.5t-19 18.5q0 3 0.5 5t1.5 5l20 71q1 2 4 6t7 4t16.5 -6.5t31.5 -14t43.5 -14t54.5 -6.5q53 0 81 28.5t28 79.5q0 34 -13 54t-32 30.5t-40.5 13t-38.5 2.5h-31q-13 0 -16.5 3.5t-3.5 16.5v67q0 14 3.5 17.5t16.5 3.5h33q18 0 37 3t35 13t26.5 28.5t10.5 49.5
q0 36 -22.5 59t-60.5 23q-24 0 -41.5 -9.5t-29.5 -21t-19.5 -21t-12.5 -9.5q-4 0 -9 5z" />
    <glyph glyph-name="four" unicode="4" 
d="M442 3q0 -13 -3.5 -16.5t-16.5 -3.5h-87q-13 0 -16.5 3.5t-3.5 16.5v129h-244q-14 0 -17.5 3.5t-3.5 16.5v105l249 415q7 13 13 13q4 0 7 -1t7 -3l60 -25q6 -2 10.5 -5t4.5 -9q0 -4 -2 -7t-4 -7l-233 -396h153l16 161q1 12 4.5 16t16.5 4h70q13 0 16.5 -3.5t3.5 -17.5
v-160h56q14 0 17.5 -3.5t3.5 -20.5v-56q0 -13 -3.5 -16.5t-17.5 -3.5h-56v-129z" />
    <glyph glyph-name="five" unicode="5" 
d="M201 404q11 7 34 18.5t68 11.5q46 0 81.5 -16.5t60 -45t37 -66t12.5 -79.5q0 -53 -17.5 -97.5t-51 -77t-81.5 -51t-109 -18.5q-25 0 -54 3.5t-53.5 9.5t-41 14t-16.5 18q0 3 0.5 6t0.5 5l14 73q1 3 3.5 6t5.5 3t16 -4.5t31.5 -10.5t41.5 -10.5t47 -4.5q72 0 110.5 38
t38.5 96q0 47 -25 75.5t-76 28.5q-30 0 -49.5 -8.5t-32 -18.5t-19.5 -18.5t-12 -8.5q-3 0 -6 1t-5 2l-60 19q-8 2 -12 4.5t-4 8.5q0 7 1 10l31 329q2 14 5.5 16.5t15.5 2.5h293q14 0 17.5 -3.5t3.5 -16.5v-64q0 -14 -3.5 -17.5t-17.5 -3.5h-206z" />
    <glyph glyph-name="six" unicode="6" 
d="M284 91q42 0 66.5 35t24.5 102t-23 100.5t-66 33.5q-42 0 -66 -32.5t-24 -101.5q0 -66 21.5 -101.5t66.5 -35.5zM439 574q-1 -3 -4 -6.5t-6 -3.5q-6 0 -24.5 8t-44.5 8q-47 0 -78 -22t-49.5 -50.5t-27.5 -56.5t-12 -41l2 -2q6 7 15 17t23 19.5t33.5 16t46.5 6.5
q35 0 67.5 -13t58 -41.5t41 -72.5t15.5 -107q0 -58 -15 -104.5t-43 -78.5t-68 -49.5t-89 -17.5q-47 0 -86 16.5t-67.5 51.5t-44.5 91t-16 134q0 103 23 179.5t63 127.5t94.5 76.5t118.5 25.5q43 0 70 -11.5t27 -20.5q0 -3 -2 -9z" />
    <glyph glyph-name="seven" unicode="7" 
d="M261 -2q-3 -8 -5.5 -11.5t-8.5 -3.5q-7 0 -11 1l-83 16q-11 2 -15.5 4.5t-4.5 8.5q0 5 3 13l212 527h-245q-14 0 -17.5 3.5t-3.5 17.5v74q0 13 3.5 16.5t17.5 3.5h361q13 0 16.5 -3.5t3.5 -16.5v-39z" />
    <glyph glyph-name="eight" unicode="8" 
d="M277 88q48 0 78 26t30 66q0 31 -14 52.5t-32.5 36t-38 22.5t-29.5 13q-9 -5 -25.5 -13.5t-33.5 -23.5t-29.5 -36t-12.5 -50q0 -45 31 -69t76 -24zM282 399q9 4 22.5 10.5t25.5 18t20.5 28t8.5 41.5q0 34 -22 58.5t-60 24.5q-37 0 -59.5 -24t-22.5 -58q0 -25 10 -42.5
t24 -28.5t29 -17.5t24 -10.5zM512 177q0 -36 -14.5 -70.5t-44 -62t-73.5 -44.5t-104 -17q-50 0 -92.5 12.5t-73.5 36.5t-49 59.5t-18 82.5q0 43 16.5 74t39 52t47 33t39.5 18q-15 7 -35 18.5t-38 30t-31 45.5t-13 65q0 35 15 67t42.5 56t66.5 38t86 14q44 0 82 -13t66 -36
t44 -55t16 -70q0 -35 -12.5 -61.5t-30.5 -45t-37.5 -31t-32.5 -19.5q18 -9 42 -22.5t45.5 -34.5t36.5 -50.5t15 -69.5z" />
    <glyph glyph-name="nine" unicode="9" 
d="M266 306q42 0 66 32.5t24 101.5q0 66 -21.5 101.5t-66.5 35.5q-42 0 -66.5 -35t-24.5 -102t23 -100.5t66 -33.5zM113 94q1 3 4 6.5t6 3.5q6 0 24.5 -8t44.5 -8q47 0 78 22t49.5 50.5t27.5 56.5t12 41l-2 2q-6 -7 -15 -17t-23 -19.5t-33.5 -16t-46.5 -6.5q-35 0 -67.5 13
t-58 41.5t-41 72.5t-15.5 107q0 58 15 104.5t43 78.5t68 49.5t89 17.5q46 0 85.5 -16.5t68 -51.5t44.5 -91t16 -134q0 -103 -23 -179.5t-63 -127.5t-94.5 -76.5t-118.5 -25.5q-43 0 -70 11.5t-27 20.5q0 3 2 9z" />
    <glyph glyph-name="colon" unicode=":" horiz-adv-x="296" 
d="M243 399q0 -20 -7.5 -37.5t-20.5 -30t-30.5 -20t-36.5 -7.5t-36.5 7.5t-30.5 20t-20.5 30t-7.5 37.5t7.5 37.5t20.5 30t30.5 20t36.5 7.5t36.5 -7.5t30.5 -20t20.5 -30t7.5 -37.5zM243 78q0 -20 -7.5 -37.5t-20.5 -30t-30.5 -20t-36.5 -7.5t-36.5 7.5t-30.5 20t-20.5 30
t-7.5 37.5t7.5 37.5t20.5 30t30.5 20t36.5 7.5t36.5 -7.5t30.5 -20t20.5 -30t7.5 -37.5z" />
    <glyph glyph-name="semicolon" unicode=";" horiz-adv-x="296" 
d="M243 399q0 -20 -7.5 -37.5t-20.5 -30t-30.5 -20t-36.5 -7.5t-36.5 7.5t-30.5 20t-20.5 30t-7.5 37.5t7.5 37.5t20.5 30t30.5 20t36.5 7.5t36.5 -7.5t30.5 -20t20.5 -30t7.5 -37.5zM112 -124q-3 -5 -6 -9.5t-8 -4.5q-4 0 -6.5 1t-5.5 2l-38 13q-6 2 -11 5t-5 8q0 4 0.5 6
t2.5 7l62 204q5 17 22 17h97q8 0 14 -1.5t6 -9.5q0 -4 -1.5 -8.5t-3.5 -6.5z" />
    <glyph glyph-name="semicolon" unicode="&#x37e;" horiz-adv-x="296" 
d="M243 399q0 -20 -7.5 -37.5t-20.5 -30t-30.5 -20t-36.5 -7.5t-36.5 7.5t-30.5 20t-20.5 30t-7.5 37.5t7.5 37.5t20.5 30t30.5 20t36.5 7.5t36.5 -7.5t30.5 -20t20.5 -30t7.5 -37.5zM112 -124q-3 -5 -6 -9.5t-8 -4.5q-4 0 -6.5 1t-5.5 2l-38 13q-6 2 -11 5t-5 8q0 4 0.5 6
t2.5 7l62 204q5 17 22 17h97q8 0 14 -1.5t6 -9.5q0 -4 -1.5 -8.5t-3.5 -6.5z" />
    <glyph glyph-name="less" unicode="&#x3c;" 
d="M495 163q6 -2 7 -5t1 -7q0 -6 -1 -8l-17 -60q-2 -8 -4.5 -9.5t-4.5 -1.5t-8 2l-407 136q-6 2 -8.5 4.5t-2.5 10.5v63q0 10 2 13t9 5l407 135q1 0 3.5 1t4.5 1q4 0 5.5 -1t3.5 -9l17 -60l0.5 -3t0.5 -5q0 -3 -1 -6.5t-7 -5.5l-296 -94v-2z" />
    <glyph glyph-name="equal" unicode="=" 
d="M505 303q0 -11 -3 -14t-14 -3h-420q-11 0 -14 3t-3 14v66q0 11 3.5 14t13.5 3h420q11 0 14 -3t3 -14v-66zM505 144q0 -11 -3 -14t-14 -3h-420q-11 0 -14 3t-3 14v66q0 11 3.5 14t13.5 3h420q11 0 14 -3t3 -14v-66z" />
    <glyph glyph-name="greater" unicode="&#x3e;" 
d="M59 353q-6 2 -7 5.5t-1 6.5q0 2 0.5 5l0.5 3l17 60q2 8 3.5 9t5.5 1q2 0 4.5 -1t3.5 -1l407 -135q7 -2 9 -5t2 -13v-63q0 -8 -2.5 -10.5t-8.5 -4.5l-407 -135q-4 -2 -8 -2q-2 0 -4.5 1t-4.5 9l-17 60q0 2 -0.5 4t-0.5 4q0 4 1 7t7 5l296 94v2z" />
    <glyph glyph-name="question" unicode="?" horiz-adv-x="500" 
d="M309 67q0 -34 -24.5 -59t-59.5 -25q-36 0 -60.5 25t-24.5 59q0 36 24.5 60.5t60.5 24.5q35 0 59.5 -25t24.5 -60zM279 264q0 -14 -3.5 -17.5t-17.5 -3.5h-73q-14 0 -17.5 3.5t-3.5 17.5v125q0 9 6 14.5t16 10t23 7.5t26 8t26 11.5t23 16.5t16 24.5t6 34.5q0 71 -83 71
q-23 0 -44 -5t-38 -11.5t-28 -11.5t-15 -5q-9 0 -11 10l-26 68q-2 4 -2 11q0 10 19.5 20.5t48 19t61 14t57.5 5.5q45 0 81.5 -14t62 -38.5t39 -59t13.5 -75.5q0 -48 -17 -80t-42 -52.5t-53 -32t-50 -18.5v-68z" />
    <glyph glyph-name="at" unicode="@" horiz-adv-x="1000" 
d="M573 340q-8 8 -18.5 15t-29.5 7q-21 0 -36 -19.5t-25.5 -48t-15.5 -61t-5 -59.5q0 -17 6 -27t21 -10q18 0 31 8.5t22.5 22t16 29.5t9.5 31zM817 -71q1 -3 2 -5.5t1 -6.5q0 -8 -26.5 -22.5t-71.5 -29t-106 -25t-130 -10.5q-97 0 -171.5 24.5t-125.5 71.5t-77 115t-26 154
q0 102 37.5 188.5t102 150t152 99t186.5 35.5q84 0 149 -22.5t110 -62.5t68.5 -96.5t23.5 -123.5q0 -74 -24.5 -131.5t-64 -96.5t-89.5 -59.5t-100 -20.5q-27 0 -44 7t-27 17.5t-14.5 22.5t-6.5 22q-6 -9 -16 -20.5t-24.5 -22.5t-33.5 -18.5t-43 -7.5q-44 0 -68.5 30.5
t-24.5 91.5q0 51 14.5 98t39 83t57.5 57.5t71 21.5q18 0 31 -4t22.5 -10t15.5 -11.5t9 -8.5l5 11q4 10 16 10h66q12 0 12 -10q0 -3 -0.5 -5.5t-0.5 -4.5l-45 -213q-3 -14 -3 -26q0 -17 10.5 -22.5t24.5 -5.5q24 0 50 14t47 42t34.5 69.5t13.5 95.5q0 51 -17 94t-50.5 74.5
t-83 49t-115.5 17.5q-84 0 -154.5 -30.5t-121.5 -84t-79 -127t-28 -159.5q0 -138 80 -212.5t227 -74.5q72 0 126.5 11.5t92.5 25t60 25t29 11.5q6 0 10 -8z" />
    <glyph glyph-name="A" unicode="A" horiz-adv-x="593" 
d="M164 21q-3 -14 -6.5 -17.5t-14.5 -3.5h-101q-19 0 -20 9q0 4 1.5 9t2.5 8l197 644q3 10 6 12.5t16 2.5h104q11 0 14.5 -3.5t6.5 -12.5l196 -645q1 -3 2.5 -8t1.5 -8q0 -5 -6 -6.5t-14 -1.5h-112q-8 0 -10.5 3.5t-6.5 17.5l-44 162h-172zM311 445l-6.5 32.5t-6 36.5t-5 37
t-4.5 34h-2q-3 -32 -9 -71t-14 -69l-44 -172h132z" />
    <glyph glyph-name="B" unicode="B" horiz-adv-x="574" 
d="M265 685q36 0 77 -4.5t75.5 -22.5t57.5 -53t23 -95q0 -38 -10.5 -63.5t-26 -42.5t-33.5 -27.5t-32 -17.5q18 -5 39.5 -15t40.5 -29t32 -48.5t13 -72.5q0 -63 -20.5 -101t-55 -58.5t-79.5 -27.5t-93 -7h-164q-13 0 -17 4t-4 17v643q0 14 4 17.5t17 3.5h156zM259 105
q26 0 49 3t40.5 13.5t27.5 29.5t10 51q0 31 -10 50t-27.5 29t-40 13t-47.5 3h-38v-192h36zM254 402q22 0 42 3.5t35 14t23.5 28.5t8.5 48q0 47 -28.5 65.5t-69.5 18.5h-42v-178h31z" />
    <glyph glyph-name="C" unicode="C" horiz-adv-x="500" 
d="M469 62q5 -10 5 -15q0 -6 -12 -17t-34 -21.5t-52.5 -18t-67.5 -7.5q-132 0 -195.5 86.5t-63.5 267.5q0 86 16 154t48.5 115t81 71.5t113.5 24.5q28 0 57 -9t53 -21t39 -24.5t15 -19.5q0 -3 -0.5 -6.5t-4.5 -8.5l-37 -56q-7 -10 -12 -10q-6 0 -15.5 7.5t-22.5 16t-29 16
t-36 7.5q-32 0 -55.5 -12t-38.5 -39t-22.5 -71.5t-7.5 -108.5t5 -114.5t18.5 -85.5t37.5 -53.5t63 -18.5q21 0 38.5 6t31 12.5t24 12.5t18.5 6q5 0 11 -10z" />
    <glyph glyph-name="D" unicode="D" horiz-adv-x="593" 
d="M256 108q42 0 71.5 10.5t48 37.5t27 73.5t8.5 118.5q0 67 -8.5 111t-27 70.5t-48 37t-71.5 10.5h-36v-469h36zM262 685q72 0 126 -14t91 -51.5t55.5 -103.5t18.5 -170q0 -108 -21 -175.5t-59.5 -105.5t-92.5 -51.5t-121 -13.5h-153q-13 0 -17 4t-4 17v643q0 14 4 17.5
t18 3.5h155z" />
    <glyph glyph-name="E" unicode="E" horiz-adv-x="481" 
d="M446 21q0 -14 -3.5 -17.5t-16.5 -3.5h-329q-13 0 -17 3.5t-4 17.5v643q0 14 4 17.5t17 3.5h328q15 0 20 -2t5 -9q0 -4 -0.5 -6.5t-2.5 -7.5l-19 -67q-3 -11 -10 -13.5t-13 -2.5h-194v-165h170q14 0 17.5 -3.5t3.5 -17.5v-66q0 -14 -4 -17.5t-17 -3.5h-170v-196h214
q14 0 17.5 -3.5t3.5 -17.5v-66z" />
    <glyph glyph-name="F" unicode="F" horiz-adv-x="463" 
d="M220 21q0 -14 -3.5 -17.5t-16.5 -3.5h-94q-13 0 -17 3.5t-4 17.5v643q0 14 4 17.5t17 3.5h328q15 0 20 -2t5 -9q0 -4 -0.5 -6.5t-2.5 -7.5l-19 -67q-3 -11 -10 -13.5t-13 -2.5h-194v-165h170q14 0 17.5 -3.5t3.5 -17.5v-66q0 -14 -4 -17.5t-17 -3.5h-170v-283z" />
    <glyph glyph-name="G" unicode="G" horiz-adv-x="574" 
d="M517 61q0 -16 -19.5 -30t-49.5 -24.5t-65 -17t-66 -6.5q-132 0 -200 87t-68 269q0 179 67.5 271t202.5 92q34 0 67 -7t59.5 -17t43 -20.5t16.5 -16.5q0 -5 -5 -15l-33 -66q-5 -10 -11 -10q-2 0 -13 7t-28.5 15t-40.5 15t-48 7q-38 0 -64 -17t-42 -49.5t-22.5 -78.5
t-6.5 -103q0 -59 5.5 -106t20.5 -80t41 -51t67 -18q28 0 46.5 6.5t25.5 9.5v145h-75q-13 0 -17 3.5t-4 17.5v66q0 14 4 17.5t17 3.5h174q13 0 17 -3.5t4 -17.5v-278z" />
    <glyph glyph-name="H" unicode="H" horiz-adv-x="630" 
d="M545 21q0 -14 -4 -17.5t-17 -3.5h-93q-13 0 -17 3.5t-4 17.5v279h-190v-279q0 -14 -4 -17.5t-17 -3.5h-93q-13 0 -17 3.5t-4 17.5v643q0 14 4 17.5t17 3.5h93q13 0 17 -3.5t4 -17.5v-256h190v256q0 14 4 17.5t17 3.5h93q13 0 17 -3.5t4 -17.5v-643z" />
    <glyph glyph-name="I" unicode="I" horiz-adv-x="370" 
d="M328 21q0 -14 -4 -17.5t-17 -3.5h-245q-13 0 -17 3.5t-4 17.5v54q0 14 4 17.5t17 3.5h55v493h-55q-13 0 -17 3.5t-4 17.5v54q0 14 4 17.5t17 3.5h245q13 0 17 -3.5t4 -17.5v-54q0 -14 -4 -17.5t-17 -3.5h-55v-493h55q13 0 17 -3.5t4 -17.5v-54z" />
    <glyph glyph-name="J" unicode="J" horiz-adv-x="444" 
d="M369 211q0 -46 -7.5 -87.5t-28.5 -72.5t-58.5 -49.5t-97.5 -18.5q-57 0 -92.5 20.5t-55 51t-26 66.5t-6.5 68q0 9 2 11t7 2h99q12 0 12 -14v-26q0 -16 5.5 -31.5t18 -27.5t37.5 -12q21 0 32.5 8t16.5 21.5t6 32t1 39.5v397h-137q-13 0 -17 3.5t-4 17.5v54q0 14 4 17.5
t17 3.5h251q13 0 17 -3.5t4 -17.5v-453z" />
    <glyph glyph-name="K" unicode="K" horiz-adv-x="574" 
d="M220 21q0 -14 -4 -17.5t-17 -3.5h-93q-13 0 -17 3.5t-4 17.5v643q0 14 4 17.5t17 3.5h93q13 0 17 -3.5t4 -17.5v-280h2l220 305q2 4 7 8.5t10 4.5q4 0 8 -2.5t10 -5.5l68 -34q5 -2 9 -6t4 -6q0 -8 -2.5 -10.5t-4.5 -5.5l-213 -281l235 -292q2 -3 4.5 -5.5t2.5 -10.5
q0 -2 -4 -6t-9 -6l-80 -40q-6 -3 -10 -5.5t-8 -2.5q-5 0 -10 4.5t-7 8.5l-230 306h-2v-281z" />
    <glyph glyph-name="L" unicode="L" horiz-adv-x="500" 
d="M459 18q-3 -12 -7 -15t-15 -3h-330q-13 0 -17 3.5t-4 17.5v643q0 14 4 17.5t17 3.5h93q13 0 17 -3.5t4 -17.5v-544h241q11 0 14.5 -3.5t3.5 -9.5q0 -5 -2 -13z" />
    <glyph glyph-name="M" unicode="M" horiz-adv-x="704" 
d="M635 21q0 -14 -4 -17.5t-17 -3.5h-88q-13 0 -17 3.5t-4 17.5l-8 339q0 13 -0.5 35t-1 45t-0.5 44v36h-2q-2 -14 -6.5 -35t-9.5 -43.5t-10 -44t-9 -34.5l-61 -195q-3 -11 -6 -14t-16 -3h-62q-13 0 -16 3t-6 14l-58 195q-4 13 -9 34.5t-10 44t-9.5 43.5t-6.5 35h-2v-36
q0 -21 -0.5 -44t-1 -45t-0.5 -35l-10 -339q-1 -14 -4.5 -17.5t-16.5 -3.5h-73q-13 0 -17.5 3.5t-3.5 17.5l28 643q0 14 4 17.5t17 3.5h96q12 0 15 -2.5t7 -13.5l81 -252q10 -30 17.5 -60.5t12.5 -59.5h2q2 15 4.5 26t5.5 24t8.5 29t13.5 41l85 252q4 11 7 13.5t17 2.5h96
q13 0 16 -6t5 -26z" />
    <glyph glyph-name="N" unicode="N" horiz-adv-x="630" 
d="M547 21q0 -14 -3.5 -17.5t-17.5 -3.5h-66q-11 0 -14.5 2.5t-8.5 11.5l-183 341q-23 42 -36 72t-21 64h-2q0 -10 1.5 -42.5t1.5 -67.5v-360q0 -14 -4 -17.5t-17 -3.5h-73q-13 0 -17 3.5t-4 17.5v643q0 14 4 17.5t17 3.5h82q11 0 14.5 -2.5t8.5 -10.5l165 -310
q21 -40 35.5 -77t23.5 -68h2q0 12 -0.5 30t-1 36.5t-1 35.5t-0.5 28v317q0 14 4 17.5t17 3.5h73q13 0 17 -3.5t4 -17.5v-643z" />
    <glyph glyph-name="O" unicode="O" horiz-adv-x="593" 
d="M296 88q56 0 81.5 68.5t25.5 185.5q0 118 -25.5 186.5t-81.5 68.5t-81.5 -69t-25.5 -186t25.5 -185.5t81.5 -68.5zM545 342q0 -182 -66.5 -270.5t-182.5 -88.5t-182.5 88.5t-66.5 270.5t66.5 271t182.5 89q58 0 104 -22t78 -67t49.5 -112.5t17.5 -158.5z" />
    <glyph glyph-name="P" unicode="P" horiz-adv-x="519" 
d="M211 21q0 -14 -4 -17.5t-17 -3.5h-93q-13 0 -17 3.5t-4 17.5v643q0 14 4 17.5t17 3.5h162q30 0 70.5 -3t76.5 -20.5t61 -56t25 -108.5q0 -62 -21 -104.5t-54 -69t-73.5 -38t-79.5 -11.5h-53v-253zM242 379q22 0 43 3t37 14.5t25.5 33.5t9.5 60q0 33 -9 51t-24 26.5
t-34 10.5t-38 2h-41v-201h31z" />
    <glyph glyph-name="Q" unicode="Q" horiz-adv-x="593" 
d="M297 88q56 0 81.5 68.5t25.5 185.5q0 118 -25.5 186.5t-81.5 68.5t-81.5 -69t-25.5 -186t25.5 -185.5t81.5 -68.5zM494 -81q-4 -2 -9 -2q-10 0 -25.5 10.5t-31.5 24.5t-29 27t-17 18q-20 -8 -39 -11q-23 -3 -46 -3q-116 0 -182.5 88.5t-66.5 270.5t66.5 271t182.5 89
q58 0 104 -22t78 -67t49.5 -112.5t17.5 -158.5q0 -105 -20 -172.5t-53 -105.5q9 -8 26 -20t34 -24.5t29.5 -23.5t12.5 -15q0 -3 -4 -7z" />
    <glyph glyph-name="R" unicode="R" 
d="M214 21q0 -14 -4 -17.5t-17 -3.5h-93q-13 0 -17 3.5t-4 17.5v643q0 14 4 17.5t17 3.5h162q19 0 44 -1t51 -7t50.5 -18t44 -33.5t31.5 -54t12 -79.5q0 -48 -12.5 -80.5t-30.5 -53.5t-37.5 -32.5t-33.5 -18.5l149 -267q2 -4 5 -9t3 -10t-6 -7.5t-14 -4.5l-84 -24
q-8 -2 -14 -2q-7 0 -23 31l-135 269h-48v-262zM240 388q24 0 46 3t38.5 13.5t26 30.5t9.5 55q0 33 -9.5 51t-25.5 26.5t-35.5 10.5t-38.5 2h-37v-192h26z" />
    <glyph glyph-name="S" unicode="S" horiz-adv-x="481" 
d="M404 560q-5 -10 -11 -10q-2 0 -14 7t-31 15t-43.5 15t-51.5 7q-17 0 -34 -4t-30.5 -13t-21.5 -24t-8 -37q0 -29 19.5 -47.5t50 -34t66.5 -32.5t69 -41q38 -29 62 -69.5t24 -97.5q0 -48 -16 -86.5t-44.5 -66.5t-68.5 -43t-87 -15q-38 0 -75.5 7t-67 17t-48 20t-18.5 16
q0 2 1.5 6.5t3.5 9.5l23 66q3 10 11 10q2 0 16 -7t36.5 -15t52 -15t61.5 -7q42 0 66 22.5t24 69.5q0 33 -17.5 53.5t-46 36.5t-65.5 31.5t-75 38.5q-40 24 -63.5 58.5t-23.5 96.5q0 54 18 92.5t48.5 63.5t70 36.5t83.5 11.5q36 0 70.5 -7t61.5 -17t44 -20.5t17 -16.5
q0 -5 -5 -15z" />
    <glyph glyph-name="T" unicode="T" horiz-adv-x="444" 
d="M285 21q0 -14 -4 -17.5t-17 -3.5h-93q-13 0 -17 3.5t-4 17.5v544h-131q-11 0 -14 3t-3 14v86q0 11 3 14t14 3h412q15 0 20 -2t5 -9q0 -4 -0.5 -6.5t-2.5 -7.5l-21 -79q-3 -12 -10 -14t-13 -2h-124v-544z" />
    <glyph glyph-name="U" unicode="U" horiz-adv-x="630" 
d="M556 232q0 -56 -11 -102t-38.5 -78.5t-74 -50.5t-117.5 -18t-117.5 18t-74 50.5t-38.5 78.5t-11 102v432q0 14 4 17.5t17 3.5h93q13 0 17 -3.5t4 -17.5v-432q0 -27 2.5 -52.5t13 -45t31.5 -31.5t59 -12t59 12t31.5 31.5t13 45t2.5 52.5v432q0 14 4 17.5t17 3.5h93
q13 0 17 -3.5t4 -17.5v-432z" />
    <glyph glyph-name="V" unicode="V" 
d="M354 8q-3 -11 -6 -14t-16 -3h-114q-13 0 -16.5 3t-5.5 14l-176 635q-2 5 -3.5 10.5t-1.5 10.5t6.5 7t12.5 4l100 17q3 0 6 1t9 1q4 0 8 -2.5t7 -17.5l85 -402q3 -12 6 -31t6.5 -40.5l7 -43t5.5 -38.5h2q2 17 6 38.5t8.5 43t8.5 40.5t7 31l97 402q4 15 7.5 17.5t7.5 2.5
q6 0 9 -1t6 -1l88 -11q6 -2 12.5 -4t6.5 -7t-1.5 -10.5t-3.5 -10.5z" />
    <glyph glyph-name="W" unicode="W" horiz-adv-x="796" 
d="M645 674q3 15 7 17.5t8 2.5q7 0 15 -2l75 -15q6 -2 12.5 -3.5t6.5 -6.5q0 -4 -1.5 -10.5t-3.5 -11.5l-146 -636q-3 -11 -7 -14.5t-15 -3.5h-86q-14 0 -17 3.5t-5 14.5l-66 336q-7 34 -13 78.5t-10 94.5h-2q-4 -51 -10.5 -94.5t-14.5 -78.5l-81 -336q-3 -11 -5.5 -14.5
t-16.5 -3.5h-86q-11 0 -15.5 3.5t-6.5 14.5l-130 637q-1 5 -2.5 11t-1.5 11t6.5 6.5t12.5 3.5l78 14q8 2 15 2q4 0 8 -2.5t7 -17.5l60 -324q4 -21 7 -46t6 -50.5t5 -49.5t4 -43h2q2 21 5.5 46t8 50.5t9 49.5t9.5 43l71 305q4 16 8 23t22 7h68q12 0 15 -7t7 -23l71 -305
q4 -19 8.5 -43t8 -49.5t6.5 -50.5t5 -46h2q1 19 3.5 43t5.5 49.5t6.5 50.5t7.5 46z" />
    <glyph glyph-name="X" unicode="X" horiz-adv-x="536" 
d="M419 -7q-3 -1 -5.5 -1.5t-7.5 -0.5q-2 0 -6 2.5t-12 17.5l-86 169q-7 14 -16 34t-13 33h-2q-2 -12 -12.5 -33t-18.5 -35l-90 -171q-7 -13 -10 -15t-5 -2q-7 0 -15 2l-91 21q-6 2 -13.5 4t-7.5 8q0 5 2 9.5t5 10.5l186 317l-169 276q-9 14 -9 19q0 6 5 8t13 4l100 22
q3 1 5.5 1.5t7.5 0.5q4 0 6.5 -2t6.5 -10l74 -148q8 -16 16.5 -36.5t13.5 -39.5h2q4 19 12 39.5t16 36.5l65 140q6 13 9.5 16.5t7.5 3.5q5 0 13 -2l88 -24q5 -2 14 -4.5t9 -7.5t-3 -9.5t-6 -10.5l-155 -273l178 -314q7 -10 7 -20q0 -5 -8 -7.5t-13 -4.5z" />
    <glyph glyph-name="Y" unicode="Y" horiz-adv-x="519" 
d="M328 21q0 -14 -4 -17.5t-17 -3.5h-93q-13 0 -17 3.5t-4 17.5v260l-188 364q-7 12 -7 21q0 8 21 11l100 16q5 1 7 1h4q3 0 7 -2.5t8 -10.5l81 -171q8 -18 18.5 -44t21.5 -65h2q13 44 23.5 70.5t20.5 46.5l74 156q7 15 10 17.5t7 2.5q5 0 15 -2l85 -18q7 -2 12.5 -5t5.5 -8
q0 -3 -2 -6.5t-5 -9.5l-186 -364v-260z" />
    <glyph glyph-name="Z" unicode="Z" horiz-adv-x="500" 
d="M471 18q-2 -13 -5.5 -15.5t-16.5 -2.5h-401q-11 0 -14 3t-3 14v83l269 465h-246q-14 0 -14 12v4q0 2 2 8l20 78q3 11 6 14.5t16 3.5h344q14 0 17.5 -3.5t3.5 -16.5v-90l-267 -455h288q14 -3 14 -12q0 -2 -0.5 -4.5l-1.5 -7.5z" />
    <glyph glyph-name="bracketleft" unicode="[" horiz-adv-x="426" 
d="M366 -181q0 -14 -3.5 -17.5t-17.5 -3.5h-195q-14 0 -17.5 3.5t-3.5 17.5v877q0 14 3.5 17.5t17.5 3.5h195q14 0 17.5 -3.5t3.5 -17.5v-63q0 -14 -3.5 -17.5t-17.5 -3.5h-89v-709h89q14 0 17.5 -3.5t3.5 -17.5v-63z" />
    <glyph glyph-name="backslash" unicode="\" horiz-adv-x="444" 
d="M469 -185q1 -2 2 -6.5t1 -8.5q0 -9 -6.5 -10.5t-13.5 -1.5h-58q-12 0 -17.5 4t-9.5 15l-325 889q-2 5 -2.5 7.5t-0.5 8.5q0 12 18 12h59q11 0 17 -3.5t10 -14.5z" />
    <glyph glyph-name="bracketright" unicode="]" horiz-adv-x="426" 
d="M297 -181q0 -14 -3.5 -17.5t-17.5 -3.5h-195q-14 0 -17.5 3.5t-3.5 17.5v63q0 14 3.5 17.5t17.5 3.5h89v709h-89q-14 0 -17.5 3.5t-3.5 17.5v63q0 14 3.5 17.5t17.5 3.5h195q14 0 17.5 -3.5t3.5 -17.5v-877z" />
    <glyph glyph-name="asciicircum" unicode="^" 
d="M393 323q-3 -1 -8 -1q-3 0 -7 0.5t-6 6.5l-94 237l-94 -237q-2 -6 -6 -6.5t-7 -0.5q-5 0 -8 1l-60 13q-8 2 -9 4.5t-1 4.5t2 6l3 6l131 319q2 5 5 7t11 2h66q8 0 11 -2t5 -7l131 -319l3 -6t2 -6t-1 -4.5t-9 -4.5z" />
    <glyph glyph-name="underscore" unicode="_" horiz-adv-x="500" 
d="M500 -125h-500v50h500v-50z" />
    <glyph glyph-name="quoteleft" unicode="&#x2018;" horiz-adv-x="222" 
d="M146 471q-5 -17 -22 -17h-97q-8 0 -14 1.5t-6 9.5q0 4 1.5 8.5t3.5 6.5l119 223q3 5 6 9.5t8 4.5q4 0 6.5 -1t5.5 -2l38 -13q6 -2 11 -5t5 -8q0 -4 -0.5 -6t-2.5 -7z" />
    <glyph glyph-name="a" unicode="a" horiz-adv-x="481" 
d="M296 224h-33q-23 0 -47 -7t-42.5 -23.5t-18.5 -49.5q0 -29 18.5 -48.5t47.5 -19.5q28 0 47 14.5t28 23.5v110zM357 -13q-3 -1 -6.5 -2.5t-6.5 -1.5t-7.5 6t-8.5 15t-7.5 19.5t-5.5 19.5q-8 -8 -18.5 -18t-26 -19.5t-36.5 -16t-49 -6.5q-69 0 -109.5 41.5t-40.5 112.5
q0 42 14 71t36.5 48t50.5 29t57 14.5t56 5.5t47 1v31q0 17 -2 30.5t-9.5 23.5t-21.5 15t-38 5q-21 0 -41 -4.5t-37 -10.5t-29 -10.5t-17 -4.5q-4 0 -6.5 3.5t-3.5 6.5l-20 61q-3 6 -3 12q0 9 16.5 17t42.5 15t57 11t60 4q94 0 133 -41.5t39 -119.5v-193q0 -36 4 -58t9 -35.5
t9 -21.5t4 -15q0 -5 -9 -9z" />
    <glyph glyph-name="b" unicode="b" horiz-adv-x="537" 
d="M204 467q7 6 18 13.5t24.5 14t30.5 11.5t38 5q51 0 84.5 -21t54 -55.5t28.5 -79.5t8 -94q0 -64 -13.5 -115.5t-40 -87.5t-65 -55.5t-88.5 -19.5q-21 0 -36.5 4.5t-26.5 11.5t-18.5 14.5l-13.5 13.5q-2 -4 -4.5 -11.5t-6 -14.5t-8 -12.5t-10.5 -5.5t-14 2l-80 20
q-10 2 -10 8q0 7 6.5 16.5t11.5 35.5q3 15 3.5 30.5t0.5 31.5v559q0 11 5 13.5t14 4.5l84 17q2 0 7 1.5t7 1.5q6 0 8 -4t2 -17v-236zM204 104q5 -4 17.5 -12.5t32.5 -8.5q34 0 55.5 15.5t33.5 40.5t16 55.5t4 59.5q0 30 -3.5 58.5t-13 50t-27.5 35t-46 13.5q-26 0 -42.5 -13
t-26.5 -21v-273z" />
    <glyph glyph-name="c" unicode="c" horiz-adv-x="426" 
d="M401 46q1 -2 2 -5t1 -5q0 -9 -13.5 -18.5t-34.5 -17t-46 -12.5t-47 -5q-105 0 -163.5 63t-58.5 191q0 63 15.5 114t45.5 86.5t73 54.5t99 19q20 0 45 -5t46.5 -13.5t36 -19.5t14.5 -23q0 -2 -1 -4.5t-2 -4.5l-37 -65l-3.5 -3.5t-3.5 -1.5q-4 0 -12 6t-20 13.5t-28 14
t-35 6.5q-51 0 -74.5 -40t-23.5 -127q0 -83 22.5 -122t80.5 -39q19 0 33 5.5t24 11.5t17.5 11.5t14.5 5.5q4 0 7 -5z" />
    <glyph glyph-name="d" unicode="d" horiz-adv-x="519" 
d="M387 -13q-3 -1 -6.5 -2.5t-6.5 -1.5t-7.5 6t-8.5 15t-7.5 19.5t-5.5 19.5q-6 -6 -17.5 -16t-28 -19.5t-38 -17t-48.5 -7.5q-86 0 -128.5 64.5t-42.5 179.5q0 143 49 213.5t143 70.5q41 0 61 -11t32 -19v205q0 11 5 13.5t14 4.5l84 17q2 0 7 1.5t7 1.5q6 0 8 -4t2 -17
v-546q0 -36 3 -58t6 -35.5t6 -21.5t3 -15q0 -5 -9 -9zM327 391q-7 4 -21.5 12t-46.5 8q-28 0 -45.5 -10.5t-27.5 -31.5t-13.5 -52t-3.5 -73q0 -85 17.5 -123t66.5 -38q34 0 49.5 12.5t24.5 22.5v273z" />
    <glyph glyph-name="e" unicode="e" horiz-adv-x="500" 
d="M325 306q0 15 -1.5 34.5t-8.5 37t-21.5 29t-40.5 11.5q-29 0 -45.5 -13.5t-25 -32t-11 -37.5t-3.5 -29h157zM441 53q3 -5 3 -11q0 -10 -17 -20.5t-43 -19t-57.5 -14t-61.5 -5.5q-50 0 -91 14.5t-70.5 46t-46 80.5t-16.5 118q0 60 15.5 109.5t44 85t69 55t90.5 19.5
q64 0 103 -25.5t60.5 -65.5t29 -88.5t7.5 -93.5q0 -14 -4.5 -19.5t-18.5 -5.5h-269q0 -21 4 -43t16 -40.5t33.5 -30t56.5 -11.5q27 0 48 5t37 11.5t26.5 11.5t15.5 5q7 0 11 -8z" />
    <glyph glyph-name="f" unicode="f" horiz-adv-x="370" 
d="M234 21q0 -14 -4 -17.5t-17 -3.5h-85q-13 0 -17 3.5t-4 17.5v380h-71q-13 0 -17 3.5t-4 17.5v51q0 14 4 17.5t17 3.5h71v41q0 41 8 76t27 60t49.5 39t75.5 14q17 0 38 -3t40 -7.5t31.5 -11.5t12.5 -14q0 -3 -2 -9l-18 -70q-1 -3 -3.5 -6.5t-5.5 -3.5q-8 0 -24.5 8.5
t-45.5 8.5q-20 0 -31.5 -6t-17 -16.5t-6.5 -25.5t-1 -33v-41h114q7 0 12 -2t5 -8q0 -3 -0.5 -5t-1.5 -5l-14 -59q-2 -10 -6.5 -12t-12.5 -2h-96v-380z" />
    <glyph glyph-name="g" unicode="g" horiz-adv-x="500" 
d="M322 376q-10 8 -27.5 19t-51.5 11q-45 0 -65.5 -40t-20.5 -112q0 -69 17.5 -108.5t62.5 -39.5q38 0 57.5 13.5t27.5 20.5v236zM442 194q0 -25 1 -55.5t1.5 -61t1.5 -59t1 -49.5q0 -82 -44.5 -131.5t-148.5 -49.5q-29 0 -65 5.5t-67.5 13.5t-53 17t-21.5 17t4 20l19 61
q3 10 11 10q4 0 17.5 -6t34.5 -13.5t49 -13.5t61 -6q26 0 42 5.5t25 16t12 26.5t3 37q0 26 -1.5 43.5t-1.5 22.5q-6 -4 -16 -10.5t-25 -12.5t-35 -10.5t-45 -4.5q-84 0 -127.5 65.5t-43.5 178.5q0 121 49.5 191t139.5 70q27 0 46 -5t33 -12.5t23.5 -15.5t16.5 -14
q1 3 4.5 11t8.5 16t11 14t11 6q4 0 10 -2l78 -29l6 -4t3 -5q0 -5 -4.5 -14.5t-9.5 -25t-9.5 -37t-4.5 -51.5v-149z" />
    <glyph glyph-name="h" unicode="h" horiz-adv-x="537" 
d="M467 14q0 -8 -2.5 -11t-11.5 -3h-99q-9 0 -11.5 3t-2.5 11v308q0 14 -1.5 29t-7.5 27t-17 20t-30 8q-16 0 -29.5 -5t-24 -11.5t-18.5 -14t-13 -11.5v-350q0 -8 -2.5 -11t-11.5 -3h-99q-9 0 -11.5 3t-2.5 11v672q0 11 5 13.5t14 4.5l84 17q2 0 7 1.5t7 1.5q6 0 8 -4t2 -17
v-249q10 8 23 18t29.5 18.5t37.5 14.5t48 6q40 0 65 -12.5t39.5 -34t20 -50t5.5 -61.5v-339z" />
    <glyph glyph-name="i" unicode="i" horiz-adv-x="315" 
d="M252 642q0 -35 -24 -59t-58 -24q-35 0 -59 24t-24 59t24 58.5t59 23.5q34 0 58 -23.5t24 -58.5zM234 14q0 -8 -2.5 -11t-11.5 -3h-99q-9 0 -11.5 3t-2.5 11v387h-77q-9 0 -11.5 3t-2.5 11v65q0 8 2.5 11t11.5 3h190q9 0 11.5 -3t2.5 -11v-466z" />
    <glyph glyph-name="j" unicode="j" horiz-adv-x="315" 
d="M257 642q0 -35 -24 -59t-58 -24q-35 0 -59 24t-24 59t24 58.5t59 23.5q34 0 58 -23.5t24 -58.5zM240 -6q0 -53 -6 -95.5t-24.5 -72t-52 -45.5t-88.5 -16q-19 0 -38.5 2t-35.5 6t-26 9t-10 11q0 4 2 10l22 75q2 6 8 6q5 0 23 -7t41 -7q21 0 32.5 9.5t17.5 26.5t7 40t1 50
v405h-78q-9 0 -11.5 3t-2.5 11v65q0 8 2.5 11t11.5 3h191q9 0 11.5 -3t2.5 -11v-486z" />
    <glyph glyph-name="k" unicode="k" horiz-adv-x="519" 
d="M494 58q9 -9 9 -15q0 -7 -5 -9l-85 -47q-8 -4 -12 -4q-3 0 -6.5 3.5t-5.5 6.5l-183 239h-2v-218q0 -8 -2.5 -11t-11.5 -3h-99q-9 0 -11.5 3t-2.5 11v672q0 11 5 13.5t14 4.5l84 17q2 1 8 2t8 1q5 0 6.5 -4t1.5 -17v-396l192 194q2 3 7 6.5t7 3.5q5 0 8.5 -3t9.5 -8
l50 -41q5 -5 5 -11q0 -4 -9 -13l-162 -158z" />
    <glyph glyph-name="l" unicode="l" horiz-adv-x="296" 
d="M287 19q1 -4 1.5 -5t0.5 -3q0 -5 -9 -10t-23.5 -9t-32.5 -6.5t-36 -2.5q-46 0 -71 17t-36.5 45t-13.5 62t-2 69v510q0 11 5 13.5t14 4.5l84 17q2 0 7 1.5t7 1.5q6 0 8 -4t2 -17v-545q0 -24 3.5 -42t24.5 -18q15 0 24.5 4.5t14.5 4.5q6 0 8 -6z" />
    <glyph glyph-name="m" unicode="m" horiz-adv-x="778" 
d="M713 14q0 -8 -2.5 -11t-11.5 -3h-99q-9 0 -11.5 3t-2.5 11v308q0 14 -1 29t-5.5 27t-13 20t-22.5 8q-16 0 -30 -4.5t-25 -11.5t-19.5 -14t-13.5 -11v-351q0 -8 -2.5 -11t-11.5 -3h-99q-9 0 -11.5 3t-2.5 11v308q0 14 -1 29t-5.5 27t-13 20t-22.5 8q-16 0 -30 -4.5
t-25 -11.5t-19.5 -14t-13.5 -11v-351q0 -8 -2.5 -11t-11.5 -3h-99q-9 0 -11.5 3t-2.5 11v302q0 53 -3 80.5t-6.5 41.5t-6.5 19.5t-3 14.5q0 8 11 11l76 25q9 3 15 3q10 0 17 -17t15 -52q11 10 25.5 22t33 22.5t41.5 17.5t53 7q16 0 32.5 -5t30.5 -14t24 -21.5t15 -28.5
q11 10 25 22t33 22.5t42.5 17.5t54.5 7q35 0 57.5 -12.5t35.5 -34t18 -50t5 -61.5v-339z" />
    <glyph glyph-name="n" unicode="n" horiz-adv-x="537" 
d="M467 14q0 -8 -2.5 -11t-11.5 -3h-99q-9 0 -11.5 3t-2.5 11v308q0 14 -1.5 29t-7.5 27t-17 20t-30 8q-16 0 -30 -4.5t-25 -11.5t-19.5 -14t-13.5 -11v-351q0 -8 -2.5 -11t-11.5 -3h-99q-9 0 -11.5 3t-2.5 11v302q0 53 -3 80.5t-6.5 41.5t-6.5 19.5t-3 14.5q0 8 11 11
l76 25q9 3 15 3q10 0 17 -17t15 -52q11 10 25 22t32.5 22.5t42 17.5t53.5 7q21 0 43.5 -6t42 -22t32 -44.5t12.5 -73.5v-351z" />
    <glyph glyph-name="o" unicode="o" horiz-adv-x="519" 
d="M476 247q0 -60 -15 -109t-43 -83.5t-68 -53t-91 -18.5t-91 18.5t-68 53t-43 83.5t-15 109t15 109t43 83.5t68 53t91 18.5q50 0 90.5 -18.5t68.5 -53t43 -83.5t15 -109zM259 83q26 0 42 12.5t25 34.5t12 52t3 65t-3 65t-12 52t-25 34.5t-42 12.5t-42 -12.5t-25 -34.5
t-12 -52t-3 -65t3 -65t12 -52t25 -34.5t42 -12.5z" />
    <glyph glyph-name="p" unicode="p" horiz-adv-x="537" 
d="M203 -174q0 -11 -5 -13.5t-14 -4.5l-84 -17q-2 -1 -7.5 -2t-9.5 -1t-5.5 4t-1.5 17v507q0 53 -3 80.5t-6.5 41.5t-6.5 19.5t-3 14.5q0 8 11 11l76 25q9 3 15 3q10 0 16.5 -13.5t14.5 -38.5q16 16 47 34t81 18q84 0 128.5 -64t44.5 -191q0 -132 -43 -202.5t-141 -70.5
q-44 0 -66 9t-38 17v-183zM203 102q14 -8 29 -13.5t44 -5.5q26 0 43 9.5t27 30t14 52.5t4 76q0 78 -17 119t-64 41q-32 0 -50.5 -14t-29.5 -24v-271z" />
    <glyph glyph-name="q" unicode="q" horiz-adv-x="519" 
d="M450 -174q0 -10 -5 -13t-14 -5l-84 -17q-2 -1 -8 -2t-9 -1q-4 0 -5.5 4t-1.5 17v200q-16 -8 -37.5 -17t-62.5 -9q-98 0 -141 70.5t-43 202.5q0 127 44.5 191t128.5 64q29 0 50 -5.5t36 -13.5t25 -16.5t18 -15.5q0 3 4 11.5t9.5 17.5t11.5 15.5t12 6.5q4 0 7.5 -1t7.5 -2
l74 -25q4 -2 8 -4.5t4 -7.5t-4.5 -12.5t-10 -24.5t-10 -45.5t-4.5 -74.5v-488zM323 373q-11 10 -29.5 21.5t-50.5 11.5q-44 0 -60.5 -40.5t-16.5 -114.5q0 -89 17 -128.5t67 -39.5q29 0 44 5.5t29 13.5v271z" />
    <glyph glyph-name="r" unicode="r" horiz-adv-x="352" 
d="M197 14q0 -8 -2.5 -11t-11.5 -3h-99q-9 0 -11.5 3t-2.5 11v302q0 41 -4 66.5t-9 41.5t-9 25t-4 18q0 5 9 9l76 31q3 1 6.5 2.5t6.5 1.5q4 0 10 -7.5t11 -19t9.5 -25.5t6.5 -27q7 9 18 22t26 26t34.5 22t45.5 9q22 0 40 -6.5t18 -16.5q0 -6 -2 -10l-31 -84q-1 -2 -3 -5.5
t-5 -3.5q-5 0 -17.5 5.5t-29.5 5.5q-12 0 -23.5 -5.5t-21.5 -13t-18 -16t-13 -13.5v-334z" />
    <glyph glyph-name="s" unicode="s" horiz-adv-x="426" 
d="M354 394q-4 -9 -8 -9q-1 0 -10.5 4t-25 9t-36 9t-44.5 4q-29 0 -47.5 -11t-18.5 -37q0 -20 15 -31t38.5 -20t52 -18.5t55.5 -27.5q29 -20 48 -49t19 -73q0 -35 -12 -64t-34 -51t-53.5 -34t-71.5 -12q-28 0 -60.5 6.5t-61 16t-47.5 21t-19 21.5q0 2 2 6t3 7l22 57q4 9 8 9
q1 0 15 -7t34.5 -15t45.5 -15t48 -7q25 0 43 11.5t18 38.5q0 22 -16.5 34.5t-41 22t-53 19t-53.5 26.5q-23 15 -41 42t-18 71q0 34 12.5 64t35.5 52t55.5 34.5t73.5 12.5q23 0 50 -4.5t50.5 -11.5t39.5 -15.5t16 -17.5q0 -2 -1.5 -6t-3.5 -7z" />
    <glyph glyph-name="t" unicode="t" horiz-adv-x="370" 
d="M366 29q1 -4 1.5 -5t0.5 -3q0 -7 -12.5 -14t-32.5 -12t-45.5 -8.5t-50.5 -3.5q-48 0 -74.5 17t-38.5 45t-14 62t-2 69v225h-71q-9 0 -11.5 3t-2.5 11v65q0 8 2.5 11t11.5 3h71v126q0 10 2.5 13t13.5 5l88 12q2 0 5 0.5t8 0.5q7 0 8.5 -4t1.5 -13v-140h114q7 0 12 -1.5
t5 -9.5q0 -4 -1 -8l-13 -59q-2 -11 -5.5 -13t-12.5 -2h-99v-242q0 -12 0.5 -23t3.5 -19.5t10 -13.5t20 -5q30 0 49 9.5t30 9.5q6 0 8 -6z" />
    <glyph glyph-name="u" unicode="u" horiz-adv-x="537" 
d="M397 -14q-9 -3 -15 -3q-10 0 -17 14.5t-15 44.5q-10 -9 -24 -19.5t-33 -19t-42.5 -14.5t-53.5 -6q-21 0 -43.5 6t-42 22t-32 44.5t-12.5 73.5v344q0 11 5 13.5t14 4.5l84 17q2 0 8 1.5t8 1.5q5 0 6.5 -4t1.5 -17v-318q0 -14 1.5 -29t7.5 -27t17 -20t30 -8q32 0 55 12
t33 19v354q0 11 5 13.5t14 4.5l84 17q2 0 8 1.5t9 1.5q4 0 5.5 -4t1.5 -17v-312q0 -53 3 -80.5t6.5 -41.5t6.5 -19.5t3 -14.5q0 -8 -11 -11z" />
    <glyph glyph-name="v" unicode="v" horiz-adv-x="463" 
d="M289 4q-3 -8 -5.5 -10.5t-13.5 -2.5h-82q-11 0 -13.5 2.5t-5.5 10.5l-159 461q-1 2 -2.5 7t-2.5 10q0 6 5.5 7.5t16.5 3.5l83 9q2 0 8 0.5t8 0.5q6 0 9 -6t5 -14l61 -225q4 -15 8.5 -34.5t9 -39.5t8.5 -38.5t6 -32.5h2q2 13 6 32t8.5 39.5t9.5 39.5t10 34l68 225
q2 8 5 14t9 6q2 0 8 -0.5t8 -0.5l68 -9q11 -2 16.5 -3.5t5.5 -7.5q-1 -5 -2.5 -10t-2.5 -7z" />
    <glyph glyph-name="w" unicode="w" horiz-adv-x="667" 
d="M187 267q8 -37 13 -82t9 -87h2q0 14 2 35t5 43.5t6 43t6 34.5l46 224q2 11 5 13.5t14 2.5h89q11 0 14 -2.5t5 -13.5l44 -224q3 -16 6 -36.5t6 -41.5t5 -41.5t2 -36.5h2q4 42 8.5 84.5t13.5 84.5l48 216q2 8 5 14t9 6q3 0 8.5 -0.5t7.5 -0.5l68 -9q11 -2 16.5 -3.5
t5.5 -6.5q0 -3 -1.5 -8t-3.5 -11l-139 -459q-3 -10 -6 -12t-13 -2h-78q-10 0 -13 4t-5 12l-49 254q-5 24 -8 57.5t-5 54.5h-2q-2 -21 -7 -54.5t-11 -57.5l-60 -254q-2 -8 -5 -12t-13 -4h-78q-10 0 -13 2t-6 12l-120 459q-2 5 -3 10t-2 9q0 5 5.5 6.5t16.5 3.5l75 9
q2 0 8 0.5t9 0.5q5 0 8 -6t5 -14z" />
    <glyph glyph-name="x" unicode="x" horiz-adv-x="463" 
d="M448 52q2 -4 5 -8t3 -6q0 -5 -2.5 -7t-10.5 -6l-76 -29q-4 -2 -9 -3.5t-8 -1.5t-6.5 5t-8.5 13l-65 92q-9 13 -20 31.5t-19 29.5q-8 -11 -19 -29.5t-20 -31.5l-65 -92q-5 -8 -8.5 -13t-6.5 -5t-8 1.5t-9 3.5l-76 29q-8 3 -10.5 5.5t-2.5 7.5q0 2 3 6t5 8l146 198
l-131 192q-2 4 -5 8t-3 6q0 5 2.5 7t10.5 6l76 29q4 1 9 3t8 2q4 0 7 -5t8 -13l52 -87q11 -17 18 -30.5t17 -30.5q10 17 19.5 30t21.5 31l58 87q5 8 8 13t7 5q3 0 8 -2t9 -3l76 -29q8 -4 10.5 -6t2.5 -7q0 -2 -3 -6t-5 -8l-136 -193z" />
    <glyph glyph-name="y" unicode="y" horiz-adv-x="481" 
d="M336 482q2 8 6 14.5t11 6.5q3 0 9.5 -0.5t8.5 -0.5l70 -9q11 -2 16.5 -3.5t5.5 -6.5q0 -3 -1.5 -7.5l-3.5 -10.5l-98 -361q-7 -24 -15 -54t-17 -60.5t-18 -58.5t-17 -49q-11 -27 -27.5 -45.5t-36 -29t-41 -15t-42.5 -4.5t-44.5 4.5t-44 11.5t-34 15t-13.5 15q0 4 4 12
l30 65q3 7 9 7q4 0 11.5 -4t18.5 -8.5t24.5 -8.5t30.5 -4q19 0 32.5 5.5t22.5 15.5t14.5 23.5t10.5 29.5l10 33h-42q-10 0 -13 3t-5 10l-153 452q-1 2 -2.5 7t-2.5 10q0 6 5.5 7.5t16.5 3.5l83 9q2 0 8 0.5t8 0.5q6 0 9 -6t5 -14l65 -242q4 -17 10 -41.5t11.5 -49.5t10 -47
t6.5 -35h2q2 15 7 41t10 53t9.5 49.5t6.5 29.5z" />
    <glyph glyph-name="z" unicode="z" horiz-adv-x="426" 
d="M381 13q-2 -6 -6.5 -9.5t-7.5 -3.5h-333q-10 0 -10 10v75l230 304h-202q-7 0 -7 13v78q0 14 14 14h317q6 0 11.5 -2.5t5.5 -7.5v-78l-226 -301h228q14 0 16.5 -4t2.5 -6q0 -4 -1.5 -6.5t-2.5 -4.5z" />
    <glyph glyph-name="braceleft" unicode="{" horiz-adv-x="444" 
d="M388 -181q0 -11 -3 -16t-15 -5q-47 0 -84 9.5t-62.5 31.5t-39.5 57t-14 86v149q0 38 -15.5 55t-52.5 17h-18q-13 0 -16.5 3.5t-3.5 17.5v66q0 14 3.5 17.5t16.5 3.5h18q37 0 52.5 17t15.5 55v150q0 51 14 86t39.5 57t62.5 31.5t84 9.5q12 0 15 -5t3 -16v-64
q0 -12 -3.5 -16t-16.5 -4q-12 0 -24.5 -1t-23 -8t-17 -21t-6.5 -40v-164q0 -28 -5 -47t-14.5 -32.5t-23 -23t-30.5 -17.5q17 -9 30.5 -18.5t23 -23t14.5 -33t5 -47.5v-163q0 -26 6.5 -40t17 -21t23 -8t24.5 -1q13 0 16.5 -4t3.5 -16v-64z" />
    <glyph glyph-name="bar" unicode="|" horiz-adv-x="400" 
d="M250 -233q0 -11 -3 -14t-14 -3h-66q-11 0 -14 3t-3 14v966q0 11 3 14t14 3h66q11 0 14 -3t3 -14v-966z" />
    <glyph glyph-name="braceright" unicode="}" horiz-adv-x="444" 
d="M274 -18q0 -51 -14 -86t-39.5 -57t-63 -31.5t-83.5 -9.5q-12 0 -15 5t-3 16v64q0 12 3.5 16t16.5 4q12 0 24.5 1t23 8t17 21t6.5 40v163q0 28 5 47.5t14.5 33t23 23t30.5 18.5q-17 8 -30.5 17.5t-23 23t-14.5 32.5t-5 47v164q0 26 -6.5 40t-17 21t-23 8t-24.5 1
q-13 0 -16.5 4t-3.5 16v64q0 11 3 16t15 5q46 0 83.5 -9.5t63 -31.5t39.5 -57t14 -86v-150q0 -38 15.5 -55t52.5 -17h18q13 0 16.5 -3.5t3.5 -17.5v-66q0 -14 -3.5 -17.5t-16.5 -3.5h-18q-37 0 -52.5 -17t-15.5 -55v-149z" />
    <glyph glyph-name="asciitilde" unicode="~" 
d="M530 342q0 -22 -4 -54t-17.5 -61.5t-38 -50.5t-66.5 -21q-32 0 -62 12t-58 29l-38 22q-27 17 -56 31.5t-52 14.5q-18 0 -28.5 -9.5t-15.5 -23.5t-7.5 -30.5t-3.5 -30.5h-60q0 22 4 54t17.5 61.5t38 50.5t66.5 21q32 0 62 -12t58 -29l38 -22q27 -17 56 -31.5t52 -14.5
q18 0 28.5 9.5t15.5 23.5t7 30.5t4 30.5h60z" />
    <glyph glyph-name="exclamdown" unicode="&#xa1;" horiz-adv-x="352" 
d="M260 426q0 -34 -24.5 -59t-59.5 -25q-36 0 -60.5 25t-24.5 59q0 36 24.5 60.5t60.5 24.5q35 0 59.5 -25t24.5 -60zM247 -175q1 -13 1 -14v-6q0 -10 -7 -11.5t-13 -1.5h-107q-6 0 -12 1.5t-6 11.5v6t1 14l22 391q2 14 6 17t15 3h57q11 0 15 -3t6 -17z" />
    <glyph glyph-name="cent" unicode="&#xa2;" 
d="M357 20q0 -13 -3.5 -16.5t-17.5 -3.5h-18q-14 0 -17.5 3.5t-3.5 16.5v51q-31 2 -66.5 14.5t-65.5 41.5t-49.5 77.5t-19.5 122.5q0 77 19.5 127t49 80.5t65 44.5t67.5 18v54q0 14 3.5 17.5t17.5 3.5h18q14 0 17.5 -4t3.5 -17v-54q8 0 26.5 -3.5t38 -9.5t34 -13.5
t14.5 -16.5q0 -6 -3 -9l-38 -70q-2 -4 -5 -4t-10.5 4.5t-17 10.5t-20 10.5t-19.5 4.5v-325q31 5 45.5 13.5t18.5 8.5t7 -5l28 -70q1 -2 2 -4.5t1 -4.5q0 -9 -13 -16.5t-30 -13t-34 -9t-25 -4.5v-51zM297 501q-14 -4 -27 -13t-23.5 -27.5t-17 -49.5t-6.5 -79q0 -42 6 -70.5
t16 -46t23.5 -26.5t28.5 -13v325z" />
    <glyph glyph-name="sterling" unicode="&#xa3;" 
d="M526 17q-2 -10 -7 -13.5t-16 -3.5h-435q-14 0 -17.5 3.5t-3.5 17.5v67q0 13 3.5 16.5t17.5 3.5h70q4 19 8.5 38.5t4.5 48.5q0 32 -5 56.5t-9 44.5h-80q-13 0 -16.5 3.5t-3.5 17.5v51q0 13 3.5 17t16.5 4h61q-5 23 -9 45.5t-4 46.5q0 50 17 88t47 64t71.5 39t90.5 13
q35 0 67.5 -6.5t57 -15.5t39 -19.5t14.5 -19.5q0 -7 -2 -9l-33 -63q-5 -10 -13 -10q-6 0 -17 6t-27 13t-37 13t-46 6q-48 0 -78.5 -26t-30.5 -81q0 -21 4.5 -42.5t11.5 -41.5h137q13 0 16.5 -4t3.5 -17v-51q0 -13 -3 -17t-17 -4h-121q5 -22 9.5 -45t4.5 -56q0 -28 -3 -49
t-6 -38h263q8 0 14 -1.5t6 -9.5q0 -4 -2 -12z" />
    <glyph glyph-name="yen" unicode="&#xa5;" horiz-adv-x="537" 
d="M331 21q0 -14 -4 -17.5t-17 -3.5h-73q-13 0 -17 3.5t-4 17.5v225h-174q-13 0 -16.5 3.5t-3.5 16.5v12q0 13 3.5 16.5t16.5 3.5h163l-25 51h-137q-14 0 -17.5 4t-3.5 16v12q0 13 4 16.5t17 3.5h113l-122 243q-7 10 -7 21q0 5 7.5 7t13.5 4l85 16q3 0 6 1t9 1q5 0 7.5 -4.5
t7.5 -15.5l55 -140q6 -16 14 -36.5t16 -42.5t15 -45t13 -44h2q10 44 25 86t31 82l56 140q6 14 8 17t7 3q6 0 9 -1t6 -1l69 -15l13.5 -4.5t7.5 -7.5q0 -10 -7 -20l-115 -244h107q13 0 16.5 -3.5t3.5 -16.5v-12q0 -13 -3.5 -16.5t-16.5 -3.5h-132l-23 -51h155q13 0 16.5 -3.5
t3.5 -16.5v-12q0 -13 -3.5 -16.5t-16.5 -3.5h-164v-225z" />
    <glyph glyph-name="florin" unicode="&#x192;" 
d="M247 -5q-4 -20 -12 -53t-28.5 -65t-57.5 -55.5t-99 -23.5q-14 0 -29 1t-27 3t-20 5t-8 8q0 2 1 5.5t2 5.5l20 70q1 6 8 6q3 0 13.5 -2t26.5 -2q27 0 43.5 10t26 26t14 36t8.5 40l78 391h-61q-8 0 -14 2t-6 10q0 7 1 11l9 51q2 11 7 15t15 4h69l14 63q4 22 11 50t25 52.5
t50.5 41t88.5 16.5q19 0 37 -2.5t32 -6t22.5 -8.5t8.5 -10q0 -3 -1 -5.5t-1 -4.5l-22 -65q-1 -2 -2.5 -6t-6.5 -4q-4 0 -21 8t-39 8t-34.5 -9.5t-19 -22.5t-9.5 -27.5t-5 -24.5l-8 -43h103q8 0 14 -2t6 -10q0 -4 -2 -12l-16 -52q-5 -17 -22 -17h-103z" />
    <glyph glyph-name="section" unicode="&#xa7;" 
d="M289 219q10 6 22 13.5t22.5 17.5t17.5 22.5t7 29.5q0 16 -9 28t-22 22t-27.5 17.5t-26.5 13.5q-10 -6 -23 -13.5t-25 -18t-20 -23.5t-8 -29t10 -28.5t24.5 -22.5t30.5 -17t27 -12zM415 576q-4 -8 -11 -8q-5 0 -16 6.5t-26 14t-34 14t-40 6.5q-27 0 -47 -11t-20 -34
q0 -16 16 -28.5t42 -25.5t58.5 -28t65.5 -37q32 -22 53.5 -51.5t21.5 -76.5q0 -32 -10.5 -56.5t-26 -41.5t-32.5 -28.5t-30 -18.5q12 -7 26 -16.5t26 -24t20 -35.5t8 -49q0 -35 -15 -65.5t-40.5 -53.5t-59.5 -36t-73 -13q-34 0 -68 8t-61.5 19t-45 23t-17.5 21q0 6 3 11
l32 61q1 2 3.5 5t5.5 3q5 0 17.5 -8.5t32 -19t45.5 -19t56 -8.5q28 0 43 15t15 38q0 16 -9 28.5t-24 22.5t-35 19t-41 18q-26 11 -52 25t-47 33.5t-34 46t-13 62.5t10.5 61t26.5 41.5t34 26.5t33 17q-9 6 -22 14.5t-25 22t-20 33.5t-8 47q0 38 15.5 67t41 49t58.5 30t68 10
q31 0 60 -6.5t51 -16t35 -19.5t13 -17q0 -5 -4 -11z" />
    <glyph glyph-name="quotesingle" unicode="'" horiz-adv-x="204" 
d="M143 465q-1 -13 -4.5 -16.5t-16.5 -3.5h-41q-13 0 -16.5 3.5t-4.5 16.5l-21 229q-1 3 -1 10q0 10 6 11.5t14 1.5h87q8 0 14 -1.5t6 -11.5q0 -7 -1 -10z" />
    <glyph glyph-name="quotedblleft" unicode="&#x201c;" horiz-adv-x="500" 
d="M186 471q-5 -17 -22 -17h-97q-8 0 -14 1.5t-6 9.5q0 4 1.5 8.5t3.5 6.5l119 223q3 5 6 9.5t8 4.5q4 0 6.5 -1t5.5 -2l38 -13q6 -2 11 -5t5 -8q0 -4 -0.5 -6t-2.5 -7zM388 471q-5 -17 -22 -17h-97q-8 0 -14 1.5t-6 9.5q0 4 1.5 8.5t3.5 6.5l119 223q3 5 6 9.5t8 4.5
q4 0 6.5 -1t5.5 -2l38 -13q6 -2 11 -5t5 -8q0 -4 -0.5 -6t-2.5 -7z" />
    <glyph glyph-name="guillemotleft" unicode="&#xab;" horiz-adv-x="593" 
d="M474 6q-3 -2 -6.5 -4t-7.5 -2q-5 0 -14 12l-169 224q-6 8 -6 14t6 14l169 219q9 11 14 11q4 0 7.5 -2t6.5 -4l50 -31q13 -8 13 -15q0 -4 -2.5 -7.5t-4.5 -6.5l-124 -184l124 -178q2 -4 4 -7t2 -7q0 -8 -12 -15zM239 6q-3 -2 -6.5 -4t-7.5 -2q-5 0 -14 12l-169 224
q-6 8 -6 14t6 14l169 219q9 11 14 11q4 0 7.5 -2t6.5 -4l50 -31q13 -8 13 -15q0 -4 -2.5 -7.5t-4.5 -6.5l-124 -184l124 -178q2 -4 4 -7t2 -7q0 -8 -12 -15z" />
    <glyph glyph-name="guilsinglleft" unicode="&#x2039;" horiz-adv-x="370" 
d="M239 6q-3 -2 -6.5 -4t-7.5 -2q-5 0 -14 12l-169 224q-6 8 -6 14t6 14l169 219q9 11 14 11q4 0 7.5 -2t6.5 -4l50 -31q13 -8 13 -15q0 -4 -2.5 -7.5t-4.5 -6.5l-124 -184l124 -178q2 -4 4 -7t2 -7q0 -8 -12 -15z" />
    <glyph glyph-name="guilsinglright" unicode="&#x203a;" horiz-adv-x="370" 
d="M159 12q-9 -12 -14 -12q-4 0 -7.5 2t-6.5 4l-50 31q-12 7 -12 15q0 4 2 7t4 7l124 178l-124 184q-2 3 -4.5 6.5t-2.5 7.5q0 7 13 15l50 31q3 2 6.5 4t7.5 2q5 0 14 -11l169 -219q6 -8 6 -14t-6 -14z" />
    <glyph glyph-name="fi" unicode="&#xfb01;" horiz-adv-x="611" 
d="M234 21q0 -14 -4 -17.5t-17 -3.5h-85q-13 0 -17 3.5t-4 17.5v380h-71q-13 0 -17 3.5t-4 17.5v51q0 14 4 17.5t17 3.5h71v41q0 41 8 76t25.5 60t46 39t70.5 14q14 0 31.5 -3t33.5 -7.5t26.5 -11.5t10.5 -14q0 -3 -2 -9l-18 -70q-1 -3 -3.5 -6.5t-5.5 -3.5q-5 0 -17 8.5
t-33 8.5q-17 0 -26 -6t-13.5 -16.5t-5.5 -25.5t-1 -33v-41h271q9 0 11.5 -3t2.5 -11v-466q0 -8 -2.5 -11t-11.5 -3h-99q-9 0 -11.5 3t-2.5 11v387h-158v-380zM455 559q-35 0 -59 24t-24 59t24 58.5t59 23.5q34 0 58 -23.5t24 -58.5t-24 -59t-58 -24z" />
    <glyph glyph-name="fl" unicode="&#xfb02;" horiz-adv-x="630" 
d="M621 19q1 -4 1.5 -5t0.5 -3q0 -5 -9 -10t-23.5 -9t-32.5 -6.5t-36 -2.5q-46 0 -71 17t-36.5 45t-13.5 62t-2 69v510q0 11 5 13.5t14 4.5l84 17q2 0 7 1.5t7 1.5q6 0 8 -4t2 -17v-545q0 -24 3.5 -42t24.5 -18q15 0 24.5 4.5t14.5 4.5q6 0 8 -6zM234 21q0 -14 -4 -17.5
t-17 -3.5h-85q-13 0 -17 3.5t-4 17.5v380h-71q-13 0 -17 3.5t-4 17.5v51q0 14 4 17.5t17 3.5h71v41q0 41 8 76t25.5 60t46 39t70.5 14q14 0 31.5 -3t33.5 -7.5t26.5 -11.5t10.5 -14q0 -3 -2 -9l-18 -70q-1 -3 -3.5 -6.5t-5.5 -3.5q-5 0 -17 8.5t-33 8.5q-17 0 -26 -6
t-13.5 -16.5t-5.5 -25.5t-1 -33v-41h101q7 0 12 -2t5 -8q0 -3 -0.5 -5t-1.5 -5l-14 -59q-2 -10 -6.5 -12t-12.5 -2h-83v-380z" />
    <glyph glyph-name="endash" unicode="&#x2013;" 
d="M515 219q0 -14 -3.5 -17.5t-17.5 -3.5h-431q-14 0 -17.5 3.5t-3.5 17.5v73q0 14 3.5 17.5t17.5 3.5h431q14 0 17.5 -3.5t3.5 -17.5v-73z" />
    <glyph glyph-name="dagger" unicode="&#x2020;" 
d="M333 -191q0 -13 -3.5 -17t-17.5 -4h-68q-14 0 -17.5 3.5t-3.5 17.5v571h-117q-14 0 -17.5 4t-3.5 17v55q0 13 4 16.5t18 3.5h116v189q0 13 3.5 16.5t16.5 3.5h70q13 0 16.5 -3.5t3.5 -16.5v-189h117q13 0 17 -3.5t4 -16.5v-55q0 -13 -4 -17t-17 -4h-117v-571z" />
    <glyph glyph-name="daggerdbl" unicode="&#x2021;" 
d="M333 -191q0 -13 -3.5 -17t-17.5 -4h-68q-14 0 -17.5 3.5t-3.5 17.5v191h-117q-14 0 -17.5 4t-3.5 17v55q0 13 4 16.5t18 3.5h116v284h-117q-14 0 -17.5 4t-3.5 17v55q0 13 4 16.5t18 3.5h116v189q0 13 3.5 16.5t16.5 3.5h70q13 0 16.5 -3.5t3.5 -16.5v-189h117
q13 0 17 -3.5t4 -16.5v-55q0 -13 -4 -17t-17 -4h-117v-284h117q13 0 17 -3.5t4 -16.5v-55q0 -13 -4 -17t-17 -4h-117v-191z" />
    <glyph glyph-name="periodcentered" unicode="&#xb7;" 
d="M354 256q0 -32 -22.5 -54t-53.5 -22q-32 0 -54.5 22t-22.5 54t22.5 54.5t54.5 22.5t54 -22.5t22 -54.5z" />
    <glyph glyph-name="periodcentered" unicode="&#x22c5;" 
d="M354 256q0 -32 -22.5 -54t-53.5 -22q-32 0 -54.5 22t-22.5 54t22.5 54.5t54.5 22.5t54 -22.5t22 -54.5z" />
    <glyph glyph-name="paragraph" unicode="&#xb6;" horiz-adv-x="667" 
d="M306 595q-30 0 -57.5 -3.5t-48.5 -20t-33.5 -50t-12.5 -92.5q0 -94 24.5 -138.5t89.5 -44.5q10 0 19 1.5t19 3.5v344zM574 -166q0 -13 -3.5 -16.5t-16.5 -3.5h-60q-13 0 -16.5 3.5t-3.5 16.5v761h-68v-761q0 -13 -3.5 -16.5t-16.5 -3.5h-60q-13 0 -16.5 3.5t-3.5 16.5
v327q-32 -8 -61 -8q-106 0 -162 70t-56 194q0 94 24 147.5t62.5 80.5t87 33.5t98.5 6.5h332q14 0 17.5 -3.5t3.5 -16.5v-50q0 -13 -4 -16.5t-17 -3.5h-57v-761z" />
    <glyph glyph-name="bullet" unicode="&#x2022;" horiz-adv-x="500" 
d="M250 180q-38 0 -70.5 14t-57.5 38.5t-39 57.5t-14 70t14 70.5t39 58t57.5 39t70.5 14.5q37 0 70 -14.5t57.5 -39t39 -58t14.5 -70.5t-14.5 -70t-39 -57.5t-57.5 -38.5t-70 -14z" />
    <glyph glyph-name="quotesinglbase" unicode="&#x201a;" horiz-adv-x="222" 
d="M78 -124q-3 -5 -6 -9.5t-8 -4.5q-4 0 -6.5 1t-5.5 2l-38 13q-6 2 -11 5t-5 8q0 4 0.5 6t2.5 7l62 204q5 17 22 17h97q8 0 14 -1.5t6 -9.5q0 -4 -1.5 -8.5t-3.5 -6.5z" />
    <glyph glyph-name="quotedblbase" unicode="&#x201e;" horiz-adv-x="500" 
d="M333 -124q-3 -5 -6 -9.5t-8 -4.5q-4 0 -6.5 1t-5.5 2l-38 13q-6 2 -11 5t-5 8q0 4 0.5 6t2.5 7l62 204q5 17 22 17h97q8 0 14 -1.5t6 -9.5q0 -4 -1.5 -8.5t-3.5 -6.5zM131 -124q-3 -5 -6 -9.5t-8 -4.5q-4 0 -6.5 1t-5.5 2l-38 13q-6 2 -11 5t-5 8q0 4 0.5 6t2.5 7l62 204
q5 17 22 17h97q8 0 14 -1.5t6 -9.5q0 -4 -1.5 -8.5t-3.5 -6.5z" />
    <glyph glyph-name="quotedblright" unicode="&#x201d;" horiz-adv-x="500" 
d="M329 468q-3 -5 -6 -9.5t-8 -4.5q-4 0 -6.5 1t-5.5 2l-38 13q-6 2 -11 5t-5 8q0 4 0.5 6t2.5 7l62 204q5 17 22 17h97q8 0 14 -1.5t6 -9.5q0 -4 -1.5 -8.5t-3.5 -6.5zM127 468q-3 -5 -6 -9.5t-8 -4.5q-4 0 -6.5 1t-5.5 2l-38 13q-6 2 -11 5t-5 8q0 4 0.5 6t2.5 7l62 204
q5 17 22 17h97q8 0 14 -1.5t6 -9.5q0 -4 -1.5 -8.5t-3.5 -6.5z" />
    <glyph glyph-name="guillemotright" unicode="&#xbb;" horiz-adv-x="593" 
d="M147 12q-9 -12 -14 -12q-4 0 -7.5 2t-6.5 4l-50 31q-12 7 -12 15q0 4 2 7t4 7l124 178l-124 184q-2 3 -4.5 6.5t-2.5 7.5q0 7 13 15l50 31q3 2 6.5 4t7.5 2q5 0 14 -11l169 -219q6 -8 6 -14t-6 -14zM382 12q-9 -12 -14 -12q-4 0 -7.5 2t-6.5 4l-50 31q-12 7 -12 15
q0 4 2 7t4 7l124 178l-124 184q-2 3 -4.5 6.5t-2.5 7.5q0 7 13 15l50 31q3 2 6.5 4t7.5 2q5 0 14 -11l169 -219q6 -8 6 -14t-6 -14z" />
    <glyph glyph-name="ellipsis" unicode="&#x2026;" horiz-adv-x="1000" 
d="M590 90q0 -38 -26.5 -64t-63.5 -26q-38 0 -64 26t-26 64q0 37 26 63.5t64 26.5q37 0 63.5 -26t26.5 -64zM923 90q0 -38 -26.5 -64t-63.5 -26q-38 0 -64 26t-26 64q0 37 26 63.5t64 26.5q37 0 63.5 -26t26.5 -64zM257 90q0 -38 -26.5 -64t-63.5 -26q-38 0 -64 26t-26 64
q0 37 26 63.5t64 26.5q37 0 63.5 -26t26.5 -64z" />
    <glyph glyph-name="perthousand" unicode="&#x2030;" horiz-adv-x="1185" 
d="M988 58q16 0 25.5 8t15 21.5t7 32t1.5 39.5q0 43 -9 72t-40 29q-16 0 -25.5 -8t-15 -21.5t-7 -32t-1.5 -39.5t1.5 -39.5t7 -32t15 -21.5t25.5 -8zM1137 159q0 -79 -38.5 -127.5t-110.5 -48.5t-110.5 48t-38.5 128q0 79 38.5 127.5t110.5 48.5t110.5 -48.5t38.5 -127.5z
M199 391q16 0 25.5 8t15 21.5t7 32t1.5 39.5q0 43 -9 72t-40 29q-16 0 -25.5 -8t-15 -21.5t-7 -32t-1.5 -39.5t1.5 -39.5t7 -32t15 -21.5t25.5 -8zM348 492q0 -79 -38.5 -127.5t-110.5 -48.5t-110.5 48t-38.5 128q0 79 38.5 127.5t110.5 48.5t110.5 -48.5t38.5 -127.5z
M350 0q-6 -17 -23 -17h-51q-7 0 -14 1t-7 9q0 4 4 14l237 662q4 11 10.5 13.5t12.5 2.5h51q8 0 13.5 -2t5.5 -10q0 -5 -3 -14zM781 159q0 -79 -38.5 -127.5t-110.5 -48.5t-110.5 48t-38.5 128q0 79 38.5 127.5t110.5 48.5t110.5 -48.5t38.5 -127.5zM632 58q16 0 25.5 8
t15 21.5t7 32t1.5 39.5q0 43 -9 72t-40 29q-16 0 -25.5 -8t-15 -21.5t-7 -32t-1.5 -39.5t1.5 -39.5t7 -32t15 -21.5t25.5 -8z" />
    <glyph glyph-name="questiondown" unicode="&#xbf;" horiz-adv-x="500" 
d="M360 427q0 -36 -24.5 -60.5t-60.5 -24.5q-35 0 -59.5 25t-24.5 60q0 34 24.5 59t59.5 25q36 0 60.5 -25t24.5 -59zM439 -138q2 -4 2 -11q0 -10 -19.5 -20.5t-48 -19t-61 -14t-57.5 -5.5q-45 0 -81.5 14t-62 38.5t-39 59t-13.5 75.5q0 48 17 80t42 52.5t53 31.5t50 19v68
q0 14 3.5 17.5t17.5 3.5h73q14 0 17.5 -3.5t3.5 -17.5v-125q0 -17 -22 -24t-49 -16q-13 -5 -26 -11t-23 -16t-16 -24.5t-6 -35.5q0 -71 83 -71q23 0 44 5t38 11.5t28 11.5t15 5q9 0 11 -10z" />
    <glyph glyph-name="grave" unicode="`" horiz-adv-x="335" 
d="M239 578q-3 -6 -5.5 -10t-7.5 -4q-4 0 -7 1t-7 3l-176 70q-6 2 -11 5t-5 8q0 4 1.5 7.5t3.5 6.5l31 61q3 5 6 9.5t8 4.5q4 0 7.5 -2t6.5 -4l163 -96q6 -4 9.5 -6.5t3.5 -7.5q0 -4 -1.5 -7.5t-3.5 -6.5z" />
    <glyph glyph-name="acute" unicode="&#xb4;" horiz-adv-x="335" 
d="M123 568q-4 -2 -7 -3t-7 -1q-5 0 -7.5 4t-5.5 10l-16 32q-2 3 -3.5 6.5t-1.5 7.5q0 5 3.5 7.5t9.5 6.5l163 96q3 2 6.5 4t7.5 2q5 0 8 -4.5t6 -9.5l31 -61q2 -3 3.5 -6.5t1.5 -7.5q0 -5 -5 -8t-11 -5z" />
    <glyph glyph-name="circumflex" unicode="&#x2c6;" horiz-adv-x="335" 
d="M282 577q-5 -9 -8 -11t-6 -2q-4 0 -7 2t-7 4l-86 49l-86 -49q-4 -2 -7 -4t-7 -2q-3 0 -6 2t-8 11l-19 32q-2 2 -4 6t-2 8q0 5 4 8l8 6l113 89q3 2 6.5 5t7.5 3t7.5 -3t6.5 -5l113 -89l8 -6t4 -8q0 -4 -2 -8t-4 -6z" />
    <glyph glyph-name="tilde" unicode="&#x2dc;" horiz-adv-x="335" 
d="M315 691q2 -2 4.5 -4t2.5 -5q0 -2 -6.5 -17t-19 -32t-32.5 -31t-47 -14q-18 0 -31.5 5.5t-24 12t-20.5 12t-20 5.5q-11 0 -18 -5.5t-12 -12.5t-8 -12.5t-7 -5.5q-5 0 -9 3l-47 24q-7 3 -7 8q0 1 5.5 16t18 32t32 31.5t47.5 14.5q19 0 33.5 -5.5t26.5 -12t22 -12t20 -5.5
t16.5 5.5t11 12.5t7.5 12.5t8 5.5q3 0 7 -2z" />
    <glyph glyph-name="macron" unicode="&#xaf;" horiz-adv-x="335" 
d="M290 631q0 -13 -3 -16.5t-17 -3.5h-205q-12 0 -16 3.5t-4 16.5v42q0 14 3.5 17t16.5 3h205q14 0 17 -3.5t3 -16.5v-42z" />
    <glyph glyph-name="macron" unicode="&#x2c9;" horiz-adv-x="335" 
d="M290 631q0 -13 -3 -16.5t-17 -3.5h-205q-12 0 -16 3.5t-4 16.5v42q0 14 3.5 17t16.5 3h205q14 0 17 -3.5t3 -16.5v-42z" />
    <glyph glyph-name="breve" unicode="&#x2d8;" horiz-adv-x="335" 
d="M297 714q11 -2 11 -13q0 -14 -6.5 -35t-22.5 -40t-43 -32.5t-68 -13.5t-68.5 13.5t-43.5 32.5t-22.5 40t-6.5 35q0 11 11 13l59 8q2 0 6.5 0.5t6.5 0.5q5 0 6.5 -9.5t6.5 -21.5q5 -11 14.5 -20.5t30.5 -9.5t30.5 9.5t13.5 20.5q4 12 6 21.5t7 9.5q2 0 6.5 -0.5t6.5 -0.5z
" />
    <glyph glyph-name="dotaccent" unicode="&#x2d9;" horiz-adv-x="335" 
d="M246 651q0 -16 -6 -30t-16.5 -24.5t-25 -16.5t-30.5 -6q-32 0 -54.5 22.5t-22.5 54.5q0 33 22.5 55.5t54.5 22.5t55 -23t23 -55z" />
    <glyph glyph-name="dieresis" unicode="&#xa8;" horiz-adv-x="335" 
d="M326 652q0 -29 -20 -49t-49 -20t-49 20t-20 49t20 49t49 20t49 -20.5t20 -48.5zM149 652q0 -29 -20 -49t-49 -20t-49 20t-20 49t20 49t49 20t49 -20t20 -49z" />
    <glyph glyph-name="ring" unicode="&#x2da;" horiz-adv-x="335" 
d="M168 626q18 0 30.5 12t12.5 30t-12.5 30.5t-30.5 12.5q-17 0 -29.5 -12t-12.5 -31q0 -18 12.5 -30t29.5 -12zM273 668q0 -22 -8.5 -41t-22.5 -33t-33.5 -22t-40.5 -8t-40 8t-33.5 22t-22.5 33t-8 41t8 41t22.5 33.5t33.5 22.5t40 8t40.5 -8t33.5 -22.5t22.5 -33.5
t8.5 -41z" />
    <glyph glyph-name="cedilla" unicode="&#xb8;" horiz-adv-x="335" 
d="M188 -52q10 0 22 -3.5t23 -12t18.5 -22t7.5 -34.5q0 -39 -28.5 -63.5t-80.5 -24.5q-13 0 -26 1t-23.5 3t-17 5.5t-6.5 8.5q0 4 2 12l7 34l1.5 6t4.5 2t14.5 -3.5t27.5 -3.5q14 0 23 6.5t9 16.5q0 15 -15.5 19t-27.5 4q-11 0 -15 2.5t-4 8.5q0 5 0.5 10.5t1.5 10.5l5 69
h81z" />
    <glyph glyph-name="hungarumlaut" unicode="&#x2dd;" horiz-adv-x="335" 
d="M261 573q-3 -3 -6.5 -6t-7.5 -3q-5 0 -8.5 3t-6.5 6l-15 13q-3 2 -6.5 6t-3.5 9q0 4 2.5 6.5t5.5 7.5l94 122q3 4 6.5 7.5t8.5 3.5q4 0 7.5 -3t6.5 -5l38 -34q3 -3 6.5 -6t3.5 -8t-3.5 -9t-6.5 -6zM105 573q-3 -3 -6.5 -6t-7.5 -3q-5 0 -8.5 3t-6.5 6l-15 13q-3 2 -6.5 6
t-3.5 9q0 4 2.5 6.5t5.5 7.5l94 122q3 4 6.5 7.5t8.5 3.5q4 0 7.5 -3t6.5 -5l38 -34q3 -3 6.5 -6t3.5 -8t-3.5 -9t-6.5 -6z" />
    <glyph glyph-name="ogonek" unicode="&#x2db;" horiz-adv-x="335" 
d="M259 -153q1 -3 2 -5.5t1 -5.5q0 -5 -8.5 -10.5t-21.5 -10t-29 -8t-31 -3.5q-42 0 -70.5 21.5t-28.5 61.5q0 26 10.5 47.5t24.5 37.5t29.5 27t24.5 17h78q-8 -7 -21.5 -20t-27.5 -28.5t-24 -32t-10 -29.5q0 -27 28 -27q23 0 35.5 9.5t17.5 9.5t7 -6z" />
    <glyph glyph-name="caron" unicode="&#x2c7;" horiz-adv-x="335" 
d="M182 572q-3 -2 -6.5 -5t-7.5 -3t-7.5 3t-6.5 5l-113 89l-8 6t-4 8q0 4 2 8t4 6l19 32q5 9 8 11t6 2q4 0 7 -2t7 -4l86 -49l86 49q4 2 7 4t7 2q3 0 6 -2t8 -11l19 -32q2 -2 4 -6t2 -8q0 -5 -4 -8l-8 -6z" />
    <glyph glyph-name="emdash" unicode="&#x2014;" horiz-adv-x="1000" 
d="M958 219q0 -14 -3.5 -17.5t-17.5 -3.5h-874q-14 0 -17.5 3.5t-3.5 17.5v73q0 14 3.5 17.5t17.5 3.5h874q14 0 17.5 -3.5t3.5 -17.5v-73z" />
    <glyph glyph-name="AE" unicode="&#xc6;" horiz-adv-x="778" 
d="M383 610h-2l-7 -21t-12 -34.5t-15.5 -40.5t-17.5 -40l-81 -201h135v337zM748 21q0 -14 -3.5 -17.5t-16.5 -3.5h-324q-13 0 -17 3.5t-4 17.5v162h-162l-63 -162q-3 -14 -6.5 -17.5t-14.5 -3.5h-101q-10 0 -14.5 2t-5.5 10q0 2 1.5 6.5l2.5 7.5l276 644q3 10 6 12.5t16 2.5
h409q15 0 20 -2t5 -9q0 -4 -0.5 -6.5t-2.5 -7.5l-19 -67q-3 -11 -10 -13.5t-13 -2.5h-194v-165h170q14 0 17.5 -3.5t3.5 -17.5v-66q0 -14 -4 -17.5t-17 -3.5h-170v-196h214q14 0 17.5 -3.5t3.5 -17.5v-66z" />
    <glyph glyph-name="ordfeminine" unicode="&#xaa;" horiz-adv-x="444" 
d="M249 497q-6 0 -20.5 -0.5t-30.5 -5t-28 -16.5t-12 -34q0 -20 12 -31.5t31 -11.5q17 0 30 7t18 12v80zM292 338q-5 -2 -9 -3.5t-7 -1.5q-4 0 -10 14t-8 25l-11.5 -11.5t-16.5 -12.5t-23.5 -10.5t-31.5 -4.5q-47 0 -77 27t-30 75q0 44 22 67.5t52 34.5t60.5 13t46.5 2v17
q0 24 -8 35t-39 11q-32 0 -55 -7.5t-33 -7.5q-5 0 -6 6l-14 41q-1 2 -1.5 3.5t-0.5 3.5q0 5 10.5 10.5t28 10t39 7.5t43.5 3q40 0 65 -9t38.5 -23.5t18 -34t4.5 -40.5v-117q0 -33 2.5 -49.5t6 -25t6 -12t2.5 -9.5q0 -7 -10 -9z" />
    <glyph glyph-name="Oslash" unicode="&#xd8;" horiz-adv-x="593" 
d="M227 127q12 -18 28 -28.5t41 -10.5q56 0 81.5 68.5t25.5 185.5q0 42 -3 75t-8 56h-2zM360 560q-12 17 -25.5 27t-38.5 10q-56 0 -81.5 -69t-25.5 -186v-39q0 -19 0.5 -36.5t1 -32t2.5 -23.5h2zM476 614q32 -40 50.5 -106t18.5 -166q0 -182 -66.5 -270.5t-182.5 -88.5
q-83 0 -133 38l-42 -78q-7 -13 -14 -13q-4 0 -7 1t-7 3l-31 16q-6 4 -10 6.5t-4 7.5q0 6 5 14l54 102q-29 43 -44.5 105.5t-15.5 156.5q0 182 66.5 271t182.5 89q38 0 67 -8.5t55 -22.5l32 60q3 5 5.5 9.5t7.5 4.5q4 0 7.5 -1.5t6.5 -3.5l32 -16q14 -7 14 -13q0 -4 -1.5 -8
t-3.5 -6z" />
    <glyph glyph-name="OE" unicode="&#x152;" horiz-adv-x="778" 
d="M379 570q-12 12 -31.5 19.5t-50.5 7.5q-56 0 -81.5 -69t-25.5 -186t25.5 -185.5t81.5 -68.5q34 0 53 10t29 16v456zM744 21q0 -14 -3.5 -17.5t-16.5 -3.5h-324q-6 -2 -14 -5t-20 -6q-12 -2 -28.5 -4t-40.5 -2q-116 0 -182.5 88.5t-66.5 270.5t66.5 271t182.5 89
q25 0 40.5 -2t26 -4.5t18 -5.5t18.5 -5h323q15 0 20 -2t5 -9q0 -4 -0.5 -6.5t-2.5 -7.5l-19 -67q-3 -11 -10 -13.5t-13 -2.5h-194v-165h170q14 0 17.5 -3.5t3.5 -17.5v-66q0 -14 -4 -17.5t-17 -3.5h-170v-196h214q14 0 17.5 -3.5t3.5 -17.5v-66z" />
    <glyph glyph-name="ordmasculine" unicode="&#xba;" horiz-adv-x="444" 
d="M222 408q16 0 25.5 8t15 21.5t7 32t1.5 39.5q0 43 -9 72t-40 29q-16 0 -25.5 -8t-15 -21.5t-7 -32t-1.5 -39.5t1.5 -39.5t7 -32t15 -21.5t25.5 -8zM371 509q0 -79 -38.5 -127.5t-110.5 -48.5t-110.5 48t-38.5 128q0 79 38.5 127.5t110.5 48.5t110.5 -48.5t38.5 -127.5z
" />
    <glyph glyph-name="ae" unicode="&#xe6;" horiz-adv-x="741" 
d="M292 224h-32t-46 -7t-41 -23.5t-18 -49.5q0 -29 18.5 -48.5t47.5 -19.5q27 0 44.5 14.5t26.5 23.5v110zM565 306q0 15 -1.5 34.5t-8.5 37t-21.5 29t-40.5 11.5q-28 0 -43.5 -13.5t-23.5 -32t-10.5 -37.5t-3.5 -29h153zM681 53q3 -5 3 -11q0 -10 -17 -20.5t-43 -19
t-57.5 -14t-61.5 -5.5q-19 0 -40 3t-42 10.5t-40 21t-35 33.5q-11 -9 -26.5 -20.5t-36 -22t-46 -18t-54.5 -7.5q-69 0 -109.5 41.5t-40.5 112.5q0 63 29 97.5t70 50.5t84.5 18.5t73.5 2.5v31q0 17 -2 30.5t-9 23.5t-20.5 15t-35.5 5q-21 0 -41 -4.5t-37 -10.5t-29 -10.5
t-17 -4.5q-4 0 -6.5 3.5t-3.5 6.5l-20 61q-3 6 -3 12q0 9 16.5 17t42.5 15t57 11t60 4q27 0 49 -8t37.5 -18.5t25 -21.5t12.5 -17q7 9 19 20t28.5 21t37.5 17t47 7q64 0 103 -25.5t60.5 -65.5t29 -88.5t7.5 -93.5q0 -14 -4.5 -19.5t-18.5 -5.5h-265q0 -21 4 -43t15.5 -40.5
t32 -30t54.5 -11.5q27 0 48 5t37 11.5t26.5 11.5t15.5 5q7 0 11 -8z" />
    <glyph glyph-name="dotlessi" unicode="&#x131;" horiz-adv-x="315" 
d="M234 14q0 -8 -2.5 -11t-11.5 -3h-99q-9 0 -11.5 3t-2.5 11v387h-77q-9 0 -11.5 3t-2.5 11v65q0 8 2.5 11t11.5 3h190q9 0 11.5 -3t2.5 -11v-466z" />
    <glyph glyph-name="oslash" unicode="&#xf8;" horiz-adv-x="500" 
d="M297 394q-9 8 -19 12.5t-28 4.5q-31 0 -50 -12.5t-29.5 -34.5t-14 -52t-3.5 -65q0 -15 1 -32t3 -32t3.5 -26.5t3.5 -17.5zM203 98q18 -15 47 -15q31 0 50.5 12.5t29.5 34.5t13.5 52t3.5 65q0 29 -3 57.5t-9 46.5zM401 448q32 -32 49 -82t17 -119q0 -60 -15 -109
t-43 -83.5t-68 -53t-91 -18.5q-30 0 -55.5 6.5t-44.5 16.5l-28 -49q-2 -4 -4.5 -7.5t-6.5 -3.5t-12 4l-25 14q-11 6 -11 12t4 12l31 56q-32 33 -48.5 82t-16.5 121q0 60 15 109t43 83.5t68 53t91 18.5q31 0 56.5 -5t43.5 -18l26 45q2 4 4.5 7.5t6.5 3.5t12 -4l25 -14
q12 -7 12 -12q0 -3 -1.5 -6t-3.5 -5z" />
    <glyph glyph-name="oe" unicode="&#x153;" horiz-adv-x="778" 
d="M720 53q3 -5 3 -11q0 -10 -17 -20.5t-43 -19t-57.5 -14t-61.5 -5.5q-52 0 -89.5 16.5t-57.5 48.5q-10 -13 -21 -25t-27 -21t-38 -14t-53 -5q-51 0 -91 18.5t-68 53t-43 83.5t-15 109t15 109t43 83.5t68 53t91 18.5q34 0 57.5 -6t40 -15t27 -20t18.5 -21q7 7 17.5 18
t27 20.5t39.5 16.5t54 7q64 0 103 -25.5t60.5 -65.5t29 -88.5t7.5 -93.5q0 -14 -4.5 -19.5t-18.5 -5.5h-263q0 -21 4 -43t15 -40.5t31.5 -30t53.5 -11.5q27 0 48 5t37 11.5t26.5 11.5t15.5 5q7 0 11 -8zM258 83q24 0 38.5 12.5t22.5 34.5t11 52t3 65t-3 65t-11.5 52
t-23 34.5t-37.5 12.5q-26 0 -42 -12.5t-25 -34.5t-12 -52t-3 -65t3 -65t12 -52t25 -34.5t42 -12.5zM604 306q0 15 -1.5 34.5t-8.5 37t-21.5 29t-40.5 11.5q-27 0 -42.5 -13.5t-23 -32t-10 -37.5t-3.5 -29h151z" />
    <glyph glyph-name="germandbls" unicode="&#xdf;" horiz-adv-x="593" 
d="M67 494q0 48 10 89.5t35.5 73t69 49.5t109.5 18q38 0 74 -8t63.5 -26t44 -45.5t16.5 -66.5q0 -38 -16 -63t-34.5 -44t-34.5 -34.5t-16 -34.5q0 -16 11.5 -29.5t29.5 -28t40 -31.5t43 -38q23 -23 38.5 -53t15.5 -75q0 -43 -13.5 -74t-37 -51t-55.5 -29.5t-69 -9.5
q-18 0 -41.5 2.5t-43.5 7.5t-34 12t-14 15q0 2 0.5 4l1.5 6l16 65q2 7 9 7q4 0 14 -4t23.5 -9t31 -9t37.5 -4q28 0 44 15t16 42q0 32 -23.5 55t-54.5 46q-18 13 -36 27.5t-32 31t-23 37t-9 46.5q0 36 15 59t33 43t33 38.5t15 44.5q0 31 -20.5 47t-58.5 16q-34 0 -53 -9.5
t-28.5 -26t-12 -38t-2.5 -45.5v-491q0 -8 -2.5 -11t-11.5 -3h-99q-9 0 -11.5 3t-2.5 11v480z" />
    <glyph glyph-name="divide" unicode="&#xf7;" 
d="M349 429q0 -31 -21 -51t-50 -20t-50 20.5t-21 50.5t20.5 50.5t50.5 20.5q29 0 50 -21t21 -50zM505 224q0 -11 -3 -14t-14 -3h-420q-11 0 -14 3t-3 14v66q0 11 3.5 14t13.5 3h420q11 0 14 -3t3 -14v-66zM349 85q0 -30 -21 -50.5t-50 -20.5t-50 20.5t-21 50.5t20.5 50.5
t50.5 20.5q29 0 50 -20.5t21 -50.5z" />
    <glyph glyph-name="registered" unicode="&#xae;" 
d="M288 489q16 0 27 7.5t11 24.5q0 33 -42 33h-50v-65h54zM376 349h-50l-39 100h-53v-100h-45v248h83q18 0 36 -2.5t32.5 -10.5t23.5 -24t9 -43q0 -17 -4.5 -27t-11 -17t-14 -10.5t-13.5 -6.5zM278 267q41 0 77.5 16t63.5 43t43 63.5t16 77.5t-16 77.5t-43 63.5t-63.5 43
t-77.5 16t-77.5 -16t-63.5 -43t-43 -63.5t-16 -77.5t16 -77.5t43 -63.5t63.5 -43t77.5 -16zM513 467q0 -49 -18.5 -91.5t-50.5 -74.5t-75 -50.5t-91 -18.5t-91 18.5t-75 50.5t-50.5 74.5t-18.5 91.5q0 48 18.5 91t50.5 75t75 50.5t91 18.5t91 -18.5t75 -50.5t50.5 -75
t18.5 -91z" />
    <glyph glyph-name="ccedilla" unicode="&#xe7;" horiz-adv-x="426" 
d="M277 -52q10 0 22 -3.5t23 -12t18.5 -22t7.5 -34.5q0 -39 -28.5 -63.5t-80.5 -24.5q-13 0 -26 1t-23.5 3t-17 5.5t-6.5 8.5q0 4 2 12l7 34l1.5 6t4.5 2t14.5 -3.5t27.5 -3.5q14 0 23 6.5t9 16.5q0 15 -15.5 19t-27.5 4q-11 0 -15 2.5t-4 8.5q0 5 0.5 10.5t1.5 10.5l5 59
q-29 3 -57 20.5t-51 48t-37 75t-14 103.5q0 63 15.5 114t45.5 86.5t73 54.5t99 19q20 0 45 -5t46.5 -13.5t36 -19.5t14.5 -23q0 -2 -1 -4.5t-2 -4.5l-37 -65l-3.5 -3.5t-3.5 -1.5q-4 0 -12 6t-20 13.5t-28 14t-35 6.5q-51 0 -74.5 -40t-23.5 -127q0 -83 22.5 -122t80.5 -39
q19 0 33 5.5t24 11.5t17.5 11.5t14.5 5.5q4 0 7 -5l26 -66q1 -2 2 -5t1 -5q0 -9 -13 -18.5t-32.5 -17t-41 -12.5t-38.5 -5z" />
    <glyph glyph-name="plusminus" unicode="&#xb1;" 
d="M328 93q0 -11 -3 -14t-14 -3h-66q-11 0 -14 3t-3 14v114h-160q-11 0 -14 3t-3 14v66q0 11 3.5 14t13.5 3h160v160q0 11 3 14t14 3h66q11 0 14 -3t3 -14v-160h160q11 0 14 -3t3 -14v-66q0 -11 -3 -14t-14 -3h-160v-114zM505 -43q0 -11 -3 -14t-14 -3h-420q-11 0 -14 3
t-3 14v66q0 11 3.5 14t13.5 3h420q11 0 14 -3t3 -14v-66z" />
    <glyph glyph-name="Ccedilla" unicode="&#xc7;" horiz-adv-x="500" 
d="M315 -56q12 -2 25.5 -5.5t24.5 -12t18 -22.5t7 -35q0 -39 -29.5 -64.5t-84.5 -25.5q-28 0 -51.5 4.5t-23.5 14.5q0 5 1 9l9 40l1.5 2t3.5 2q3 0 14 -3.5t30 -3.5q30 0 30 25q0 9 -5 13.5t-11.5 7t-13.5 3t-10 0.5q-13 0 -17.5 2t-4.5 9q0 2 0 1q0 -2 1 6l9 80
q-37 7 -71 31.5t-60.5 66.5t-42 103.5t-15.5 144.5q0 86 16 154t48.5 115t81 71.5t113.5 24.5q28 0 57 -9t53 -21t39 -24.5t15 -19.5q0 -3 -0.5 -6.5t-4.5 -8.5l-37 -56q-7 -10 -12 -10q-6 0 -15.5 7.5t-22.5 16t-29 16t-36 7.5q-32 0 -55.5 -12t-38.5 -39t-22.5 -71.5
t-7.5 -108.5t5 -114.5t18.5 -85.5t37.5 -53.5t63 -18.5q21 0 38.5 6t31 12.5t24 12.5t18.5 6q5 0 11 -10l31 -56q5 -10 5 -15q0 -6 -13 -17t-34.5 -21.5t-49.5 -18t-58 -7.5z" />
    <glyph glyph-name="copyright" unicode="&#xa9;" 
d="M384 376q-4 -4 -11.5 -10.5t-19 -13t-27.5 -11t-37 -4.5q-27 0 -51.5 10t-43 28t-30 42.5t-11.5 53.5t11.5 53.5t30.5 42.5t43.5 28t50.5 10q21 0 36.5 -4.5t27.5 -11t19.5 -13t11.5 -10.5l-26 -33q-9 8 -26 19.5t-43 11.5q-16 0 -32.5 -6t-30 -18t-22 -29.5t-8.5 -39.5
q0 -23 8.5 -40.5t22 -29t29 -17.5t30.5 -6q32 0 47.5 11t24.5 19zM78 467q0 -41 16 -77.5t43 -63.5t63.5 -43t77.5 -16t77.5 16t63.5 43t43 63.5t16 77.5t-16 77.5t-43 63.5t-63.5 43t-77.5 16t-77.5 -16t-63.5 -43t-43 -63.5t-16 -77.5zM278 232q-49 0 -91.5 18.5
t-74.5 50.5t-50.5 74.5t-18.5 91.5q0 48 18.5 91t50.5 75t74.5 50.5t91.5 18.5q48 0 91 -18.5t75 -50.5t50.5 -75t18.5 -91q0 -49 -18.5 -91.5t-50.5 -74.5t-75 -50.5t-91 -18.5z" />
    <glyph glyph-name="logicalnot" unicode="&#xac;" 
d="M505 144q0 -11 -3 -14t-14 -3h-66q-11 0 -14 3t-3 14v142h-338q-11 0 -14 3t-3 14v66q0 11 3.5 14t13.5 3h421q11 0 14 -3t3 -14v-225z" />
    <glyph glyph-name="trademark" unicode="&#x2122;" horiz-adv-x="704" 
d="M577 395h-43v262h-2l-68 -262h-53l-68 262h-2v-262h-43v290h78l60 -228h2l59 228h80v-290zM191 395h-43v248h-73v42h190v-42h-74v-248z" />
    <glyph glyph-name="degree" unicode="&#xb0;" 
d="M277 469q32 0 54 22t22 53q0 32 -22 54t-54 22q-31 0 -53 -22t-22 -54t21.5 -53.5t53.5 -21.5zM435 544q0 -33 -12.5 -61.5t-34 -49.5t-50 -33.5t-61.5 -12.5q-32 0 -60.5 12.5t-50 33.5t-34 49.5t-12.5 61.5t12.5 62t34 50.5t50 33.5t60.5 12q33 0 61.5 -12t50 -33.5
t34 -50.5t12.5 -62z" />
    <glyph glyph-name="mu" unicode="&#xb5;" horiz-adv-x="537" 
d="M194 -174q0 -11 -5 -13.5t-14 -4.5l-84 -17q-2 -1 -8 -2t-8 -1q-5 0 -6.5 4t-1.5 17v664q0 11 5 13.5t14 4.5l84 17q2 0 8 1.5t8 1.5q5 0 6.5 -4t1.5 -17v-318q0 -14 1.5 -29t7.5 -27t17 -20t30 -8q32 0 55 12t33 19v354q0 11 5 13.5t14 4.5l84 17q2 0 8 1.5t8 1.5
q5 0 6.5 -4t1.5 -17v-312q0 -53 3 -80.5t6.5 -41.5t6.5 -19.5t3 -14.5q0 -8 -11 -11l-76 -25q-9 -3 -15 -3q-10 0 -17 14.5t-15 44.5q-9 -8 -21.5 -18t-28 -19t-32 -15.5t-32.5 -6.5q-14 0 -24 3t-18 7v-167z" />
    <glyph glyph-name="mu" unicode="&#x3bc;" horiz-adv-x="537" 
d="M194 -174q0 -11 -5 -13.5t-14 -4.5l-84 -17q-2 -1 -8 -2t-8 -1q-5 0 -6.5 4t-1.5 17v664q0 11 5 13.5t14 4.5l84 17q2 0 8 1.5t8 1.5q5 0 6.5 -4t1.5 -17v-318q0 -14 1.5 -29t7.5 -27t17 -20t30 -8q32 0 55 12t33 19v354q0 11 5 13.5t14 4.5l84 17q2 0 8 1.5t8 1.5
q5 0 6.5 -4t1.5 -17v-312q0 -53 3 -80.5t6.5 -41.5t6.5 -19.5t3 -14.5q0 -8 -11 -11l-76 -25q-9 -3 -15 -3q-10 0 -17 14.5t-15 44.5q-9 -8 -21.5 -18t-28 -19t-32 -15.5t-32.5 -6.5q-14 0 -24 3t-18 7v-167z" />
    <glyph glyph-name="dollar" unicode="$" 
d="M254 573q-8 -2 -19.5 -6t-22 -12.5t-18.5 -23t-8 -36.5q0 -20 7.5 -34.5t18 -24.5t22.5 -16l20 -10v163zM302 97q11 3 23 8.5t21.5 15t16 23.5t6.5 35q0 22 -7 37t-17.5 25.5t-22 17t-20.5 11.5v-173zM309 -56q0 -13 -3.5 -16.5t-17.5 -3.5h-20q-14 0 -17.5 3.5
t-3.5 16.5v45q-13 0 -41.5 4t-58 11t-52 17t-22.5 21v3t2 6l29 84q1 2 3.5 5t5.5 3q2 0 15 -6t31.5 -14t41.5 -15.5t46 -10.5v196q-23 10 -53.5 23t-57.5 34.5t-46 54t-19 82.5q0 55 21 91.5t49.5 58.5t58.5 31t47 10v49q0 13 3.5 16.5t17.5 3.5h20q14 0 17.5 -3.5
t3.5 -16.5v-49q11 -1 37 -5.5t52.5 -12t47 -17.5t20.5 -23q0 -5 -3 -11l-31 -68q-3 -8 -9 -8q-2 0 -14 6t-29 13.5t-36 14t-35 6.5v-185q24 -12 54.5 -27t57.5 -38.5t45 -56.5t18 -81q0 -52 -18 -87.5t-44.5 -58.5t-57 -34.5t-55.5 -15.5v-45z" />
    <glyph glyph-name="Aacute" unicode="&#xc1;" horiz-adv-x="593" 
d="M252 759q-4 -2 -7 -3t-7 -1q-5 0 -7.5 4t-5.5 10l-16 32q-2 3 -3.5 6.5t-1.5 7.5q0 5 3.5 7.5t9.5 6.5l163 96q3 2 6.5 4t7.5 2q5 0 8 -4.5t6 -9.5l31 -61q2 -3 3.5 -6.5t1.5 -7.5q0 -5 -5 -8t-11 -5zM164 21q-3 -14 -6.5 -17.5t-14.5 -3.5h-101q-19 0 -20 9q0 4 1.5 9
t2.5 8l197 644q3 10 6 12.5t16 2.5h104q11 0 14.5 -3.5t6.5 -12.5l196 -645q1 -3 2.5 -8t1.5 -8q0 -5 -6 -6.5t-14 -1.5h-112q-8 0 -10.5 3.5t-6.5 17.5l-44 162h-172zM311 445l-6.5 32.5t-6 36.5t-5 37t-4.5 34h-2q-3 -32 -9 -71t-14 -69l-44 -172h132z" />
    <glyph glyph-name="Acircumflex" unicode="&#xc2;" horiz-adv-x="593" 
d="M411 768q-5 -9 -8 -11t-6 -2q-4 0 -7 2t-7 4l-86 49l-86 -49q-4 -2 -7 -4t-7 -2q-3 0 -6 2t-8 11l-19 32q-2 2 -4 6t-2 8q0 5 4 8l8 6l113 89q3 2 6.5 5t7.5 3t7.5 -3t6.5 -5l113 -89l8 -6t4 -8q0 -4 -2 -8t-4 -6zM164 21q-3 -14 -6.5 -17.5t-14.5 -3.5h-101q-19 0 -20 9
q0 4 1.5 9t2.5 8l197 644q3 10 6 12.5t16 2.5h104q11 0 14.5 -3.5t6.5 -12.5l196 -645q1 -3 2.5 -8t1.5 -8q0 -5 -6 -6.5t-14 -1.5h-112q-8 0 -10.5 3.5t-6.5 17.5l-44 162h-172zM311 445l-6.5 32.5t-6 36.5t-5 37t-4.5 34h-2q-3 -32 -9 -71t-14 -69l-44 -172h132z" />
    <glyph glyph-name="Adieresis" unicode="&#xc4;" horiz-adv-x="593" 
d="M455 843q0 -29 -20 -49t-49 -20t-49 20t-20 49t20 49t49 20t49 -20.5t20 -48.5zM278 843q0 -29 -20 -49t-49 -20t-49 20t-20 49t20 49t49 20t49 -20t20 -49zM164 21q-3 -14 -6.5 -17.5t-14.5 -3.5h-101q-19 0 -20 9q0 4 1.5 9t2.5 8l197 644q3 10 6 12.5t16 2.5h104
q11 0 14.5 -3.5t6.5 -12.5l196 -645q1 -3 2.5 -8t1.5 -8q0 -5 -6 -6.5t-14 -1.5h-112q-8 0 -10.5 3.5t-6.5 17.5l-44 162h-172zM311 445l-6.5 32.5t-6 36.5t-5 37t-4.5 34h-2q-3 -32 -9 -71t-14 -69l-44 -172h132z" />
    <glyph glyph-name="Agrave" unicode="&#xc0;" horiz-adv-x="593" 
d="M368 769q-3 -6 -5.5 -10t-7.5 -4q-4 0 -7 1t-7 3l-176 70q-6 2 -11 5t-5 8q0 4 1.5 7.5t3.5 6.5l31 61q3 5 6 9.5t8 4.5q4 0 7.5 -2t6.5 -4l163 -96q6 -4 9.5 -6.5t3.5 -7.5q0 -4 -1.5 -7.5t-3.5 -6.5zM164 21q-3 -14 -6.5 -17.5t-14.5 -3.5h-101q-19 0 -20 9q0 4 1.5 9
t2.5 8l197 644q3 10 6 12.5t16 2.5h104q11 0 14.5 -3.5t6.5 -12.5l196 -645q1 -3 2.5 -8t1.5 -8q0 -5 -6 -6.5t-14 -1.5h-112q-8 0 -10.5 3.5t-6.5 17.5l-44 162h-172zM311 445l-6.5 32.5t-6 36.5t-5 37t-4.5 34h-2q-3 -32 -9 -71t-14 -69l-44 -172h132z" />
    <glyph glyph-name="Aring" unicode="&#xc5;" horiz-adv-x="593" 
d="M297 817q18 0 30.5 12t12.5 30t-12.5 30.5t-30.5 12.5q-17 0 -29.5 -12t-12.5 -31q0 -18 12.5 -30t29.5 -12zM402 859q0 -22 -8.5 -41t-22.5 -33t-33.5 -22t-40.5 -8t-40 8t-33.5 22t-22.5 33t-8 41t8 41t22.5 33.5t33.5 22.5t40 8t40.5 -8t33.5 -22.5t22.5 -33.5
t8.5 -41zM164 21q-3 -14 -6.5 -17.5t-14.5 -3.5h-101q-19 0 -20 9q0 4 1.5 9t2.5 8l197 644q3 10 6 12.5t16 2.5h104q11 0 14.5 -3.5t6.5 -12.5l196 -645q1 -3 2.5 -8t1.5 -8q0 -5 -6 -6.5t-14 -1.5h-112q-8 0 -10.5 3.5t-6.5 17.5l-44 162h-172zM311 445l-6.5 32.5t-6 36.5
t-5 37t-4.5 34h-2q-3 -32 -9 -71t-14 -69l-44 -172h132z" />
    <glyph glyph-name="Atilde" unicode="&#xc3;" horiz-adv-x="593" 
d="M444 882q2 -2 4.5 -4t2.5 -5q0 -2 -6.5 -17t-19 -32t-32.5 -31t-47 -14q-18 0 -31.5 5.5t-24 12t-20.5 12t-20 5.5q-11 0 -18 -5.5t-12 -12.5t-8 -12.5t-7 -5.5q-5 0 -9 3l-47 24q-7 3 -7 8q0 1 5.5 16t18 32t32 31.5t47.5 14.5q19 0 33.5 -5.5t26.5 -12t22 -12t20 -5.5
t16.5 5.5t11 12.5t7.5 12.5t8 5.5q3 0 7 -2zM164 21q-3 -14 -6.5 -17.5t-14.5 -3.5h-101q-19 0 -20 9q0 4 1.5 9t2.5 8l197 644q3 10 6 12.5t16 2.5h104q11 0 14.5 -3.5t6.5 -12.5l196 -645q1 -3 2.5 -8t1.5 -8q0 -5 -6 -6.5t-14 -1.5h-112q-8 0 -10.5 3.5t-6.5 17.5
l-44 162h-172zM311 445l-6.5 32.5t-6 36.5t-5 37t-4.5 34h-2q-3 -32 -9 -71t-14 -69l-44 -172h132z" />
    <glyph glyph-name="Eacute" unicode="&#xc9;" horiz-adv-x="481" 
d="M206 759q-4 -2 -7 -3t-7 -1q-5 0 -7.5 4t-5.5 10l-16 32q-2 3 -3.5 6.5t-1.5 7.5q0 5 3.5 7.5t9.5 6.5l163 96q3 2 6.5 4t7.5 2q5 0 8 -4.5t6 -9.5l31 -61q2 -3 3.5 -6.5t1.5 -7.5q0 -5 -5 -8t-11 -5zM446 21q0 -14 -3.5 -17.5t-16.5 -3.5h-329q-13 0 -17 3.5t-4 17.5
v643q0 14 4 17.5t17 3.5h328q15 0 20 -2t5 -9q0 -4 -0.5 -6.5t-2.5 -7.5l-19 -67q-3 -11 -10 -13.5t-13 -2.5h-194v-165h170q14 0 17.5 -3.5t3.5 -17.5v-66q0 -14 -4 -17.5t-17 -3.5h-170v-196h214q14 0 17.5 -3.5t3.5 -17.5v-66z" />
    <glyph glyph-name="Ecircumflex" unicode="&#xca;" horiz-adv-x="481" 
d="M365 768q-5 -9 -8 -11t-6 -2q-4 0 -7 2t-7 4l-86 49l-86 -49q-4 -2 -7 -4t-7 -2q-3 0 -6 2t-8 11l-19 32q-2 2 -4 6t-2 8q0 5 4 8l8 6l113 89q3 2 6.5 5t7.5 3t7.5 -3t6.5 -5l113 -89l8 -6t4 -8q0 -4 -2 -8t-4 -6zM446 21q0 -14 -3.5 -17.5t-16.5 -3.5h-329
q-13 0 -17 3.5t-4 17.5v643q0 14 4 17.5t17 3.5h328q15 0 20 -2t5 -9q0 -4 -0.5 -6.5t-2.5 -7.5l-19 -67q-3 -11 -10 -13.5t-13 -2.5h-194v-165h170q14 0 17.5 -3.5t3.5 -17.5v-66q0 -14 -4 -17.5t-17 -3.5h-170v-196h214q14 0 17.5 -3.5t3.5 -17.5v-66z" />
    <glyph glyph-name="Edieresis" unicode="&#xcb;" horiz-adv-x="481" 
d="M409 843q0 -29 -20 -49t-49 -20t-49 20t-20 49t20 49t49 20t49 -20.5t20 -48.5zM232 843q0 -29 -20 -49t-49 -20t-49 20t-20 49t20 49t49 20t49 -20t20 -49zM446 21q0 -14 -3.5 -17.5t-16.5 -3.5h-329q-13 0 -17 3.5t-4 17.5v643q0 14 4 17.5t17 3.5h328q15 0 20 -2t5 -9
q0 -4 -0.5 -6.5t-2.5 -7.5l-19 -67q-3 -11 -10 -13.5t-13 -2.5h-194v-165h170q14 0 17.5 -3.5t3.5 -17.5v-66q0 -14 -4 -17.5t-17 -3.5h-170v-196h214q14 0 17.5 -3.5t3.5 -17.5v-66z" />
    <glyph glyph-name="Egrave" unicode="&#xc8;" horiz-adv-x="481" 
d="M322 769q-3 -6 -5.5 -10t-7.5 -4q-4 0 -7 1t-7 3l-176 70q-6 2 -11 5t-5 8q0 4 1.5 7.5t3.5 6.5l31 61q3 5 6 9.5t8 4.5q4 0 7.5 -2t6.5 -4l163 -96q6 -4 9.5 -6.5t3.5 -7.5q0 -4 -1.5 -7.5t-3.5 -6.5zM446 21q0 -14 -3.5 -17.5t-16.5 -3.5h-329q-13 0 -17 3.5t-4 17.5
v643q0 14 4 17.5t17 3.5h328q15 0 20 -2t5 -9q0 -4 -0.5 -6.5t-2.5 -7.5l-19 -67q-3 -11 -10 -13.5t-13 -2.5h-194v-165h170q14 0 17.5 -3.5t3.5 -17.5v-66q0 -14 -4 -17.5t-17 -3.5h-170v-196h214q14 0 17.5 -3.5t3.5 -17.5v-66z" />
    <glyph glyph-name="Iacute" unicode="&#xcd;" horiz-adv-x="370" 
d="M141 759q-4 -2 -7 -3t-7 -1q-5 0 -7.5 4t-5.5 10l-16 32q-2 3 -3.5 6.5t-1.5 7.5q0 5 3.5 7.5t9.5 6.5l163 96q3 2 6.5 4t7.5 2q5 0 8 -4.5t6 -9.5l31 -61q2 -3 3.5 -6.5t1.5 -7.5q0 -5 -5 -8t-11 -5zM328 21q0 -14 -4 -17.5t-17 -3.5h-245q-13 0 -17 3.5t-4 17.5v54
q0 14 4 17.5t17 3.5h55v493h-55q-13 0 -17 3.5t-4 17.5v54q0 14 4 17.5t17 3.5h245q13 0 17 -3.5t4 -17.5v-54q0 -14 -4 -17.5t-17 -3.5h-55v-493h55q13 0 17 -3.5t4 -17.5v-54z" />
    <glyph glyph-name="Icircumflex" unicode="&#xce;" horiz-adv-x="370" 
d="M300 768q-5 -9 -8 -11t-6 -2q-4 0 -7 2t-7 4l-86 49l-86 -49q-4 -2 -7 -4t-7 -2q-3 0 -6 2t-8 11l-19 32q-2 2 -4 6t-2 8q0 5 4 8l8 6l113 89q3 2 6.5 5t7.5 3t7.5 -3t6.5 -5l113 -89l8 -6t4 -8q0 -4 -2 -8t-4 -6zM328 21q0 -14 -4 -17.5t-17 -3.5h-245q-13 0 -17 3.5
t-4 17.5v54q0 14 4 17.5t17 3.5h55v493h-55q-13 0 -17 3.5t-4 17.5v54q0 14 4 17.5t17 3.5h245q13 0 17 -3.5t4 -17.5v-54q0 -14 -4 -17.5t-17 -3.5h-55v-493h55q13 0 17 -3.5t4 -17.5v-54z" />
    <glyph glyph-name="Idieresis" unicode="&#xcf;" horiz-adv-x="370" 
d="M344 843q0 -29 -20 -49t-49 -20t-49 20t-20 49t20 49t49 20t49 -20.5t20 -48.5zM167 843q0 -29 -20 -49t-49 -20t-49 20t-20 49t20 49t49 20t49 -20t20 -49zM328 21q0 -14 -4 -17.5t-17 -3.5h-245q-13 0 -17 3.5t-4 17.5v54q0 14 4 17.5t17 3.5h55v493h-55q-13 0 -17 3.5
t-4 17.5v54q0 14 4 17.5t17 3.5h245q13 0 17 -3.5t4 -17.5v-54q0 -14 -4 -17.5t-17 -3.5h-55v-493h55q13 0 17 -3.5t4 -17.5v-54z" />
    <glyph glyph-name="Igrave" unicode="&#xcc;" horiz-adv-x="370" 
d="M257 769q-3 -6 -5.5 -10t-7.5 -4q-4 0 -7 1t-7 3l-176 70q-6 2 -11 5t-5 8q0 4 1.5 7.5t3.5 6.5l31 61q3 5 6 9.5t8 4.5q4 0 7.5 -2t6.5 -4l163 -96q6 -4 9.5 -6.5t3.5 -7.5q0 -4 -1.5 -7.5t-3.5 -6.5zM328 21q0 -14 -4 -17.5t-17 -3.5h-245q-13 0 -17 3.5t-4 17.5v54
q0 14 4 17.5t17 3.5h55v493h-55q-13 0 -17 3.5t-4 17.5v54q0 14 4 17.5t17 3.5h245q13 0 17 -3.5t4 -17.5v-54q0 -14 -4 -17.5t-17 -3.5h-55v-493h55q13 0 17 -3.5t4 -17.5v-54z" />
    <glyph glyph-name="Ntilde" unicode="&#xd1;" horiz-adv-x="630" 
d="M463 882q2 -2 4.5 -4t2.5 -5q0 -2 -6.5 -17t-19 -32t-32.5 -31t-47 -14q-18 0 -31.5 5.5t-24 12t-20.5 12t-20 5.5q-11 0 -18 -5.5t-12 -12.5t-8 -12.5t-7 -5.5q-5 0 -9 3l-47 24q-7 3 -7 8q0 1 5.5 16t18 32t32 31.5t47.5 14.5q19 0 33.5 -5.5t26.5 -12t22 -12t20 -5.5
t16.5 5.5t11 12.5t7.5 12.5t8 5.5q3 0 7 -2zM547 21q0 -14 -3.5 -17.5t-17.5 -3.5h-66q-11 0 -14.5 2.5t-8.5 11.5l-183 341q-23 42 -36 72t-21 64h-2q0 -10 1.5 -42.5t1.5 -67.5v-360q0 -14 -4 -17.5t-17 -3.5h-73q-13 0 -17 3.5t-4 17.5v643q0 14 4 17.5t17 3.5h82
q11 0 14.5 -2.5t8.5 -10.5l165 -310q21 -40 35.5 -77t23.5 -68h2q0 12 -0.5 30t-1 36.5t-1 35.5t-0.5 28v317q0 14 4 17.5t17 3.5h73q13 0 17 -3.5t4 -17.5v-643z" />
    <glyph glyph-name="Oacute" unicode="&#xd3;" horiz-adv-x="593" 
d="M252 759q-4 -2 -7 -3t-7 -1q-5 0 -7.5 4t-5.5 10l-16 32q-2 3 -3.5 6.5t-1.5 7.5q0 5 3.5 7.5t9.5 6.5l163 96q3 2 6.5 4t7.5 2q5 0 8 -4.5t6 -9.5l31 -61q2 -3 3.5 -6.5t1.5 -7.5q0 -5 -5 -8t-11 -5zM296 88q56 0 81.5 68.5t25.5 185.5q0 118 -25.5 186.5t-81.5 68.5
t-81.5 -69t-25.5 -186t25.5 -185.5t81.5 -68.5zM545 342q0 -182 -66.5 -270.5t-182.5 -88.5t-182.5 88.5t-66.5 270.5t66.5 271t182.5 89q58 0 104 -22t78 -67t49.5 -112.5t17.5 -158.5z" />
    <glyph glyph-name="Ocircumflex" unicode="&#xd4;" horiz-adv-x="593" 
d="M411 768q-5 -9 -8 -11t-6 -2q-4 0 -7 2t-7 4l-86 49l-86 -49q-4 -2 -7 -4t-7 -2q-3 0 -6 2t-8 11l-19 32q-2 2 -4 6t-2 8q0 5 4 8l8 6l113 89q3 2 6.5 5t7.5 3t7.5 -3t6.5 -5l113 -89l8 -6t4 -8q0 -4 -2 -8t-4 -6zM296 88q56 0 81.5 68.5t25.5 185.5q0 118 -25.5 186.5
t-81.5 68.5t-81.5 -69t-25.5 -186t25.5 -185.5t81.5 -68.5zM545 342q0 -182 -66.5 -270.5t-182.5 -88.5t-182.5 88.5t-66.5 270.5t66.5 271t182.5 89q58 0 104 -22t78 -67t49.5 -112.5t17.5 -158.5z" />
    <glyph glyph-name="Odieresis" unicode="&#xd6;" horiz-adv-x="593" 
d="M455 843q0 -29 -20 -49t-49 -20t-49 20t-20 49t20 49t49 20t49 -20.5t20 -48.5zM278 843q0 -29 -20 -49t-49 -20t-49 20t-20 49t20 49t49 20t49 -20t20 -49zM296 88q56 0 81.5 68.5t25.5 185.5q0 118 -25.5 186.5t-81.5 68.5t-81.5 -69t-25.5 -186t25.5 -185.5
t81.5 -68.5zM545 342q0 -182 -66.5 -270.5t-182.5 -88.5t-182.5 88.5t-66.5 270.5t66.5 271t182.5 89q58 0 104 -22t78 -67t49.5 -112.5t17.5 -158.5z" />
    <glyph glyph-name="Ograve" unicode="&#xd2;" horiz-adv-x="593" 
d="M368 769q-3 -6 -5.5 -10t-7.5 -4q-4 0 -7 1t-7 3l-176 70q-6 2 -11 5t-5 8q0 4 1.5 7.5t3.5 6.5l31 61q3 5 6 9.5t8 4.5q4 0 7.5 -2t6.5 -4l163 -96q6 -4 9.5 -6.5t3.5 -7.5q0 -4 -1.5 -7.5t-3.5 -6.5zM296 88q56 0 81.5 68.5t25.5 185.5q0 118 -25.5 186.5t-81.5 68.5
t-81.5 -69t-25.5 -186t25.5 -185.5t81.5 -68.5zM545 342q0 -182 -66.5 -270.5t-182.5 -88.5t-182.5 88.5t-66.5 270.5t66.5 271t182.5 89q58 0 104 -22t78 -67t49.5 -112.5t17.5 -158.5z" />
    <glyph glyph-name="Otilde" unicode="&#xd5;" horiz-adv-x="593" 
d="M444 882q2 -2 4.5 -4t2.5 -5q0 -2 -6.5 -17t-19 -32t-32.5 -31t-47 -14q-18 0 -31.5 5.5t-24 12t-20.5 12t-20 5.5q-11 0 -18 -5.5t-12 -12.5t-8 -12.5t-7 -5.5q-5 0 -9 3l-47 24q-7 3 -7 8q0 1 5.5 16t18 32t32 31.5t47.5 14.5q19 0 33.5 -5.5t26.5 -12t22 -12t20 -5.5
t16.5 5.5t11 12.5t7.5 12.5t8 5.5q3 0 7 -2zM296 88q56 0 81.5 68.5t25.5 185.5q0 118 -25.5 186.5t-81.5 68.5t-81.5 -69t-25.5 -186t25.5 -185.5t81.5 -68.5zM545 342q0 -182 -66.5 -270.5t-182.5 -88.5t-182.5 88.5t-66.5 270.5t66.5 271t182.5 89q58 0 104 -22t78 -67
t49.5 -112.5t17.5 -158.5z" />
    <glyph glyph-name="Uacute" unicode="&#xda;" horiz-adv-x="630" 
d="M271 759q-4 -2 -7 -3t-7 -1q-5 0 -7.5 4t-5.5 10l-16 32q-2 3 -3.5 6.5t-1.5 7.5q0 5 3.5 7.5t9.5 6.5l163 96q3 2 6.5 4t7.5 2q5 0 8 -4.5t6 -9.5l31 -61q2 -3 3.5 -6.5t1.5 -7.5q0 -5 -5 -8t-11 -5zM556 232q0 -56 -11 -102t-38.5 -78.5t-74 -50.5t-117.5 -18
t-117.5 18t-74 50.5t-38.5 78.5t-11 102v432q0 14 4 17.5t17 3.5h93q13 0 17 -3.5t4 -17.5v-432q0 -27 2.5 -52.5t13 -45t31.5 -31.5t59 -12t59 12t31.5 31.5t13 45t2.5 52.5v432q0 14 4 17.5t17 3.5h93q13 0 17 -3.5t4 -17.5v-432z" />
    <glyph glyph-name="Ucircumflex" unicode="&#xdb;" horiz-adv-x="630" 
d="M430 768q-5 -9 -8 -11t-6 -2q-4 0 -7 2t-7 4l-86 49l-86 -49q-4 -2 -7 -4t-7 -2q-3 0 -6 2t-8 11l-19 32q-2 2 -4 6t-2 8q0 5 4 8l8 6l113 89q3 2 6.5 5t7.5 3t7.5 -3t6.5 -5l113 -89l8 -6t4 -8q0 -4 -2 -8t-4 -6zM556 232q0 -56 -11 -102t-38.5 -78.5t-74 -50.5
t-117.5 -18t-117.5 18t-74 50.5t-38.5 78.5t-11 102v432q0 14 4 17.5t17 3.5h93q13 0 17 -3.5t4 -17.5v-432q0 -27 2.5 -52.5t13 -45t31.5 -31.5t59 -12t59 12t31.5 31.5t13 45t2.5 52.5v432q0 14 4 17.5t17 3.5h93q13 0 17 -3.5t4 -17.5v-432z" />
    <glyph glyph-name="Udieresis" unicode="&#xdc;" horiz-adv-x="630" 
d="M474 843q0 -29 -20 -49t-49 -20t-49 20t-20 49t20 49t49 20t49 -20.5t20 -48.5zM297 843q0 -29 -20 -49t-49 -20t-49 20t-20 49t20 49t49 20t49 -20t20 -49zM556 232q0 -56 -11 -102t-38.5 -78.5t-74 -50.5t-117.5 -18t-117.5 18t-74 50.5t-38.5 78.5t-11 102v432
q0 14 4 17.5t17 3.5h93q13 0 17 -3.5t4 -17.5v-432q0 -27 2.5 -52.5t13 -45t31.5 -31.5t59 -12t59 12t31.5 31.5t13 45t2.5 52.5v432q0 14 4 17.5t17 3.5h93q13 0 17 -3.5t4 -17.5v-432z" />
    <glyph glyph-name="Ugrave" unicode="&#xd9;" horiz-adv-x="630" 
d="M387 769q-3 -6 -5.5 -10t-7.5 -4q-4 0 -7 1t-7 3l-176 70q-6 2 -11 5t-5 8q0 4 1.5 7.5t3.5 6.5l31 61q3 5 6 9.5t8 4.5q4 0 7.5 -2t6.5 -4l163 -96q6 -4 9.5 -6.5t3.5 -7.5q0 -4 -1.5 -7.5t-3.5 -6.5zM556 232q0 -56 -11 -102t-38.5 -78.5t-74 -50.5t-117.5 -18
t-117.5 18t-74 50.5t-38.5 78.5t-11 102v432q0 14 4 17.5t17 3.5h93q13 0 17 -3.5t4 -17.5v-432q0 -27 2.5 -52.5t13 -45t31.5 -31.5t59 -12t59 12t31.5 31.5t13 45t2.5 52.5v432q0 14 4 17.5t17 3.5h93q13 0 17 -3.5t4 -17.5v-432z" />
    <glyph glyph-name="Ydieresis" unicode="&#x178;" horiz-adv-x="519" 
d="M418 843q0 -29 -20 -49t-49 -20t-49 20t-20 49t20 49t49 20t49 -20.5t20 -48.5zM241 843q0 -29 -20 -49t-49 -20t-49 20t-20 49t20 49t49 20t49 -20t20 -49zM328 21q0 -14 -4 -17.5t-17 -3.5h-93q-13 0 -17 3.5t-4 17.5v260l-188 364q-7 12 -7 21q0 8 21 11l100 16
q5 1 7 1h4q3 0 7 -2.5t8 -10.5l81 -171q8 -18 18.5 -44t21.5 -65h2q13 44 23.5 70.5t20.5 46.5l74 156q7 15 10 17.5t7 2.5q5 0 15 -2l85 -18q7 -2 12.5 -5t5.5 -8q0 -3 -2 -6.5t-5 -9.5l-186 -364v-260z" />
    <glyph glyph-name="aacute" unicode="&#xe1;" horiz-adv-x="481" 
d="M196 568q-4 -2 -7 -3t-7 -1q-5 0 -7.5 4t-5.5 10l-16 32q-2 3 -3.5 6.5t-1.5 7.5q0 5 3.5 7.5t9.5 6.5l163 96q3 2 6.5 4t7.5 2q5 0 8 -4.5t6 -9.5l31 -61q2 -3 3.5 -6.5t1.5 -7.5q0 -5 -5 -8t-11 -5zM296 224h-33q-23 0 -47 -7t-42.5 -23.5t-18.5 -49.5
q0 -29 18.5 -48.5t47.5 -19.5q28 0 47 14.5t28 23.5v110zM357 -13q-3 -1 -6.5 -2.5t-6.5 -1.5t-7.5 6t-8.5 15t-7.5 19.5t-5.5 19.5q-8 -8 -18.5 -18t-26 -19.5t-36.5 -16t-49 -6.5q-69 0 -109.5 41.5t-40.5 112.5q0 42 14 71t36.5 48t50.5 29t57 14.5t56 5.5t47 1v31
q0 17 -2 30.5t-9.5 23.5t-21.5 15t-38 5q-21 0 -41 -4.5t-37 -10.5t-29 -10.5t-17 -4.5q-4 0 -6.5 3.5t-3.5 6.5l-20 61q-3 6 -3 12q0 9 16.5 17t42.5 15t57 11t60 4q94 0 133 -41.5t39 -119.5v-193q0 -36 4 -58t9 -35.5t9 -21.5t4 -15q0 -5 -9 -9z" />
    <glyph glyph-name="acircumflex" unicode="&#xe2;" horiz-adv-x="481" 
d="M355 577q-5 -9 -8 -11t-6 -2q-4 0 -7 2t-7 4l-86 49l-86 -49q-4 -2 -7 -4t-7 -2q-3 0 -6 2t-8 11l-19 32q-2 2 -4 6t-2 8q0 5 4 8l8 6l113 89q3 2 6.5 5t7.5 3t7.5 -3t6.5 -5l113 -89l8 -6t4 -8q0 -4 -2 -8t-4 -6zM296 224h-33q-23 0 -47 -7t-42.5 -23.5t-18.5 -49.5
q0 -29 18.5 -48.5t47.5 -19.5q28 0 47 14.5t28 23.5v110zM357 -13q-3 -1 -6.5 -2.5t-6.5 -1.5t-7.5 6t-8.5 15t-7.5 19.5t-5.5 19.5q-8 -8 -18.5 -18t-26 -19.5t-36.5 -16t-49 -6.5q-69 0 -109.5 41.5t-40.5 112.5q0 42 14 71t36.5 48t50.5 29t57 14.5t56 5.5t47 1v31
q0 17 -2 30.5t-9.5 23.5t-21.5 15t-38 5q-21 0 -41 -4.5t-37 -10.5t-29 -10.5t-17 -4.5q-4 0 -6.5 3.5t-3.5 6.5l-20 61q-3 6 -3 12q0 9 16.5 17t42.5 15t57 11t60 4q94 0 133 -41.5t39 -119.5v-193q0 -36 4 -58t9 -35.5t9 -21.5t4 -15q0 -5 -9 -9z" />
    <glyph glyph-name="adieresis" unicode="&#xe4;" horiz-adv-x="481" 
d="M399 652q0 -29 -20 -49t-49 -20t-49 20t-20 49t20 49t49 20t49 -20.5t20 -48.5zM222 652q0 -29 -20 -49t-49 -20t-49 20t-20 49t20 49t49 20t49 -20t20 -49zM296 224h-33q-23 0 -47 -7t-42.5 -23.5t-18.5 -49.5q0 -29 18.5 -48.5t47.5 -19.5q28 0 47 14.5t28 23.5v110z
M357 -13q-3 -1 -6.5 -2.5t-6.5 -1.5t-7.5 6t-8.5 15t-7.5 19.5t-5.5 19.5q-8 -8 -18.5 -18t-26 -19.5t-36.5 -16t-49 -6.5q-69 0 -109.5 41.5t-40.5 112.5q0 42 14 71t36.5 48t50.5 29t57 14.5t56 5.5t47 1v31q0 17 -2 30.5t-9.5 23.5t-21.5 15t-38 5q-21 0 -41 -4.5
t-37 -10.5t-29 -10.5t-17 -4.5q-4 0 -6.5 3.5t-3.5 6.5l-20 61q-3 6 -3 12q0 9 16.5 17t42.5 15t57 11t60 4q94 0 133 -41.5t39 -119.5v-193q0 -36 4 -58t9 -35.5t9 -21.5t4 -15q0 -5 -9 -9z" />
    <glyph glyph-name="agrave" unicode="&#xe0;" horiz-adv-x="481" 
d="M312 578q-3 -6 -5.5 -10t-7.5 -4q-4 0 -7 1t-7 3l-176 70q-6 2 -11 5t-5 8q0 4 1.5 7.5t3.5 6.5l31 61q3 5 6 9.5t8 4.5q4 0 7.5 -2t6.5 -4l163 -96q6 -4 9.5 -6.5t3.5 -7.5q0 -4 -1.5 -7.5t-3.5 -6.5zM296 224h-33q-23 0 -47 -7t-42.5 -23.5t-18.5 -49.5
q0 -29 18.5 -48.5t47.5 -19.5q28 0 47 14.5t28 23.5v110zM357 -13q-3 -1 -6.5 -2.5t-6.5 -1.5t-7.5 6t-8.5 15t-7.5 19.5t-5.5 19.5q-8 -8 -18.5 -18t-26 -19.5t-36.5 -16t-49 -6.5q-69 0 -109.5 41.5t-40.5 112.5q0 42 14 71t36.5 48t50.5 29t57 14.5t56 5.5t47 1v31
q0 17 -2 30.5t-9.5 23.5t-21.5 15t-38 5q-21 0 -41 -4.5t-37 -10.5t-29 -10.5t-17 -4.5q-4 0 -6.5 3.5t-3.5 6.5l-20 61q-3 6 -3 12q0 9 16.5 17t42.5 15t57 11t60 4q94 0 133 -41.5t39 -119.5v-193q0 -36 4 -58t9 -35.5t9 -21.5t4 -15q0 -5 -9 -9z" />
    <glyph glyph-name="aring" unicode="&#xe5;" horiz-adv-x="481" 
d="M241 626q18 0 30.5 12t12.5 30t-12.5 30.5t-30.5 12.5q-17 0 -29.5 -12t-12.5 -31q0 -18 12.5 -30t29.5 -12zM346 668q0 -22 -8.5 -41t-22.5 -33t-33.5 -22t-40.5 -8t-40 8t-33.5 22t-22.5 33t-8 41t8 41t22.5 33.5t33.5 22.5t40 8t40.5 -8t33.5 -22.5t22.5 -33.5
t8.5 -41zM296 224h-33q-23 0 -47 -7t-42.5 -23.5t-18.5 -49.5q0 -29 18.5 -48.5t47.5 -19.5q28 0 47 14.5t28 23.5v110zM357 -13q-3 -1 -6.5 -2.5t-6.5 -1.5t-7.5 6t-8.5 15t-7.5 19.5t-5.5 19.5q-8 -8 -18.5 -18t-26 -19.5t-36.5 -16t-49 -6.5q-69 0 -109.5 41.5
t-40.5 112.5q0 42 14 71t36.5 48t50.5 29t57 14.5t56 5.5t47 1v31q0 17 -2 30.5t-9.5 23.5t-21.5 15t-38 5q-21 0 -41 -4.5t-37 -10.5t-29 -10.5t-17 -4.5q-4 0 -6.5 3.5t-3.5 6.5l-20 61q-3 6 -3 12q0 9 16.5 17t42.5 15t57 11t60 4q94 0 133 -41.5t39 -119.5v-193
q0 -36 4 -58t9 -35.5t9 -21.5t4 -15q0 -5 -9 -9z" />
    <glyph glyph-name="atilde" unicode="&#xe3;" horiz-adv-x="481" 
d="M388 691q2 -2 4.5 -4t2.5 -5q0 -2 -6.5 -17t-19 -32t-32.5 -31t-47 -14q-18 0 -31.5 5.5t-24 12t-20.5 12t-20 5.5q-11 0 -18 -5.5t-12 -12.5t-8 -12.5t-7 -5.5q-5 0 -9 3l-47 24q-7 3 -7 8q0 1 5.5 16t18 32t32 31.5t47.5 14.5q19 0 33.5 -5.5t26.5 -12t22 -12t20 -5.5
t16.5 5.5t11 12.5t7.5 12.5t8 5.5q3 0 7 -2zM296 224h-33q-23 0 -47 -7t-42.5 -23.5t-18.5 -49.5q0 -29 18.5 -48.5t47.5 -19.5q28 0 47 14.5t28 23.5v110zM357 -13q-3 -1 -6.5 -2.5t-6.5 -1.5t-7.5 6t-8.5 15t-7.5 19.5t-5.5 19.5q-8 -8 -18.5 -18t-26 -19.5t-36.5 -16
t-49 -6.5q-69 0 -109.5 41.5t-40.5 112.5q0 42 14 71t36.5 48t50.5 29t57 14.5t56 5.5t47 1v31q0 17 -2 30.5t-9.5 23.5t-21.5 15t-38 5q-21 0 -41 -4.5t-37 -10.5t-29 -10.5t-17 -4.5q-4 0 -6.5 3.5t-3.5 6.5l-20 61q-3 6 -3 12q0 9 16.5 17t42.5 15t57 11t60 4
q94 0 133 -41.5t39 -119.5v-193q0 -36 4 -58t9 -35.5t9 -21.5t4 -15q0 -5 -9 -9z" />
    <glyph glyph-name="eacute" unicode="&#xe9;" horiz-adv-x="500" 
d="M206 568q-4 -2 -7 -3t-7 -1q-5 0 -7.5 4t-5.5 10l-16 32q-2 3 -3.5 6.5t-1.5 7.5q0 5 3.5 7.5t9.5 6.5l163 96q3 2 6.5 4t7.5 2q5 0 8 -4.5t6 -9.5l31 -61q2 -3 3.5 -6.5t1.5 -7.5q0 -5 -5 -8t-11 -5zM325 306q0 15 -1.5 34.5t-8.5 37t-21.5 29t-40.5 11.5
q-29 0 -45.5 -13.5t-25 -32t-11 -37.5t-3.5 -29h157zM441 53q3 -5 3 -11q0 -10 -17 -20.5t-43 -19t-57.5 -14t-61.5 -5.5q-50 0 -91 14.5t-70.5 46t-46 80.5t-16.5 118q0 60 15.5 109.5t44 85t69 55t90.5 19.5q64 0 103 -25.5t60.5 -65.5t29 -88.5t7.5 -93.5
q0 -14 -4.5 -19.5t-18.5 -5.5h-269q0 -21 4 -43t16 -40.5t33.5 -30t56.5 -11.5q27 0 48 5t37 11.5t26.5 11.5t15.5 5q7 0 11 -8z" />
    <glyph glyph-name="ecircumflex" unicode="&#xea;" horiz-adv-x="500" 
d="M365 577q-5 -9 -8 -11t-6 -2q-4 0 -7 2t-7 4l-86 49l-86 -49q-4 -2 -7 -4t-7 -2q-3 0 -6 2t-8 11l-19 32q-2 2 -4 6t-2 8q0 5 4 8l8 6l113 89q3 2 6.5 5t7.5 3t7.5 -3t6.5 -5l113 -89l8 -6t4 -8q0 -4 -2 -8t-4 -6zM325 306q0 15 -1.5 34.5t-8.5 37t-21.5 29t-40.5 11.5
q-29 0 -45.5 -13.5t-25 -32t-11 -37.5t-3.5 -29h157zM441 53q3 -5 3 -11q0 -10 -17 -20.5t-43 -19t-57.5 -14t-61.5 -5.5q-50 0 -91 14.5t-70.5 46t-46 80.5t-16.5 118q0 60 15.5 109.5t44 85t69 55t90.5 19.5q64 0 103 -25.5t60.5 -65.5t29 -88.5t7.5 -93.5
q0 -14 -4.5 -19.5t-18.5 -5.5h-269q0 -21 4 -43t16 -40.5t33.5 -30t56.5 -11.5q27 0 48 5t37 11.5t26.5 11.5t15.5 5q7 0 11 -8z" />
    <glyph glyph-name="edieresis" unicode="&#xeb;" horiz-adv-x="500" 
d="M409 652q0 -29 -20 -49t-49 -20t-49 20t-20 49t20 49t49 20t49 -20.5t20 -48.5zM232 652q0 -29 -20 -49t-49 -20t-49 20t-20 49t20 49t49 20t49 -20t20 -49zM325 306q0 15 -1.5 34.5t-8.5 37t-21.5 29t-40.5 11.5q-29 0 -45.5 -13.5t-25 -32t-11 -37.5t-3.5 -29h157z
M441 53q3 -5 3 -11q0 -10 -17 -20.5t-43 -19t-57.5 -14t-61.5 -5.5q-50 0 -91 14.5t-70.5 46t-46 80.5t-16.5 118q0 60 15.5 109.5t44 85t69 55t90.5 19.5q64 0 103 -25.5t60.5 -65.5t29 -88.5t7.5 -93.5q0 -14 -4.5 -19.5t-18.5 -5.5h-269q0 -21 4 -43t16 -40.5t33.5 -30
t56.5 -11.5q27 0 48 5t37 11.5t26.5 11.5t15.5 5q7 0 11 -8z" />
    <glyph glyph-name="egrave" unicode="&#xe8;" horiz-adv-x="500" 
d="M322 578q-3 -6 -5.5 -10t-7.5 -4q-4 0 -7 1t-7 3l-176 70q-6 2 -11 5t-5 8q0 4 1.5 7.5t3.5 6.5l31 61q3 5 6 9.5t8 4.5q4 0 7.5 -2t6.5 -4l163 -96q6 -4 9.5 -6.5t3.5 -7.5q0 -4 -1.5 -7.5t-3.5 -6.5zM325 306q0 15 -1.5 34.5t-8.5 37t-21.5 29t-40.5 11.5
q-29 0 -45.5 -13.5t-25 -32t-11 -37.5t-3.5 -29h157zM441 53q3 -5 3 -11q0 -10 -17 -20.5t-43 -19t-57.5 -14t-61.5 -5.5q-50 0 -91 14.5t-70.5 46t-46 80.5t-16.5 118q0 60 15.5 109.5t44 85t69 55t90.5 19.5q64 0 103 -25.5t60.5 -65.5t29 -88.5t7.5 -93.5
q0 -14 -4.5 -19.5t-18.5 -5.5h-269q0 -21 4 -43t16 -40.5t33.5 -30t56.5 -11.5q27 0 48 5t37 11.5t26.5 11.5t15.5 5q7 0 11 -8z" />
    <glyph glyph-name="iacute" unicode="&#xed;" horiz-adv-x="315" 
d="M98 568q-4 -2 -7 -3t-7 -1q-5 0 -7.5 4t-5.5 10l-16 32q-2 3 -3.5 6.5t-1.5 7.5q0 5 3.5 7.5t9.5 6.5l163 96q3 2 6.5 4t7.5 2q5 0 8 -4.5t6 -9.5l31 -61q2 -3 3.5 -6.5t1.5 -7.5q0 -5 -5 -8t-11 -5zM234 14q0 -8 -2.5 -11t-11.5 -3h-99q-9 0 -11.5 3t-2.5 11v387h-77
q-9 0 -11.5 3t-2.5 11v65q0 8 2.5 11t11.5 3h190q9 0 11.5 -3t2.5 -11v-466z" />
    <glyph glyph-name="icircumflex" unicode="&#xee;" horiz-adv-x="315" 
d="M252 577q-5 -9 -8 -11t-6 -2q-4 0 -7 2t-7 4l-86 49l-86 -49q-4 -2 -7 -4t-7 -2q-3 0 -6 2t-8 11l-19 32q-2 2 -4 6t-2 8q0 5 4 8l8 6l113 89q3 2 6.5 5t7.5 3t7.5 -3t6.5 -5l113 -89l8 -6t4 -8q0 -4 -2 -8t-4 -6zM234 14q0 -8 -2.5 -11t-11.5 -3h-99q-9 0 -11.5 3
t-2.5 11v387h-77q-9 0 -11.5 3t-2.5 11v65q0 8 2.5 11t11.5 3h190q9 0 11.5 -3t2.5 -11v-466z" />
    <glyph glyph-name="idieresis" unicode="&#xef;" horiz-adv-x="315" 
d="M296 652q0 -29 -20 -49t-49 -20t-49 20t-20 49t20 49t49 20t49 -20.5t20 -48.5zM119 652q0 -29 -20 -49t-49 -20t-49 20t-20 49t20 49t49 20t49 -20t20 -49zM234 14q0 -8 -2.5 -11t-11.5 -3h-99q-9 0 -11.5 3t-2.5 11v387h-77q-9 0 -11.5 3t-2.5 11v65q0 8 2.5 11t11.5 3
h190q9 0 11.5 -3t2.5 -11v-466z" />
    <glyph glyph-name="igrave" unicode="&#xec;" horiz-adv-x="315" 
d="M229 578q-3 -6 -5.5 -10t-7.5 -4q-4 0 -7 1t-7 3l-176 70q-6 2 -11 5t-5 8q0 4 1.5 7.5t3.5 6.5l31 61q3 5 6 9.5t8 4.5q4 0 7.5 -2t6.5 -4l163 -96q6 -4 9.5 -6.5t3.5 -7.5q0 -4 -1.5 -7.5t-3.5 -6.5zM234 14q0 -8 -2.5 -11t-11.5 -3h-99q-9 0 -11.5 3t-2.5 11v387h-77
q-9 0 -11.5 3t-2.5 11v65q0 8 2.5 11t11.5 3h190q9 0 11.5 -3t2.5 -11v-466z" />
    <glyph glyph-name="ntilde" unicode="&#xf1;" horiz-adv-x="537" 
d="M416 691q2 -2 4.5 -4t2.5 -5q0 -2 -6.5 -17t-19 -32t-32.5 -31t-47 -14q-18 0 -31.5 5.5t-24 12t-20.5 12t-20 5.5q-11 0 -18 -5.5t-12 -12.5t-8 -12.5t-7 -5.5q-5 0 -9 3l-47 24q-7 3 -7 8q0 1 5.5 16t18 32t32 31.5t47.5 14.5q19 0 33.5 -5.5t26.5 -12t22 -12t20 -5.5
t16.5 5.5t11 12.5t7.5 12.5t8 5.5q3 0 7 -2zM467 14q0 -8 -2.5 -11t-11.5 -3h-99q-9 0 -11.5 3t-2.5 11v308q0 14 -1.5 29t-7.5 27t-17 20t-30 8q-16 0 -30 -4.5t-25 -11.5t-19.5 -14t-13.5 -11v-351q0 -8 -2.5 -11t-11.5 -3h-99q-9 0 -11.5 3t-2.5 11v302q0 53 -3 80.5
t-6.5 41.5t-6.5 19.5t-3 14.5q0 8 11 11l76 25q9 3 15 3q10 0 17 -17t15 -52q11 10 25 22t32.5 22.5t42 17.5t53.5 7q21 0 43.5 -6t42 -22t32 -44.5t12.5 -73.5v-351z" />
    <glyph glyph-name="oacute" unicode="&#xf3;" horiz-adv-x="519" 
d="M215 568q-4 -2 -7 -3t-7 -1q-5 0 -7.5 4t-5.5 10l-16 32q-2 3 -3.5 6.5t-1.5 7.5q0 5 3.5 7.5t9.5 6.5l163 96q3 2 6.5 4t7.5 2q5 0 8 -4.5t6 -9.5l31 -61q2 -3 3.5 -6.5t1.5 -7.5q0 -5 -5 -8t-11 -5zM476 247q0 -60 -15 -109t-43 -83.5t-68 -53t-91 -18.5t-91 18.5
t-68 53t-43 83.5t-15 109t15 109t43 83.5t68 53t91 18.5q50 0 90.5 -18.5t68.5 -53t43 -83.5t15 -109zM259 83q26 0 42 12.5t25 34.5t12 52t3 65t-3 65t-12 52t-25 34.5t-42 12.5t-42 -12.5t-25 -34.5t-12 -52t-3 -65t3 -65t12 -52t25 -34.5t42 -12.5z" />
    <glyph glyph-name="ocircumflex" unicode="&#xf4;" horiz-adv-x="519" 
d="M374 577q-5 -9 -8 -11t-6 -2q-4 0 -7 2t-7 4l-86 49l-86 -49q-4 -2 -7 -4t-7 -2q-3 0 -6 2t-8 11l-19 32q-2 2 -4 6t-2 8q0 5 4 8l8 6l113 89q3 2 6.5 5t7.5 3t7.5 -3t6.5 -5l113 -89l8 -6t4 -8q0 -4 -2 -8t-4 -6zM476 247q0 -60 -15 -109t-43 -83.5t-68 -53t-91 -18.5
t-91 18.5t-68 53t-43 83.5t-15 109t15 109t43 83.5t68 53t91 18.5q50 0 90.5 -18.5t68.5 -53t43 -83.5t15 -109zM259 83q26 0 42 12.5t25 34.5t12 52t3 65t-3 65t-12 52t-25 34.5t-42 12.5t-42 -12.5t-25 -34.5t-12 -52t-3 -65t3 -65t12 -52t25 -34.5t42 -12.5z" />
    <glyph glyph-name="odieresis" unicode="&#xf6;" horiz-adv-x="519" 
d="M418 652q0 -29 -20 -49t-49 -20t-49 20t-20 49t20 49t49 20t49 -20.5t20 -48.5zM241 652q0 -29 -20 -49t-49 -20t-49 20t-20 49t20 49t49 20t49 -20t20 -49zM476 247q0 -60 -15 -109t-43 -83.5t-68 -53t-91 -18.5t-91 18.5t-68 53t-43 83.5t-15 109t15 109t43 83.5t68 53
t91 18.5q50 0 90.5 -18.5t68.5 -53t43 -83.5t15 -109zM259 83q26 0 42 12.5t25 34.5t12 52t3 65t-3 65t-12 52t-25 34.5t-42 12.5t-42 -12.5t-25 -34.5t-12 -52t-3 -65t3 -65t12 -52t25 -34.5t42 -12.5z" />
    <glyph glyph-name="ograve" unicode="&#xf2;" horiz-adv-x="519" 
d="M331 578q-3 -6 -5.5 -10t-7.5 -4q-4 0 -7 1t-7 3l-176 70q-6 2 -11 5t-5 8q0 4 1.5 7.5t3.5 6.5l31 61q3 5 6 9.5t8 4.5q4 0 7.5 -2t6.5 -4l163 -96q6 -4 9.5 -6.5t3.5 -7.5q0 -4 -1.5 -7.5t-3.5 -6.5zM476 247q0 -60 -15 -109t-43 -83.5t-68 -53t-91 -18.5t-91 18.5
t-68 53t-43 83.5t-15 109t15 109t43 83.5t68 53t91 18.5q50 0 90.5 -18.5t68.5 -53t43 -83.5t15 -109zM259 83q26 0 42 12.5t25 34.5t12 52t3 65t-3 65t-12 52t-25 34.5t-42 12.5t-42 -12.5t-25 -34.5t-12 -52t-3 -65t3 -65t12 -52t25 -34.5t42 -12.5z" />
    <glyph glyph-name="otilde" unicode="&#xf5;" horiz-adv-x="519" 
d="M407 691q2 -2 4.5 -4t2.5 -5q0 -2 -6.5 -17t-19 -32t-32.5 -31t-47 -14q-18 0 -31.5 5.5t-24 12t-20.5 12t-20 5.5q-11 0 -18 -5.5t-12 -12.5t-8 -12.5t-7 -5.5q-5 0 -9 3l-47 24q-7 3 -7 8q0 1 5.5 16t18 32t32 31.5t47.5 14.5q19 0 33.5 -5.5t26.5 -12t22 -12t20 -5.5
t16.5 5.5t11 12.5t7.5 12.5t8 5.5q3 0 7 -2zM476 247q0 -60 -15 -109t-43 -83.5t-68 -53t-91 -18.5t-91 18.5t-68 53t-43 83.5t-15 109t15 109t43 83.5t68 53t91 18.5q50 0 90.5 -18.5t68.5 -53t43 -83.5t15 -109zM259 83q26 0 42 12.5t25 34.5t12 52t3 65t-3 65t-12 52
t-25 34.5t-42 12.5t-42 -12.5t-25 -34.5t-12 -52t-3 -65t3 -65t12 -52t25 -34.5t42 -12.5z" />
    <glyph glyph-name="uacute" unicode="&#xfa;" horiz-adv-x="537" 
d="M224 568q-4 -2 -7 -3t-7 -1q-5 0 -7.5 4t-5.5 10l-16 32q-2 3 -3.5 6.5t-1.5 7.5q0 5 3.5 7.5t9.5 6.5l163 96q3 2 6.5 4t7.5 2q5 0 8 -4.5t6 -9.5l31 -61q2 -3 3.5 -6.5t1.5 -7.5q0 -5 -5 -8t-11 -5zM397 -14q-9 -3 -15 -3q-10 0 -17 14.5t-15 44.5q-10 -9 -24 -19.5
t-33 -19t-42.5 -14.5t-53.5 -6q-21 0 -43.5 6t-42 22t-32 44.5t-12.5 73.5v344q0 11 5 13.5t14 4.5l84 17q2 0 8 1.5t8 1.5q5 0 6.5 -4t1.5 -17v-318q0 -14 1.5 -29t7.5 -27t17 -20t30 -8q32 0 55 12t33 19v354q0 11 5 13.5t14 4.5l84 17q2 0 8 1.5t9 1.5q4 0 5.5 -4
t1.5 -17v-312q0 -53 3 -80.5t6.5 -41.5t6.5 -19.5t3 -14.5q0 -8 -11 -11z" />
    <glyph glyph-name="ucircumflex" unicode="&#xfb;" horiz-adv-x="537" 
d="M383 577q-5 -9 -8 -11t-6 -2q-4 0 -7 2t-7 4l-86 49l-86 -49q-4 -2 -7 -4t-7 -2q-3 0 -6 2t-8 11l-19 32q-2 2 -4 6t-2 8q0 5 4 8l8 6l113 89q3 2 6.5 5t7.5 3t7.5 -3t6.5 -5l113 -89l8 -6t4 -8q0 -4 -2 -8t-4 -6zM397 -14q-9 -3 -15 -3q-10 0 -17 14.5t-15 44.5
q-10 -9 -24 -19.5t-33 -19t-42.5 -14.5t-53.5 -6q-21 0 -43.5 6t-42 22t-32 44.5t-12.5 73.5v344q0 11 5 13.5t14 4.5l84 17q2 0 8 1.5t8 1.5q5 0 6.5 -4t1.5 -17v-318q0 -14 1.5 -29t7.5 -27t17 -20t30 -8q32 0 55 12t33 19v354q0 11 5 13.5t14 4.5l84 17q2 0 8 1.5t9 1.5
q4 0 5.5 -4t1.5 -17v-312q0 -53 3 -80.5t6.5 -41.5t6.5 -19.5t3 -14.5q0 -8 -11 -11z" />
    <glyph glyph-name="udieresis" unicode="&#xfc;" horiz-adv-x="537" 
d="M427 652q0 -29 -20 -49t-49 -20t-49 20t-20 49t20 49t49 20t49 -20.5t20 -48.5zM250 652q0 -29 -20 -49t-49 -20t-49 20t-20 49t20 49t49 20t49 -20t20 -49zM397 -14q-9 -3 -15 -3q-10 0 -17 14.5t-15 44.5q-10 -9 -24 -19.5t-33 -19t-42.5 -14.5t-53.5 -6q-21 0 -43.5 6
t-42 22t-32 44.5t-12.5 73.5v344q0 11 5 13.5t14 4.5l84 17q2 0 8 1.5t8 1.5q5 0 6.5 -4t1.5 -17v-318q0 -14 1.5 -29t7.5 -27t17 -20t30 -8q32 0 55 12t33 19v354q0 11 5 13.5t14 4.5l84 17q2 0 8 1.5t9 1.5q4 0 5.5 -4t1.5 -17v-312q0 -53 3 -80.5t6.5 -41.5t6.5 -19.5
t3 -14.5q0 -8 -11 -11z" />
    <glyph glyph-name="ugrave" unicode="&#xf9;" horiz-adv-x="537" 
d="M340 578q-3 -6 -5.5 -10t-7.5 -4q-4 0 -7 1t-7 3l-176 70q-6 2 -11 5t-5 8q0 4 1.5 7.5t3.5 6.5l31 61q3 5 6 9.5t8 4.5q4 0 7.5 -2t6.5 -4l163 -96q6 -4 9.5 -6.5t3.5 -7.5q0 -4 -1.5 -7.5t-3.5 -6.5zM397 -14q-9 -3 -15 -3q-10 0 -17 14.5t-15 44.5q-10 -9 -24 -19.5
t-33 -19t-42.5 -14.5t-53.5 -6q-21 0 -43.5 6t-42 22t-32 44.5t-12.5 73.5v344q0 11 5 13.5t14 4.5l84 17q2 0 8 1.5t8 1.5q5 0 6.5 -4t1.5 -17v-318q0 -14 1.5 -29t7.5 -27t17 -20t30 -8q32 0 55 12t33 19v354q0 11 5 13.5t14 4.5l84 17q2 0 8 1.5t9 1.5q4 0 5.5 -4
t1.5 -17v-312q0 -53 3 -80.5t6.5 -41.5t6.5 -19.5t3 -14.5q0 -8 -11 -11z" />
    <glyph glyph-name="ydieresis" unicode="&#xff;" horiz-adv-x="481" 
d="M399 652q0 -29 -20 -49t-49 -20t-49 20t-20 49t20 49t49 20t49 -20.5t20 -48.5zM222 652q0 -29 -20 -49t-49 -20t-49 20t-20 49t20 49t49 20t49 -20t20 -49zM336 482q2 8 6 14.5t11 6.5q3 0 9.5 -0.5t8.5 -0.5l70 -9q11 -2 16.5 -3.5t5.5 -6.5q0 -3 -1.5 -7.5l-3.5 -10.5
l-98 -361q-7 -24 -15 -54t-17 -60.5t-18 -58.5t-17 -49q-11 -27 -27.5 -45.5t-36 -29t-41 -15t-42.5 -4.5t-44.5 4.5t-44 11.5t-34 15t-13.5 15q0 4 4 12l30 65q3 7 9 7q4 0 11.5 -4t18.5 -8.5t24.5 -8.5t30.5 -4q19 0 32.5 5.5t22.5 15.5t14.5 23.5t10.5 29.5l10 33h-42
q-10 0 -13 3t-5 10l-153 452q-1 2 -2.5 7t-2.5 10q0 6 5.5 7.5t16.5 3.5l83 9q2 0 8 0.5t8 0.5q6 0 9 -6t5 -14l65 -242q4 -17 10 -41.5t11.5 -49.5t10 -47t6.5 -35h2q2 15 7 41t10 53t9.5 49.5t6.5 29.5z" />
    <glyph glyph-name="nonbreakingspace" unicode="&#xa0;" horiz-adv-x="296" 
 />
    <glyph glyph-name="exclam" unicode="!" horiz-adv-x="352" 
d="M260 67q0 -34 -24.5 -59t-59.5 -25q-36 0 -60.5 25t-24.5 59q0 36 24.5 60.5t60.5 24.5q35 0 59.5 -25t24.5 -60zM225 278q-2 -14 -6 -17t-15 -3h-57q-11 0 -15 3t-6 17l-22 391q-1 13 -1 14v6q0 10 6 11.5t12 1.5h107q6 0 13 -1.5t7 -11.5v-6t-1 -14z" />
    <glyph glyph-name="notequal" unicode="&#x2260;" horiz-adv-x="549" 
d="M12 399h294l103 261h39l-101 -261h190v-45h-208l-70 -181h278v-46h-296l-103 -258h-39l102 258h-189v46h207l71 181h-278v45z" />
    <glyph glyph-name="infinity" unicode="&#x221e;" horiz-adv-x="713" 
d="M319 326q33 76 72 105q40 30 109 30q77 0 133 -57q54 -56 54 -147q0 -88 -53 -147q-52 -58 -118 -58q-48 0 -90 36q-27 23 -74 104q-32 -61 -69 -87.5t-90 -26.5q-70 0 -118 50q-49 50 -49 130t45 130q45 49 105 49q43 0 74 -22q31 -21 69 -89zM366 227q18 -39 35.5 -64
t36 -39.5t38.5 -20t42 -5.5q30 0 56 11.5t44.5 32t29.5 50t11 65.5q0 73 -43 119q-42 47 -95 47q-34 0 -59 -17t-45 -55q-13 -24 -51 -124zM305 288q-24 54 -55 79.5t-76 25.5q-26 0 -48 -9.5t-38 -27t-25.5 -42.5t-9.5 -55q0 -66 34 -104q34 -39 78 -39q46 0 82 42
q24 29 58 130z" />
    <glyph glyph-name="lessequal" unicode="&#x2264;" horiz-adv-x="549" 
d="M536 120l-524 223v40l524 222v-50l-464 -192l464 -193v-50zM12 -34h525v-45h-525v45z" />
    <glyph glyph-name="greaterequal" unicode="&#x2265;" horiz-adv-x="549" 
d="M12 605l524 -223v-40l-524 -222v50l464 192l-464 193v50zM12 -34h525v-45h-525v45z" />
    <glyph glyph-name="partialdiff" unicode="&#x2202;" horiz-adv-x="494" 
d="M454 350q2 28 3.5 50.5t1.5 40.5q0 88 -46 136t-122 48q-52 0 -86.5 -19.5t-60.5 -58.5h-23q38 78 81.5 112.5t104.5 34.5q33 -1 65.5 -13.5t58 -41.5t41 -75.5t14.5 -114.5q0 -174 -75 -310q-85 -154 -214 -154q-76 0 -121 44t-45 119q0 44 13.5 85.5t35 76.5t50 62
t58.5 42q56 29 113 29q40 0 72.5 -15t53.5 -37q13 -13 27 -41zM445 307q-19 54 -56.5 82t-83.5 28q-44 0 -87 -31q-42 -30 -73 -106q-31 -75 -31 -152q0 -55 26.5 -85t68.5 -30q60 0 123 63q78 80 113 231z" />
    <glyph glyph-name="summation" unicode="&#x2211;" horiz-adv-x="713" 
d="M662 -215h-641v18l327 439l-327 433v18h624l13 -164h-19q-8 67 -38 96t-84 29h-361l274 -370l-307 -413h399q36 0 75 13q28 9 46.5 32.5t30.5 74.5l19 -4z" />
    <glyph glyph-name="product" unicode="&#x220f;" horiz-adv-x="823" 
d="M605 655h-388v-776q0 -42 18 -59t61 -17h18v-18h-292v18h18q43 0 61 17t18 59v721q0 40 -18 57.5t-61 17.5h-18v18h779v-18h-17q-43 0 -61 -17.5t-18 -57.5v-721q0 -42 18 -59t61 -17h17v-18h-292v18h17q43 0 61 17t18 59v776z" />
    <glyph glyph-name="pi" unicode="&#x3c0;" horiz-adv-x="505" 
d="M485 447v-71h-113l-10 -148q-3 -39 -3 -67q0 -68 16 -83t38 -15q47 0 56 59h17q-17 -135 -108 -135q-43 0 -69 26t-26 78q0 17 2.5 53t7.5 91l13 141h-103q-5 -90 -11.5 -154t-13.5 -106q-13 -81 -32 -106q-17 -23 -47 -23q-22 0 -37.5 13t-15.5 34t26 56q38 51 58 108
q10 28 17 72.5t12 105.5h-34q-40 0 -61 -18t-40 -51h-18q15 52 37 86q22 33 46 44q23 10 84 10h312z" />
    <glyph glyph-name="integral" unicode="&#x222b;" horiz-adv-x="274" 
d="M106 721q5 76 25 124q13 33 36 49t45 16q25 0 43 -16.5t18 -36.5q0 -23 -12.5 -36.5t-31.5 -13.5q-18 0 -38 17q-10 10 -19 10q-8 0 -14 -7t-6 -24q0 -10 1.5 -27.5t3.5 -43.5q18 -201 18 -324q0 -17 -2 -88.5t-6 -199.5q-5 -144 -44 -194q-26 -33 -65 -33
q-26 0 -42 16.5t-16 42.5q0 22 12.5 35t31.5 13t33 -15q15 -16 25 -16q19 0 19 30q0 10 -1.5 24.5t-3.5 33.5q-8 70 -12 165q-6 121 -6 215z" />
    <glyph glyph-name="radical" unicode="&#x221a;" horiz-adv-x="549" 
d="M512 913h36l-152 -951l-242 498l-97 -44l-16 31l146 74l198 -402z" />
    <glyph glyph-name="approxequal" unicode="&#x2248;" horiz-adv-x="549" 
d="M535 507q-2 -63 -36 -98t-82 -35q-25 0 -49 7q-26 8 -134 52q-75 31 -108 31q-34 0 -57.5 -21.5t-32.5 -67.5h-21q0 31 9.5 55.5t25.5 41.5t36.5 26t41.5 10q22 0 43 -7q26 -7 61 -20t81 -33q50 -22 77 -29q13 -3 32 -3q37 0 62 23t30 68h21zM535 267q-2 -63 -36 -98.5
t-82 -35.5q-23 0 -74 15l-109 45q-75 31 -108 31q-34 0 -57.5 -21t-32.5 -69h-21q0 32 9 57t25 41.5t36.5 25.5t41.5 10q21 0 44 -6q49 -15 142 -54q24 -11 43.5 -17.5t33.5 -10.5q12 -4 32 -4q37 0 62 23t30 68h21z" />
    <glyph glyph-name="lozenge" unicode="&#x25ca;" horiz-adv-x="494" 
d="M268 694l204 -348l-204 -346h-54l-191 346l191 348h54zM242 647l-166 -301l166 -300l175 300z" />
    <glyph glyph-name="quotedbl" unicode="&#x22;" horiz-adv-x="500" 
d="M384 465q-1 -13 -4.5 -16.5t-16.5 -3.5h-41q-13 0 -16.5 3.5t-4.5 16.5l-21 229q-1 3 -1 10q0 10 6 11.5t14 1.5h87q8 0 14 -1.5t6 -11.5q0 -7 -1 -10zM199 465q-1 -13 -4.5 -16.5t-16.5 -3.5h-41q-13 0 -16.5 3.5t-4.5 16.5l-21 229q-1 3 -1 10q0 10 6 11.5t14 1.5h87
q8 0 14 -1.5t6 -11.5q0 -7 -1 -10z" />
    <glyph glyph-name="numbersign" unicode="#" 
d="M331 407h-100l-17 -167h99zM376 -33q-2 -13 -7.5 -16t-16.5 -3h-47q-8 0 -14 1.5t-6 12.5q0 5 1 8l18 174h-100l-17 -177q-2 -13 -8 -16t-17 -3h-45q-8 0 -14 1.5t-6 12.5v8l17 174h-39q-14 0 -17.5 3.5t-3.5 17.5v55q0 13 3.5 16.5t17.5 3.5h49l17 167h-39
q-14 0 -17.5 3.5t-3.5 17.5v54q0 14 3.5 17.5t17.5 3.5h49l17 163q2 13 7.5 16t16.5 3h45q7 0 14 -1.5t7 -11.5q0 -2 -0.5 -4t-0.5 -4l-16 -161h99l17 163q2 13 7 16t16 3h47q5 0 12.5 -1.5t7.5 -12.5q0 -5 -1 -7l-16 -161h51q13 0 16.5 -3.5t3.5 -17.5v-54
q0 -14 -3.5 -17.5t-16.5 -3.5h-60l-18 -167h51q13 0 16.5 -3.5t3.5 -16.5v-55q0 -13 -3.5 -17t-16.5 -4h-60z" />
    <glyph glyph-name="fraction" unicode="&#x2215;" horiz-adv-x="230" 
d="M40 0q-6 -17 -23 -17h-51q-7 0 -14 1t-7 9q0 4 4 14l237 662q4 11 10.5 13.5t12.5 2.5h51q8 0 13.5 -2t5.5 -10q0 -5 -3 -14z" />
    <glyph glyph-name="Lslash" unicode="&#x141;" horiz-adv-x="500" 
d="M470 18q-3 -12 -7 -15t-15 -3h-330q-13 0 -17 3.5t-4 17.5v239l-60 -35q-5 -3 -9 -3q-6 0 -6 11v63q0 7 2 9.5t7 6.5l66 38v314q0 14 4 17.5t17 3.5h93q13 0 17 -3.5t4 -17.5v-229l138 86q2 2 5 3.5t6 1.5q5 0 5.5 -3.5t0.5 -7.5v-71q0 -5 -3 -8.5t-6 -5.5l-146 -88v-222
h241q11 0 14.5 -3.5t3.5 -9.5q0 -5 -2 -13z" />
    <glyph glyph-name="lslash" unicode="&#x142;" horiz-adv-x="370" 
d="M335 19q1 -4 1.5 -5t0.5 -3q0 -5 -9 -10t-23.5 -9t-32.5 -6.5t-36 -2.5q-46 0 -71 17t-36.5 45t-13.5 62t-2 69v57l-82 -60q-2 -2 -6.5 -3.5t-7.5 -1.5t-5 1.5t-2 9.5v69q0 6 8 11l95 67v360q0 11 5 13.5t14 4.5l84 17q2 0 7 1.5t7 1.5q6 0 8 -4t2 -17v-287l100 71
q1 1 3.5 2.5t4.5 1.5q4 0 5.5 -3.5t1.5 -7.5v-69q0 -6 -8 -12l-107 -76v-165q0 -24 3.5 -42t24.5 -18q15 0 24.5 4.5t14.5 4.5q6 0 8 -6z" />
    <glyph glyph-name="threequarters" unicode="&#xbe;" horiz-adv-x="870" 
d="M784 8q0 -11 -3.5 -14.5t-14.5 -3.5h-53q-11 0 -15 3.5t-4 14.5v69h-151q-11 0 -15 3t-4 14v63l160 244q2 3 5 6.5t8 3.5q3 0 5.5 -1t5.5 -2l38 -14q5 -2 9.5 -5t4.5 -8q0 -3 -1.5 -6t-3.5 -6l-144 -222h83l10 89q1 11 5 13.5t14 2.5h43q11 0 14.5 -3.5t3.5 -14.5v-87h32
q11 0 15 -3t4 -15v-35q0 -11 -4 -14t-15 -3h-32v-69zM62 603q-6 4 -6 10t8.5 16.5t24 21.5t38 19t50.5 8t52 -7.5t41.5 -21.5t27.5 -34.5t10 -45.5q0 -20 -4 -33t-11 -22t-16 -16t-19 -15q9 -5 20 -12t20.5 -18t16 -28t6.5 -42q0 -30 -12.5 -53.5t-33 -39.5t-48 -24.5
t-57.5 -8.5q-18 0 -40 3t-41.5 8.5t-32.5 12t-13 14.5q0 2 1 5l2 6l12 40q1 2 4 6t7 4q5 0 13 -4t20 -8.5t27 -8t34 -3.5q68 0 68 55q0 19 -8 29.5t-20 16t-25.5 6.5t-23.5 1h-19q-11 0 -15 3t-4 14v40q0 11 4 14.5t15 3.5h20q5 0 15.5 0.5t21 5t18.5 14t8 28.5
q0 18 -12.5 29t-32.5 11q-16 0 -26.5 -5.5t-18 -11.5t-12.5 -11.5t-10 -5.5t-10 5zM380 0q-6 -17 -23 -17h-51q-7 0 -14 1t-7 9q0 4 4 14l237 662q4 11 10.5 13.5t12.5 2.5h51q8 0 13.5 -2t5.5 -10q0 -5 -3 -14z" />
    <glyph glyph-name="onequarter" unicode="&#xbc;" horiz-adv-x="870" 
d="M299 285q0 -11 -4 -14.5t-15 -3.5h-188q-11 0 -15 3.5t-4 14.5v30q0 11 4 14t15 3h56v231l-52 -26q-8 -4 -12 -4q-5 0 -8 3.5t-5 7.5l-17 26q-2 2 -3.5 5t-1.5 6q0 5 3.5 7.5t7.5 5.5l115 74h45q11 0 14.5 -3.5t3.5 -13.5v-319h42q11 0 15 -3t4 -14v-30zM380 0
q-6 -17 -23 -17h-51q-7 0 -14 1t-7 9q0 4 4 14l237 662q4 11 10.5 13.5t12.5 2.5h51q8 0 13.5 -2t5.5 -10q0 -5 -3 -14zM778 8q0 -11 -3.5 -14.5t-14.5 -3.5h-53q-11 0 -15 3.5t-4 14.5v69h-151q-11 0 -15 3t-4 14v63l160 244q2 3 5 6.5t8 3.5q3 0 5.5 -1t5.5 -2l38 -14
q5 -2 9.5 -5t4.5 -8q0 -3 -1.5 -6t-3.5 -6l-144 -222h83l10 89q1 11 5 13.5t14 2.5h43q11 0 14.5 -3.5t3.5 -14.5v-89h32q11 0 15 -3t4 -15v-33q0 -11 -4 -14t-15 -3h-32v-69z" />
    <glyph glyph-name="onesuperior" unicode="&#xb9;" horiz-adv-x="370" 
d="M306 285q0 -11 -4 -14.5t-15 -3.5h-188q-11 0 -15 3.5t-4 14.5v30q0 11 4 14t15 3h56v231l-52 -26q-8 -4 -12 -4q-5 0 -8 3.5t-5 7.5l-17 26q-2 2 -3.5 5t-1.5 6q0 5 3.5 7.5t7.5 5.5l115 74h45q11 0 14.5 -3.5t3.5 -13.5v-319h42q11 0 15 -3t4 -14v-30z" />
    <glyph glyph-name="multiply" unicode="&#xd7;" 
d="M415 72l-5 -5t-7 -3q-6 0 -12 8l-113 115l-113 -115q-6 -8 -12 -8q-4 0 -7 3l-5 5l-48 47q-2 2 -4.5 5t-2.5 7t2.5 7t4.5 5l115 113l-115 113q-2 2 -4.5 5t-2.5 7t2.5 7t4.5 5l48 48q2 2 5 4.5t6 2.5q6 0 13 -7l113 -115l113 115q2 2 5 4.5t7 2.5q5 0 12 -7l47 -47
q3 -3 5.5 -6t2.5 -6q0 -7 -8 -13l-114 -113l114 -113l5 -5t3 -6q0 -5 -8 -13z" />
    <glyph glyph-name="Thorn" unicode="&#xde;" horiz-adv-x="519" 
d="M211 21q0 -14 -4 -17.5t-17 -3.5h-93q-13 0 -17 3.5t-4 17.5v643q0 14 4 17.5t17 3.5h93q13 0 17 -3.5t4 -17.5v-84h48q30 0 70.5 -3t76.5 -20.5t61 -56t25 -108.5q0 -62 -21 -104.5t-54 -69t-73.5 -38t-79.5 -11.5h-53v-148zM242 274q22 0 43 3t37 14.5t25.5 33.5
t9.5 60q0 33 -9 51t-24 26.5t-34 10.5t-38 2h-41v-201h31z" />
    <glyph glyph-name="brokenbar" unicode="&#xa6;" horiz-adv-x="400" 
d="M250 -158q0 -11 -3 -14t-14 -3h-66q-10 0 -13.5 3t-3.5 14v316q0 11 3.5 14t13.5 3h66q10 0 13.5 -3t3.5 -14v-316zM250 342q0 -11 -3 -14t-14 -3h-66q-10 0 -13.5 3t-3.5 14v316q0 11 3.5 14t13.5 3h66q10 0 13.5 -3t3.5 -14v-316z" />
    <glyph glyph-name="Eth" unicode="&#xd0;" horiz-adv-x="593" 
d="M256 108q42 0 71.5 10.5t48 37.5t27 73.5t8.5 118.5q0 67 -8.5 111t-27 70.5t-48 37t-71.5 10.5h-36v-176h100q14 0 17.5 -3.5t3.5 -17.5v-48q0 -14 -3.5 -17.5t-17.5 -3.5h-100v-203h36zM262 685q72 0 126 -14t91 -51.5t55.5 -103.5t18.5 -170q0 -108 -21 -175.5
t-59.5 -105.5t-92.5 -51.5t-121 -13.5h-153q-13 0 -17 4t-4 17v290h-51q-14 0 -17.5 3.5t-3.5 17.5v48q0 13 3.5 17t17.5 4h51v263q0 14 4 17.5t18 3.5h155z" />
    <glyph glyph-name="onehalf" unicode="&#xbd;" horiz-adv-x="870" 
d="M802 18q0 -11 -3.5 -14.5t-14.5 -3.5h-231q-14 0 -14 16q0 40 5.5 61.5t14.5 38.5q18 34 45 54.5t52 37.5t43 35.5t18 47.5q0 24 -13 34.5t-33 10.5q-22 0 -33 -9t-17 -20.5t-10.5 -20.5t-13.5 -9q-6 0 -12 3l-38 13q-4 1 -7.5 4.5t-3.5 8.5q0 10 8 28t25 35t44 29.5
t65 12.5q57 0 93 -29t36 -88q0 -34 -11.5 -57.5t-30 -41.5t-40.5 -32.5t-43 -30.5q-26 -20 -34 -32.5t-9 -24.5h145q11 0 14.5 -3.5t3.5 -14.5v-39zM291 285q0 -11 -4 -14.5t-15 -3.5h-188q-11 0 -15 3.5t-4 14.5v30q0 11 4 14t15 3h56v231l-52 -26q-8 -4 -12 -4
q-5 0 -8 3.5t-5 7.5l-17 26q-2 2 -3.5 5t-1.5 6q0 5 3.5 7.5t7.5 5.5l115 74h45q11 0 14.5 -3.5t3.5 -13.5v-319h42q11 0 15 -3t4 -14v-30zM340 0q-6 -17 -23 -17h-51q-7 0 -14 1t-7 9q0 4 4 14l237 662q4 11 10.5 13.5t12.5 2.5h51q8 0 13.5 -2t5.5 -10q0 -5 -3 -14z" />
    <glyph glyph-name="minus" unicode="&#x2212;" 
d="M505 224q0 -11 -3 -14t-14 -3h-420q-11 0 -14 3t-3 14v66q0 11 3.5 14t13.5 3h420q11 0 14 -3t3 -14v-66z" />
    <glyph glyph-name="eth" unicode="&#xf0;" horiz-adv-x="500" 
d="M251 83q28 0 45 12.5t27 34t13.5 51.5t3.5 66q0 35 -3.5 65t-13.5 52t-27 34.5t-45 12.5q-27 0 -43 -12.5t-25 -34.5t-12 -52t-3 -66q0 -35 3 -65t12 -51.5t25 -34t43 -12.5zM340 633q10 -17 31 -56t42.5 -92t37.5 -116t16 -126q0 -49 -12.5 -96t-38.5 -83.5t-67 -58.5
t-98 -22q-55 0 -96 19.5t-68 54.5t-40.5 83.5t-13.5 107.5q0 61 16 110t44 83t64 52t77 18q23 0 38 -6.5t22 -11.5l2 2q-9 21 -22 48t-25 47l-92 -43q-4 -2 -8 -2q-3 0 -4.5 1.5t-3.5 6.5l-17 37q-3 6 -3 9t2 4.5t6 3.5l88 41q-5 8 -13 19.5l-16 23t-13.5 20t-5.5 10.5
q0 6 4 8.5t9 3.5l61 7q3 1 9 1q7 0 15.5 -6.5t16 -15t14 -17t10.5 -13.5l92 43l4 2t4 1q4 0 5.5 -2t3.5 -7l15 -33q2 -4 3 -6.5t1 -4.5q0 -5 -3 -6.5t-8 -3.5z" />
    <glyph glyph-name="thorn" unicode="&#xfe;" horiz-adv-x="519" 
d="M188 -174q0 -11 -5 -13.5t-14 -4.5l-84 -17q-2 0 -7 -1.5t-7 -1.5q-6 0 -8 4t-2 17v877q0 11 5 13.5t13 4.5l84 17q2 0 7 1.5t7 1.5q7 0 9 -4t2 -17v-233q15 13 42.5 27t72.5 14q84 0 128.5 -64t44.5 -191q0 -132 -43 -202.5t-141 -70.5q-44 0 -66 9t-38 17v-183z
M188 102q14 -8 29 -13.5t44 -5.5q26 0 43 9.5t27 30t14 52.5t4 76q0 78 -17 119t-64 41q-32 0 -50.5 -14t-29.5 -24v-271z" />
    <glyph glyph-name="twosuperior" unicode="&#xb2;" horiz-adv-x="370" 
d="M309 285q0 -11 -3.5 -14.5t-14.5 -3.5h-231q-14 0 -14 16q0 40 5.5 61.5t14.5 38.5q18 34 45 54.5t52 37.5t43 35.5t18 47.5q0 24 -13 34.5t-33 10.5q-22 0 -33 -9t-17 -20.5t-10.5 -20.5t-13.5 -9q-6 0 -12 3l-38 13q-4 1 -7.5 4.5t-3.5 8.5q0 10 8 28t25 35t44 29.5
t65 12.5q57 0 93 -29t36 -88q0 -34 -11.5 -57.5t-30 -41.5t-40.5 -32.5t-43 -30.5q-26 -20 -34 -32.5t-9 -24.5h145q11 0 14.5 -3.5t3.5 -14.5v-39z" />
    <glyph glyph-name="threesuperior" unicode="&#xb3;" horiz-adv-x="370" 
d="M55 603q-6 4 -6 10t8.5 16.5t24 21.5t38 19t50.5 8t52 -7.5t41.5 -21.5t27.5 -34.5t10 -45.5q0 -20 -4 -33t-11 -22t-16 -16t-19 -15q9 -5 20 -12t20.5 -18t16 -28t6.5 -42q0 -30 -12.5 -53.5t-33 -39.5t-48 -24.5t-57.5 -8.5q-18 0 -40 3t-41.5 8.5t-32.5 12t-13 14.5
q0 2 1 5l2 6l12 40q1 2 4 6t7 4q5 0 13 -4t20 -8.5t27 -8t34 -3.5q68 0 68 55q0 19 -8 29.5t-20 16t-25.5 6.5t-23.5 1h-19q-11 0 -15 3t-4 14v40q0 11 4 14.5t15 3.5h20q5 0 15.5 0.5t21 5t18.5 14t8 28.5q0 18 -12.5 29t-32.5 11q-16 0 -26.5 -5.5t-18 -11.5t-12.5 -11.5
t-10 -5.5t-10 5z" />
    <glyph glyph-name="Scaron" unicode="&#x160;" horiz-adv-x="481" 
d="M255 763q-3 -2 -6.5 -5t-7.5 -3t-7.5 3t-6.5 5l-113 89l-8 6t-4 8q0 4 2 8t4 6l19 32q5 9 8 11t6 2q4 0 7 -2t7 -4l86 -49l86 49q4 2 7 4t7 2q3 0 6 -2t8 -11l19 -32q2 -2 4 -6t2 -8q0 -5 -4 -8l-8 -6zM404 560q-5 -10 -11 -10q-2 0 -14 7t-31 15t-43.5 15t-51.5 7
q-17 0 -34 -4t-30.5 -13t-21.5 -24t-8 -37q0 -29 19.5 -47.5t50 -34t66.5 -32.5t69 -41q38 -29 62 -69.5t24 -97.5q0 -48 -16 -86.5t-44.5 -66.5t-68.5 -43t-87 -15q-38 0 -75.5 7t-67 17t-48 20t-18.5 16q0 2 1.5 6.5t3.5 9.5l23 66q3 10 11 10q2 0 16 -7t36.5 -15t52 -15
t61.5 -7q42 0 66 22.5t24 69.5q0 33 -17.5 53.5t-46 36.5t-65.5 31.5t-75 38.5q-40 24 -63.5 58.5t-23.5 96.5q0 54 18 92.5t48.5 63.5t70 36.5t83.5 11.5q36 0 70.5 -7t61.5 -17t44 -20.5t17 -16.5q0 -5 -5 -15z" />
    <glyph glyph-name="Yacute" unicode="&#xdd;" horiz-adv-x="519" 
d="M215 759q-4 -2 -7 -3t-7 -1q-5 0 -7.5 4t-5.5 10l-16 32q-2 3 -3.5 6.5t-1.5 7.5q0 5 3.5 7.5t9.5 6.5l163 96q3 2 6.5 4t7.5 2q5 0 8 -4.5t6 -9.5l31 -61q2 -3 3.5 -6.5t1.5 -7.5q0 -5 -5 -8t-11 -5zM328 21q0 -14 -4 -17.5t-17 -3.5h-93q-13 0 -17 3.5t-4 17.5v260
l-188 364q-7 12 -7 21q0 8 21 11l100 16q5 1 7 1h4q3 0 7 -2.5t8 -10.5l81 -171q8 -18 18.5 -44t21.5 -65h2q13 44 23.5 70.5t20.5 46.5l74 156q7 15 10 17.5t7 2.5q5 0 15 -2l85 -18q7 -2 12.5 -5t5.5 -8q0 -3 -2 -6.5t-5 -9.5l-186 -364v-260z" />
    <glyph glyph-name="Zcaron" unicode="&#x17d;" horiz-adv-x="500" 
d="M265 763q-3 -2 -6.5 -5t-7.5 -3t-7.5 3t-6.5 5l-113 89l-8 6t-4 8q0 4 2 8t4 6l19 32q5 9 8 11t6 2q4 0 7 -2t7 -4l86 -49l86 49q4 2 7 4t7 2q3 0 6 -2t8 -11l19 -32q2 -2 4 -6t2 -8q0 -5 -4 -8l-8 -6zM471 18q-2 -13 -5.5 -15.5t-16.5 -2.5h-401q-11 0 -14 3t-3 14v83
l269 465h-246q-14 0 -14 12v4q0 2 2 8l20 78q3 11 6 14.5t16 3.5h344q14 0 17.5 -3.5t3.5 -16.5v-90l-267 -455h288q14 -3 14 -12q0 -2 -0.5 -4.5l-1.5 -7.5z" />
    <glyph glyph-name="scaron" unicode="&#x161;" horiz-adv-x="426" 
d="M228 572q-3 -2 -6.5 -5t-7.5 -3t-7.5 3t-6.5 5l-113 89l-8 6t-4 8q0 4 2 8t4 6l19 32q5 9 8 11t6 2q4 0 7 -2t7 -4l86 -49l86 49q4 2 7 4t7 2q3 0 6 -2t8 -11l19 -32q2 -2 4 -6t2 -8q0 -5 -4 -8l-8 -6zM354 394q-4 -9 -8 -9q-1 0 -10.5 4t-25 9t-36 9t-44.5 4
q-29 0 -47.5 -11t-18.5 -37q0 -20 15 -31t38.5 -20t52 -18.5t55.5 -27.5q29 -20 48 -49t19 -73q0 -35 -12 -64t-34 -51t-53.5 -34t-71.5 -12q-28 0 -60.5 6.5t-61 16t-47.5 21t-19 21.5q0 2 2 6t3 7l22 57q4 9 8 9q1 0 15 -7t34.5 -15t45.5 -15t48 -7q25 0 43 11.5t18 38.5
q0 22 -16.5 34.5t-41 22t-53 19t-53.5 26.5q-23 15 -41 42t-18 71q0 34 12.5 64t35.5 52t55.5 34.5t73.5 12.5q23 0 50 -4.5t50.5 -11.5t39.5 -15.5t16 -17.5q0 -2 -1.5 -6t-3.5 -7z" />
    <glyph glyph-name="yacute" unicode="&#xfd;" horiz-adv-x="481" 
d="M196 568q-4 -2 -7 -3t-7 -1q-5 0 -7.5 4t-5.5 10l-16 32q-2 3 -3.5 6.5t-1.5 7.5q0 5 3.5 7.5t9.5 6.5l163 96q3 2 6.5 4t7.5 2q5 0 8 -4.5t6 -9.5l31 -61q2 -3 3.5 -6.5t1.5 -7.5q0 -5 -5 -8t-11 -5zM336 482q2 8 6 14.5t11 6.5q3 0 9.5 -0.5t8.5 -0.5l70 -9
q11 -2 16.5 -3.5t5.5 -6.5q0 -3 -1.5 -7.5l-3.5 -10.5l-98 -361q-7 -24 -15 -54t-17 -60.5t-18 -58.5t-17 -49q-11 -27 -27.5 -45.5t-36 -29t-41 -15t-42.5 -4.5t-44.5 4.5t-44 11.5t-34 15t-13.5 15q0 4 4 12l30 65q3 7 9 7q4 0 11.5 -4t18.5 -8.5t24.5 -8.5t30.5 -4
q19 0 32.5 5.5t22.5 15.5t14.5 23.5t10.5 29.5l10 33h-42q-10 0 -13 3t-5 10l-153 452q-1 2 -2.5 7t-2.5 10q0 6 5.5 7.5t16.5 3.5l83 9q2 0 8 0.5t8 0.5q6 0 9 -6t5 -14l65 -242q4 -17 10 -41.5t11.5 -49.5t10 -47t6.5 -35h2q2 15 7 41t10 53t9.5 49.5t6.5 29.5z" />
    <glyph glyph-name="zcaron" unicode="&#x17e;" horiz-adv-x="426" 
d="M228 572q-3 -2 -6.5 -5t-7.5 -3t-7.5 3t-6.5 5l-113 89l-8 6t-4 8q0 4 2 8t4 6l19 32q5 9 8 11t6 2q4 0 7 -2t7 -4l86 -49l86 49q4 2 7 4t7 2q3 0 6 -2t8 -11l19 -32q2 -2 4 -6t2 -8q0 -5 -4 -8l-8 -6zM381 13q-2 -6 -6.5 -9.5t-7.5 -3.5h-333q-10 0 -10 10v75l230 304
h-202q-7 0 -7 13v78q0 14 14 14h317q6 0 11.5 -2.5t5.5 -7.5v-78l-226 -301h228q14 0 16.5 -4t2.5 -6q0 -4 -1.5 -6.5t-2.5 -4.5z" />
    <glyph glyph-name="Euro" unicode="&#x20ac;" 
d="M33 278q2 10 9 16q5 3 8.5 3.5t8.5 0.5h41q-1 12 -1 24v27h-54q-10 0 -15 1.5t0 18.5l3 12q2 5 3 8.5t6 7.5t9 4h9h42q1 48 14.5 98.5t42.5 91.5t74.5 67.5t111.5 26.5q10 0 36 -4t53 -11t47.5 -17.5t20.5 -23.5q0 -3 -0.5 -5t-1.5 -5l-19 -65q-1 -2 -3.5 -6t-10.5 -4
q-23 0 -34 2.5t-17 6t-9 8t-9 8t-17 6t-33 2.5q-14 0 -34.5 -5t-39 -23t-32.5 -53t-15 -95h191q5 0 12 -2t3 -18l-3 -11q-3 -12 -9 -16.5t-18 -4.5h-177v-26q0 -12 2 -25h162q15 0 15.5 -6.5t-1.5 -13.5l-3 -12q-2 -7 -6 -13.5t-20 -6.5h-143q0 -23 5 -50t18.5 -50.5t37 -39
t59.5 -15.5q21 0 37 5.5t28.5 12.5t22.5 12.5t19 5.5t13 -10l30 -56q2 -2 3.5 -6.5t1.5 -8.5q0 -9 -12.5 -19.5t-34.5 -20.5t-51.5 -16.5t-63.5 -6.5q-70 0 -115.5 26t-72.5 65t-39 85t-15 87h-59q-8 0 -13 2t-1 18z" />
    <glyph glyph-name="Omega" unicode="&#x3a9;" horiz-adv-x="768" 
d="M330 0h-295v163h16q5 -19 10 -31t13 -18.5t19.5 -8.5t29.5 -2h148v14q-79 23 -122 57q-22 18 -39.5 42t-30 52t-19 59t-6.5 61q0 74 39 143q40 69 115.5 106.5t175.5 37.5q101 0 175 -37q77 -38 115 -107q40 -68 40 -143q0 -60 -26 -120q-25 -59 -69 -93.5t-121 -57.5
v-14h148q18 0 29.5 2t19 8.5t12.5 18.5t10 31h17v-163h-296l16 142q60 23 90 64q51 70 51 183q0 126 -56 189t-152 63q-100 0 -150 -56q-63 -71 -63 -195q0 -72 19.5 -126t55.5 -85q22 -22 66 -37z" />
    <glyph glyph-name="Delta" unicode="&#x394;" horiz-adv-x="612" 
d="M599 0h-586l306 677zM483 40l-194 472l-215 -472h409z" />
    </font>
</defs>
</svg>
