<?xml version="1.0" standalone="no"?>
<!DOCTYPE svg PUBLIC "-//W3C//DTD SVG 1.1//EN" "http://www.w3.org/Graphics/SVG/1.1/DTD/svg11.dtd" >
<svg xmlns="http://www.w3.org/2000/svg">
<metadata>
This is a custom SVG webfont generated by Font Squirrel.
Copyright   : Copyright C 1993 Type Market Ltd Moscow 119136 Box 20 phone0952071022 Created by AKustov
</metadata>
<defs>
<font id="RodeoCRegular" horiz-adv-x="1757" >
<font-face units-per-em="2048" ascent="1550" descent="-498" />
<missing-glyph horiz-adv-x="522" />
<glyph unicode=" "  horiz-adv-x="522" />
<glyph unicode="&#x09;" horiz-adv-x="522" />
<glyph unicode="&#xa0;" horiz-adv-x="522" />
<glyph unicode="!" horiz-adv-x="579" d="M172 0v256h246v-256h-246zM193 1001v461h194v-461l-43 -608h-108z" />
<glyph unicode="&#x22;" horiz-adv-x="630" d="M92 907v572h144v-572h-144zM395 907v572h144v-572h-144z" />
<glyph unicode="#" horiz-adv-x="1624" d="M92 463l55 149h318l94 273h-338l51 149h342l168 469h170l-166 -469h263l170 469h167l-163 -469h309l-51 -149h-314l-94 -273h330l-51 -149h-332l-166 -463h-172l168 463h-266l-168 -463h-170l164 463h-318zM637 612h266l96 273h-268z" />
<glyph unicode="$" horiz-adv-x="1042" d="M57 1092q0 168 111 273t291 105v156h112v-164q102 -25 181 -102v96h155v-381h-155v107q-66 92 -181 131v-463l103 -33q145 -47 226 -151.5t81 -255.5q0 -186 -109.5 -299t-300.5 -121v-174h-112v182q-119 20 -221 111v-91h-166v443h166v-133q88 -125 221 -166v526 l-113 37q-289 97 -289 367zM231 1112q0 -94 52.5 -147.5t175.5 -90.5v455q-111 -10 -169.5 -67.5t-58.5 -149.5zM571 154q236 29 236 245q0 209 -236 273v-518z" />
<glyph unicode="%" horiz-adv-x="1505" d="M57 1063q0 201 78 313.5t207 112.5q127 0 206 -113.5t79 -312.5t-79 -311.5t-206 -112.5q-129 0 -207 112.5t-78 311.5zM205 1063q0 -137 39 -214t98 -77t98 77t39 214q0 139 -38 216t-99 77t-99 -77t-38 -216zM233 -31l893 1520h144l-893 -1520h-144zM877 393 q0 201 77.5 313.5t206.5 112.5q127 0 206 -113.5t79 -312t-79 -311.5t-206 -113q-129 0 -206.5 112.5t-77.5 311.5zM1024 393q0 -137 39 -214t98.5 -77t98 77t38.5 214q0 139 -37.5 216t-99 77t-99.5 -77t-38 -216z" />
<glyph unicode="&#x26;" horiz-adv-x="1495" d="M96 449q0 315 322 464q-78 170 -78 258q0 139 91 228.5t241 89.5q160 0 250 -85t90 -228q0 -117 -76 -198t-236 -138l293 -396q84 164 119 340h295v-184h-160q-41 -152 -137 -309l88 -117h209v-174h-322l-100 133q-172 -164 -395 -164q-213 0 -353.5 136.5t-140.5 343.5z M305 477q0 -131 92 -225t224 -94q137 0 262 116l-363 488q-102 -37 -158.5 -112t-56.5 -173zM522 1184q0 -80 76 -203q121 35 176 82t55 121q0 68 -43 108.5t-114 40.5q-68 0 -109 -39.5t-41 -109.5z" />
<glyph unicode="'" horiz-adv-x="325" d="M92 907v572h144v-572h-144z" />
<glyph unicode="(" horiz-adv-x="790" d="M217 579.5q0 354.5 142.5 591t398.5 318.5v-135q-338 -186 -338 -774q0 -301 81 -489.5t257 -285.5v-137q-256 84 -398.5 320.5t-142.5 591z" />
<glyph unicode=")" horiz-adv-x="790" d="M39 -197q338 186 338 775q0 301 -81 490t-257 286v135q258 -84 399.5 -319.5t141.5 -590t-142.5 -592t-398.5 -319.5v135z" />
<glyph unicode="*" horiz-adv-x="948" d="M123 1180l49 143l242 -96l-17 262h152l-17 -262l244 96l47 -143l-256 -66l170 -201l-123 -90l-141 221l-139 -221l-123 90l168 201z" />
<glyph unicode="+" d="M260 557v143h545v557h145v-557h545v-143h-545v-557h-145v557h-545z" />
<glyph unicode="," horiz-adv-x="524" d="M131 0v256h246v-256q0 -279 -246 -293v115q68 14 92.5 46t24.5 99v33h-117z" />
<glyph unicode="." horiz-adv-x="524" d="M139 0v256h246v-256h-246z" />
<glyph unicode="/" horiz-adv-x="645" d="M-55 -197l567 1686h131l-567 -1686h-131z" />
<glyph unicode="0" horiz-adv-x="1042" d="M72 729q0 367 118.5 563.5t329.5 196.5q215 0 334 -201t119 -579q0 -350 -123 -545t-330 -195q-211 0 -329.5 196.5t-118.5 563.5zM268 739.5q0 -286.5 70 -440.5t184 -154q113 0 182.5 150.5t69.5 421.5q0 301 -66.5 458.5t-185.5 157.5q-117 0 -185.5 -153.5 t-68.5 -440z" />
<glyph unicode="1" horiz-adv-x="1042" d="M242 0v182h190v1102h-190v178h385v-1280h182v-182h-567z" />
<glyph unicode="2" horiz-adv-x="1044" d="M51 0v20q0 315 201 517q68 68 188.5 159.5t132.5 102.5q80 68 114 131t34 155q0 109 -59.5 172.5t-157.5 63.5q-125 0 -183.5 -96.5t-58.5 -300.5h-186q0 272 113.5 418.5t334.5 146.5q182 0 294 -110.5t112 -295.5q0 -164 -96 -282q-51 -61 -110.5 -111.5t-137.5 -105 t-105 -74.5q-209 -170 -221 -328h498v336h180v-518h-887z" />
<glyph unicode="3" horiz-adv-x="1044" d="M59 469v18h187v-8q0 -166 70.5 -258t191.5 -92q111 0 184.5 77t73.5 195q0 285 -336 285h-49v170h35q150 0 228.5 63.5t78.5 182.5q0 104 -58.5 165.5t-158.5 61.5q-225 0 -225 -303v-8h-183v37q0 203 108.5 318.5t295.5 115.5q193 0 305.5 -105.5t112.5 -275.5 q0 -236 -228 -328q139 -51 202.5 -140t63.5 -232q0 -197 -124.5 -318t-333.5 -121q-205 0 -323 132t-118 368z" />
<glyph unicode="4" horiz-adv-x="1044" d="M29 580l573 909h182v-909h207v-164h-207v-236h142v-180h-482v180h164v236h-502q-11 101 -77 164zM205 580h403v661z" />
<glyph unicode="5" horiz-adv-x="1044" d="M53 449v30h191v-10q0 -154 62.5 -236.5t176.5 -82.5q121 0 194 88t73 239q0 143 -69 221t-189 78q-172 0 -252 -166l-140 111l76 741h698v-393h-169v213h-396l-41 -418q125 92 264 92q190 0 303 -127t113 -344q0 -231 -127 -373.5t-338 -142.5q-203 0 -316.5 126.5 t-113.5 353.5z" />
<glyph unicode="6" horiz-adv-x="1042" d="M74 690q0 391 128 595t363 204q182 0 286.5 -104.5t104.5 -286.5v-33h-172q0 268 -221 268q-291 0 -291 -542q160 141 320 141q170 0 276.5 -129t106.5 -348t-123 -352.5t-317 -133.5q-223 0 -342 183.5t-119 537.5zM272 539q0 -188 74 -292t199 -104q111 0 182.5 84 t71.5 226q0 147 -66.5 230t-181.5 83q-141 0 -279 -154v-73z" />
<glyph unicode="7" horiz-adv-x="1044" d="M90 1063v399h887v-147q-387 -606 -387 -1135h172v-180h-553v180h172q0 463 381 1102h-506v-219h-166z" />
<glyph unicode="8" horiz-adv-x="1042" d="M57 391q0 291 248 383q-102 39 -158.5 126t-56.5 206q0 168 120 275.5t312.5 107.5t312 -107.5t119.5 -275.5q0 -119 -56 -206t-159 -126q248 -92 248 -383q0 -182 -130 -302t-335 -120t-335 120t-130 302zM258 418q0 -111 77 -187.5t187 -76.5q113 0 187.5 76.5 t74.5 187t-75.5 186.5t-188.5 76q-111 0 -186.5 -76.5t-75.5 -185.5zM283 1095.5q0 -98.5 68.5 -167t168.5 -68.5q102 0 171 68.5t69 167t-68.5 168t-171 69.5t-170 -69.5t-67.5 -168z" />
<glyph unicode="9" horiz-adv-x="1044" d="M61 1004q0 219 123 352t318 133q223 0 342 -182.5t119 -536.5q0 -397 -129 -599t-379 -202q-172 0 -273.5 105.5t-101.5 290.5v28h172q0 -268 221 -268q141 0 216 133t75 389v21q-158 -139 -320 -140q-170 0 -276.5 129.5t-106.5 346.5zM238 1008q0 -147 67.5 -231.5 t181.5 -84.5q133 0 277 156v74q0 188 -73 291.5t-197 103.5q-111 0 -183.5 -84t-72.5 -225z" />
<glyph unicode=":" horiz-adv-x="571" d="M162 0v256h246v-256h-246zM162 772v256h246v-256h-246z" />
<glyph unicode=";" horiz-adv-x="571" d="M160 0v256h246v-256q0 -279 -246 -293v115q68 14 92 46t24 99v33h-116zM160 772v256h246v-256h-246z" />
<glyph unicode="&#x3c;" d="M270 563v133l1215 498v-158l-1000 -407l1000 -406v-157z" />
<glyph unicode="=" d="M260 352v144h1235v-144h-1235zM260 762v143h1235v-143h-1235z" />
<glyph unicode="&#x3e;" d="M270 66v157l1002 406l-1002 407v158l1215 -498v-133z" />
<glyph unicode="?" horiz-adv-x="987" d="M49 1040v27q0 197 115 310.5t309 113.5q188 0 307 -111.5t119 -275.5q0 -172 -104.5 -280.5t-294.5 -129.5l-19 -278h-114l-25 454q43 -12 74 -12q135 0 208.5 64.5t73.5 179.5q0 98 -63.5 161.5t-165.5 63.5q-106 0 -168.5 -69.5t-62.5 -192.5v-25h-189zM309 0v256h246 v-256h-246z" />
<glyph unicode="@" horiz-adv-x="2109" d="M111 539q0 279 140 503t376.5 346.5t521.5 122.5q360 0 606 -198.5t246 -507.5q0 -276 -163 -480t-417 -204q-207 0 -207 162v20q-111 -180 -309 -180q-158 0 -240.5 88t-82.5 254q0 244 142 406.5t349 162.5q174 0 250 -153l59 118h136l-152 -593q-8 -33 -8 -62 q0 -96 104 -96q156 0 272.5 172t116.5 366q0 264 -194.5 431t-515.5 167q-379 0 -631 -243.5t-252 -603.5q0 -332 222 -525.5t579 -193.5q360 0 639 196l57 -86q-305 -229 -684 -229q-424 0 -692 228.5t-268 611.5zM748 461q0 -109 50 -167t140 -58q98 0 179 69.5t108 183.5 l61 244q-16 92 -69.5 141.5t-135.5 49.5q-141 0 -237 -134t-96 -329z" />
<glyph unicode="A" horiz-adv-x="1529" d="M41 0v180h166l385 1102h-191v180h732v-180h-179l377 -1102h158v-180h-547v180h176l-114 338h-494l-111 -338h164v-180h-522zM573 694h369l-182 545z" />
<glyph unicode="B" horiz-adv-x="1241" d="M51 0v180h172v1102h-172v180h586q223 0 338 -95t115 -277q0 -113 -52.5 -187t-167.5 -125q299 -88 299 -366q0 -201 -127 -306.5t-376 -105.5h-615zM432 180h205q152 0 233.5 66.5t81.5 183.5t-89 182.5t-259 65.5h-172v-498zM432 850h154q295 0 295 211q0 221 -281 221 h-168v-432z" />
<glyph unicode="C" horiz-adv-x="1585" d="M72 729q0 336 207.5 548t525.5 212q160 0 273.5 -51.5t199.5 -161.5v186h180v-469h-194q-129 299 -443 299q-231 0 -377.5 -153.5t-146.5 -407.5t144.5 -409.5t361.5 -155.5q176 0 317.5 113.5t204.5 310.5l180 -109q-72 -240 -258 -376t-442 -136q-322 0 -527.5 213 t-205.5 547z" />
<glyph unicode="D" horiz-adv-x="1509" d="M51 0v180h172v1102h-172v180h670q344 0 530.5 -189.5t186.5 -535.5q0 -348 -186.5 -542.5t-530.5 -194.5h-670zM432 180h268q252 0 382 143.5t130 413.5q0 262 -124.5 403.5t-356.5 141.5h-299v-1102z" />
<glyph unicode="E" horiz-adv-x="1308" d="M51 0v180h172v1102h-172v180h1196v-434h-178v254h-637v-412h569v-176h-569v-514h637v287h178v-467h-1196z" />
<glyph unicode="F" horiz-adv-x="1212" d="M51 0v180h172v1102h-172v180h1110v-434h-176v254h-553v-412h490v-176h-490v-514h172v-180h-553z" />
<glyph unicode="G" horiz-adv-x="1599" d="M72 729q0 336 207.5 548t525.5 212q160 0 273.5 -51.5t199.5 -161.5v186h180v-469h-194q-129 299 -443 299q-231 0 -377.5 -153.5t-146.5 -407.5t144.5 -409.5t361.5 -155.5q438 0 489 360h-268v183h500q4 -41 4 -62q0 -311 -197.5 -494.5t-525.5 -183.5 q-322 0 -527.5 213t-205.5 547z" />
<glyph unicode="H" horiz-adv-x="1499" d="M51 0v180h172v1102h-172v180h553v-180h-172v-412h635v412h-172v180h553v-180h-172v-1102h172v-180h-553v180h172v514h-635v-514h172v-180h-553z" />
<glyph unicode="I" horiz-adv-x="655" d="M51 0v180h172v1102h-172v180h553v-180h-172v-1102h172v-180h-553z" />
<glyph unicode="J" horiz-adv-x="655" d="M-59 -152q41 -8 98 -8q113 0 148.5 81t35.5 263v1098h-172v180h553v-180h-172v-1182q0 -227 -82 -334.5t-276 -107.5q-76 0 -133 12v178z" />
<glyph unicode="K" horiz-adv-x="1366" d="M51 0v180h172v1102h-172v180h553v-180h-172v-504l498 504h-160v180h547v-180h-150l-475 -494l482 -608h172v-180h-574v180h146l-486 598v-598h172v-180h-553z" />
<glyph unicode="L" horiz-adv-x="1208" d="M51 0v180h172v1102h-172v180h553v-180h-172v-1102h526v504h179v-684h-1086z" />
<glyph unicode="M" horiz-adv-x="1914" d="M51 0v180h172v1102h-172v180h510l404 -1038l413 1038h486v-180h-172v-1102h172v-180h-553v180h172v1106l-522 -1286h-43l-510 1288v-1108h172v-180h-529z" />
<glyph unicode="N" horiz-adv-x="1583" d="M51 0v180h172v1102h-172v180h459l661 -1140v960h-172v180h533v-180h-172v-1282h-240l-712 1243v-1063h172v-180h-529z" />
<glyph unicode="O" horiz-adv-x="1607" d="M72 729q0 336 207.5 548t525.5 212q324 0 527.5 -213t203.5 -547t-205 -547t-526.5 -213t-527 213t-205.5 547zM297 731q0 -254 144.5 -409.5t361.5 -155.5q219 0 363.5 155.5t144.5 409.5q0 250 -143.5 405.5t-364.5 155.5q-215 0 -360.5 -154.5t-145.5 -406.5z" />
<glyph unicode="P" horiz-adv-x="1273" d="M51 0v180h172v1102h-172v180h588q289 0 426 -106.5t137 -340t-137 -344t-426 -110.5h-207v-381h172v-180h-553zM432 735h176q190 0 279.5 61.5t89.5 213t-88 212t-281 60.5h-176v-547z" />
<glyph unicode="Q" horiz-adv-x="1607" d="M72 731q0 334 208.5 546t524.5 212q326 0 528.5 -212t202.5 -546q0 -295 -164 -500.5t-432 -246.5q201 -61 272 -62q29 0 84 10l-59 -186q-20 -10 -51 -10q-117 0 -276.5 64.5t-207.5 64.5q-76 0 -159 -55l-72 102q59 66 139 82q-246 59 -392 258.5t-146 478.5zM297 731 q0 -254 144.5 -409.5t361.5 -155.5q219 0 363.5 155.5t144.5 409.5q0 250 -143.5 405.5t-364.5 155.5q-215 0 -360.5 -154.5t-145.5 -406.5z" />
<glyph unicode="R" horiz-adv-x="1316" d="M51 0v180h172v1102h-172v180h625q233 0 357 -97t124 -280q0 -143 -78 -238t-215 -124l252 -543h160v-180h-293l-332 705h-219v-525h172v-180h-553zM432 864h166q170 0 252 49.5t82 157.5q0 121 -76 166t-244 45h-180v-418z" />
<glyph unicode="S" horiz-adv-x="1157" d="M106 0v502h187v-131q115 -213 319 -213q106 0 174 63.5t68 165.5q0 180 -190 246l-261 86q-145 47 -221 144.5t-76 232.5q0 172 114 282.5t290 110.5q182 0 317 -123v96h174v-420h-174v109q-129 158 -299 158q-98 0 -158.5 -54.5t-60.5 -144.5q0 -78 43 -126t142 -83 l251 -88q319 -111 320 -416q0 -193 -122 -310.5t-329 -117.5q-180 0 -321 123v-92h-187z" />
<glyph unicode="T" horiz-adv-x="1286" d="M72 895v567h1142v-567h-176v387h-290v-1102h172v-180h-553v180h172v1102h-291v-387h-176z" />
<glyph unicode="U" horiz-adv-x="1484" d="M51 1282v180h553v-180h-172v-780q0 -172 74 -254t231 -82q166 0 245 83t79 253v780h-172v180h545v-180h-172v-678q0 -334 -117 -484.5t-408 -150.5q-289 0 -401.5 149.5t-112.5 485.5v678h-172z" />
<glyph unicode="V" horiz-adv-x="1531" d="M41 1282v180h541v-180h-152l344 -1003l344 1003h-168v180h541v-180h-182l-443 -1282h-219l-438 1282h-168z" />
<glyph unicode="W" horiz-adv-x="2070" d="M41 1282v180h543v-180h-183l252 -979l238 979h-184v180h661v-180h-182l254 -979l237 979h-182v180h535v-180h-183l-319 -1282h-195l-309 1159l-285 -1159h-194l-348 1282h-156z" />
<glyph unicode="X" horiz-adv-x="1452" d="M68 0v180h165l377 551l-366 551h-176v180h559v-180h-123l233 -360l244 360h-170v180h539v-180h-154l-350 -524l377 -578h174v-180h-586v180h162l-254 391l-256 -391h164v-180h-559z" />
<glyph unicode="Y" horiz-adv-x="1454" d="M41 1282v180h584v-180h-160l274 -432l285 432h-182v180h571v-180h-180l-406 -612v-490h172v-180h-553v180h172v490l-399 612h-178z" />
<glyph unicode="Z" horiz-adv-x="1146" d="M51 0v184l742 1098h-525v-254h-176v434h963v-178l-748 -1104h602v279h176v-459h-1034z" />
<glyph unicode="[" horiz-adv-x="790" d="M274 -309v1773h486v-143h-293v-1487h293v-143h-486z" />
<glyph unicode="\" horiz-adv-x="645" d="M-10 1489h131l567 -1686h-131z" />
<glyph unicode="]" horiz-adv-x="790" d="M31 -166h293v1487h-293v143h485v-1773h-485v143z" />
<glyph unicode="^" horiz-adv-x="2109" d="M432 928l526 573h191l526 -573h-186l-434 432l-437 -432h-186z" />
<glyph unicode="_" horiz-adv-x="1052" d="M-2 -350h1057v-148h-1057v148z" />
<glyph unicode="`" horiz-adv-x="1054" d="M258 1528h207l211 -361h-125z" />
<glyph unicode="a" horiz-adv-x="1093" d="M61 297q0 152 100.5 245t264.5 93q113 0 295 -74v62q0 137 -53.5 202.5t-165.5 65.5q-154 0 -248 -131l-180 45q49 119 163.5 184.5t278.5 65.5q215 0 302 -102.5t87 -325.5v-447h148v-180h-332v94q-152 -125 -322 -125q-152 0 -245 91.5t-93 236.5zM266 305 q0 -61 46 -103t120 -42q121 0 289 125v80q-147 90 -258 90q-90 0 -143.5 -41t-53.5 -109z" />
<glyph unicode="b" horiz-adv-x="1236" d="M33 0v180h147v1110h-147v172h332v-588q160 154 348 154q205 0 334 -143.5t129 -385t-129 -386t-334 -144.5q-190 0 -348 152v-121h-332zM365 504q0 -164 81.5 -257t223.5 -93q133 0 219 95t86 255q0 166 -84 259t-225 93q-139 0 -220 -93t-81 -259z" />
<glyph unicode="c" horiz-adv-x="1122" d="M61 512q0 240 141.5 391.5t356.5 151.5q172 0 303 -117v90h166v-383h-166q-55 229 -274 229q-147 0 -232.5 -96t-85.5 -264q0 -166 86 -260t230 -94q217 0 325 207l162 -80q-59 -145 -189 -231.5t-298 -86.5q-231 0 -378 148.5t-147 394.5z" />
<glyph unicode="d" horiz-adv-x="1243" d="M61 499.5q0 241.5 128 385t333 143.5q188 0 348 -154v416h-147v172h332v-1282h147v-180h-332v119q-156 -150 -348 -150q-205 0 -333 144.5t-128 386zM260 504q0 -164 82 -257t223 -93q133 0 219 95t86 255q0 166 -84 259t-225 93q-139 0 -220 -93t-81 -259z" />
<glyph unicode="e" horiz-adv-x="1136" d="M61 512q0 246 143.5 394.5t370.5 148.5q236 0 368 -156t132 -440h-807q0 -135 90.5 -217t231.5 -82q213 0 328 182l161 -86q-160 -287 -491 -287q-240 0 -383.5 147.5t-143.5 395.5zM285 618h581q-16 127 -91 196t-199.5 69t-199.5 -68t-91 -197z" />
<glyph unicode="f" horiz-adv-x="626" d="M41 0v180h147v678h-147v172h147v111q0 180 58.5 264t189.5 84q233 0 256 -248l-168 -22q-12 59 -28.5 82.5t-51.5 23.5q-43 0 -57 -42t-14 -146v-107h147v-172h-147v-678h147v-180h-479z" />
<glyph unicode="g" horiz-adv-x="1245" d="M61 514q0 242 123 378t353 136q111 0 181 -30.5t154 -116.5v147h332v-172h-147v-704q0 -274 -130 -396.5t-349 -122.5q-231 0 -406 129l117 136q133 -106 293 -107q291 0 290 307v62q-129 -170 -348 -170q-205 0 -334 143t-129 381zM262 512q0 -162 82 -252t223 -90 q131 0 218 91t87 249t-89 252t-220 94q-141 0 -221 -91t-80 -253z" />
<glyph unicode="h" horiz-adv-x="1155" d="M41 0v180h147v1110h-147v172h332v-585q184 152 346 151q152 0 200 -87t48 -279v-482h147v-180h-332v586q0 154 -22.5 212t-110.5 58q-135 0 -276 -149v-527h147v-180h-479z" />
<glyph unicode="i" horiz-adv-x="561" d="M41 0v180h147v676h-147v172h332v-848h147v-180h-479zM147 1337q0 47 35 81t82 34t82 -34t35 -81q0 -51 -34 -84.5t-83 -33.5t-83 33.5t-34 84.5z" />
<glyph unicode="j" horiz-adv-x="516" d="M-39 -188q37 -6 64 -7q96 0 129.5 39t33.5 136v878h-147v172h332v-1102q0 -113 -72 -204t-221 -91q-51 0 -119 11v168zM147 1337q0 47 35 81t82 34t82 -34t35 -81q0 -51 -34 -84.5t-83 -33.5t-83 33.5t-34 84.5z" />
<glyph unicode="k" horiz-adv-x="1150" d="M41 0v180h147v1110h-147v172h332v-1282h147v-180h-479zM379 539l379 317h-135v172h471v-172h-119l-361 -303l353 -373h147v-180h-235z" />
<glyph unicode="l" horiz-adv-x="561" d="M41 0v180h147v1110h-147v172h332v-1282h147v-180h-479z" />
<glyph unicode="m" horiz-adv-x="1753" d="M41 0v180h147v676h-147v172h332v-158q190 158 346 158q207 0 248 -151q184 152 346 151q152 0 200 -87t48 -279v-482h147v-180h-332v586q0 154 -22.5 212t-110.5 58q-135 0 -276 -149v-527h147v-180h-332v586q0 154 -22.5 212t-110.5 58q-135 0 -276 -149v-527h147v-180 h-479z" />
<glyph unicode="n" horiz-adv-x="1155" d="M41 0v180h147v676h-147v172h332v-151q184 152 346 151q152 0 200 -87t48 -279v-482h147v-180h-332v586q0 154 -22.5 212t-110.5 58q-135 0 -276 -149v-527h147v-180h-479z" />
<glyph unicode="o" horiz-adv-x="1150" d="M61 512q0 246 143.5 394.5t371 148.5t371 -148.5t143.5 -394.5t-143.5 -394.5t-371 -148.5t-371 148.5t-143.5 394.5zM270 510q0 -164 82 -257t223 -93q133 0 219.5 95t86.5 255q0 166 -84 259t-226 93q-139 0 -220 -93t-81 -259z" />
<glyph unicode="p" horiz-adv-x="1253" d="M41 -162h147v1018h-147v172h332v-151q166 152 344 151q207 0 341 -143.5t134 -384.5q0 -240 -134 -385.5t-341 -145.5q-184 0 -344 154v-285h147v-180h-479v180zM373 504q0 -164 82 -257t223 -93q133 0 219 95t86 255q0 166 -84 259t-225 93q-139 0 -220 -93t-81 -259z " />
<glyph unicode="q" horiz-adv-x="1243" d="M61 499.5q0 241.5 127 385t332 143.5q190 0 350 -151v151h332v-172h-147v-1018h147v-180h-479v180h147v281q-156 -150 -350 -150q-203 0 -331 144.5t-128 386zM260 504q0 -164 82 -257t223 -93q133 0 219 95t86 255q0 166 -84 259t-225 93q-139 0 -220 -93t-81 -259z" />
<glyph unicode="r" horiz-adv-x="821" d="M41 0v180h147v676h-147v172h332v-192q51 115 120.5 153.5t196.5 38.5h80v-172h-78q-170 0 -244.5 -99.5t-74.5 -303.5v-273h147v-180h-479z" />
<glyph unicode="s" horiz-adv-x="968" d="M72 745q0 131 101 220.5t257 89.5q160 0 275 -105v78h157v-334h-157q-8 92 -80 147.5t-185 55.5q-82 0 -129 -36t-47 -95q0 -55 40 -85t126 -48l176 -37q291 -61 291 -293q0 -150 -102.5 -242t-274.5 -92q-168 0 -278 101v-70h-166v348h166q10 -100 80.5 -157.5 t185.5 -57.5q92 0 146.5 40t54.5 101q0 57 -44 89t-143 53l-160 35q-290 63 -290 294z" />
<glyph unicode="t" horiz-adv-x="593" d="M29 858v172h135v135l184 156v-291h195v-172h-195v-571q0 -72 18.5 -102.5t65.5 -30.5q43 0 111 28v-178q-86 -35 -164 -35q-133 0 -174 65.5t-41 217.5v606h-135z" />
<glyph unicode="u" horiz-adv-x="1157" d="M41 856v172h332v-637q0 -141 23.5 -195.5t109.5 -54.5q133 0 278 154v561h-147v172h332v-848h147v-180h-332v123q-186 -154 -348 -154q-152 0 -200 88t-48 283v516h-147z" />
<glyph unicode="v" horiz-adv-x="1165" d="M37 856v172h479v-172h-139l209 -582l225 582h-143v172h456v-172h-143l-330 -856h-159l-314 856h-141z" />
<glyph unicode="w" horiz-adv-x="1656" d="M37 856v172h397v-172h-90l176 -571l187 571h-109v172h465v-172h-92l178 -571l188 571h-110v172h389v-172h-103l-313 -856h-147l-232 745l-250 -745h-145l-281 856h-108z" />
<glyph unicode="x" horiz-adv-x="1118" d="M37 0v176h135l283 334l-308 346h-90v172h430v-172h-116l198 -217l189 217h-131v172h407v-172h-88l-272 -326l321 -354h82v-176h-430v176h115l-205 227l-192 -227h124v-176h-452z" />
<glyph unicode="y" horiz-adv-x="1130" d="M37 856v172h432v-172h-119l228 -571l221 571h-119v172h410v-172h-121l-461 -1198h-350v172h245l78 203l-327 823h-117z" />
<glyph unicode="z" horiz-adv-x="978" d="M51 0v201l633 669h-420v-221h-170v379h813v-194l-631 -666h451v217h180v-385h-856z" />
<glyph unicode="{" horiz-adv-x="1054" d="M174 473v150h47q135 0 189.5 62.5t54.5 213.5v254q0 227 79 298t312 71h37v-154h-41q-129 0 -169 -48t-40 -190v-247q0 -156 -42 -229.5t-165 -106.5q123 -33 165 -106.5t42 -229.5v-248q0 -139 40 -188t171 -49h39v-152h-45q-227 0 -305 66.5t-78 283.5v271 q0 152 -55.5 215t-190.5 63h-45z" />
<glyph unicode="|" horiz-adv-x="1052" d="M451 -498v2110h153v-2110h-153z" />
<glyph unicode="}" horiz-adv-x="1054" d="M164 -274h39q131 0 171 49t40 190v246q0 156 42 229.5t165 106.5q-123 33 -165 106.5t-42 229.5v247q0 139 -41 188.5t-170 49.5h-39v154h37q223 0 307 -62.5t84 -269.5v-291q0 -152 54 -214t190 -62h47v-150h-45q-137 0 -191.5 -63.5t-54.5 -214.5v-277 q0 -217 -77 -280.5t-306 -63.5h-45v152z" />
<glyph unicode="~" d="M184 465v160q217 147 400 147q131 0 317 -70.5t277 -70.5q170 0 399 162v-160q-211 -145 -401 -146q-102 0 -292 71t-302 71q-162 0 -398 -164z" />
<glyph unicode="&#xa9;" d="M121 750q0 305 217 532t541 227q326 0 543.5 -223t217.5 -536q0 -315 -227 -537.5t-534.5 -222.5t-532.5 226.5t-225 533.5zM221 749.5q0 -266.5 195.5 -462t464.5 -195.5q266 0 461.5 183.5t195.5 474.5q0 289 -191.5 474t-466 185t-467 -196.5t-192.5 -463zM477 756 q0 207 114 332.5t294 125.5q147 0 244.5 -77.5t107.5 -200.5h-152q-27 164 -211 164q-106 0 -168.5 -92.5t-62.5 -257.5q0 -164 64.5 -253t177.5 -89q84 0 140 48t71 134h149q-10 -135 -110.5 -219t-255.5 -84q-186 0 -294 124t-108 345z" />
<glyph unicode="&#xab;" horiz-adv-x="929" d="M68 520l270 322h186l-266 -322l266 -323h-186zM410 520l270 322h186l-266 -322l266 -323h-186z" />
<glyph unicode="&#xae;" d="M121 749.5q0 307.5 215 533.5t542.5 226t544.5 -223t217 -536q0 -315 -227 -537.5t-534.5 -222.5t-532.5 226t-225 533.5zM221 750q0 -264 195.5 -461t457.5 -197q268 0 466 185.5t198 465.5q0 289 -191.5 477.5t-465.5 188.5q-283 0 -471.5 -195.5t-188.5 -463.5z M575 334v860h324q358 0 358 -236q0 -92 -51 -152.5t-143 -78.5l190 -393h-180l-176 366h-160v-366h-162zM737 805h137q113 0 165.5 30.5t52.5 106.5q0 78 -53.5 113t-168.5 35h-133v-285z" />
<glyph unicode="&#xbb;" horiz-adv-x="929" d="M63 197l267 323l-267 322h187l270 -322l-270 -323h-187zM406 197l266 323l-266 322h186l270 -322l-270 -323h-186z" />
<glyph unicode="&#x2c6;" horiz-adv-x="2109" d="M432 928l526 573h191l526 -573h-186l-434 432l-437 -432h-186z" />
<glyph unicode="&#x400;" horiz-adv-x="1308" d="M295 1972h207l211 -361h-125zM51 0v180h172v1102h-172v180h1196v-434h-178v254h-637v-412h569v-176h-569v-514h637v287h178v-467h-1196z" />
<glyph unicode="&#x401;" horiz-adv-x="1308" d="M51 0v180h172v1102h-172v180h1196v-434h-178v254h-637v-412h569v-176h-569v-514h637v287h178v-467h-1196zM381 1772q0 47 35 80.5t82 33.5t81.5 -33.5t34.5 -80.5q0 -51 -33.5 -85t-82.5 -34t-83 34t-34 85zM776 1772q0 47 35 80.5t82 33.5t82 -33.5t35 -80.5 q0 -51 -34 -85t-83 -34t-83 34t-34 85z" />
<glyph unicode="&#x402;" horiz-adv-x="1558" d="M72 1081v381h1142v-381h-176v201h-290v-412h219q254 0 387 -116.5t133 -311.5q0 -201 -131 -321.5t-375 -120.5h-86v180h55q150 0 231 66.5t81 183.5q0 121 -78 192.5t-230 71.5h-206v-694h-381v180h172v1102h-291v-201h-176z" />
<glyph unicode="&#x403;" horiz-adv-x="1212" d="M51 0v180h172v1102h-172v180h1110v-434h-176v254h-553v-1102h172v-180h-553zM528 1534l211 360h207l-293 -360h-125z" />
<glyph unicode="&#x404;" horiz-adv-x="1585" d="M72 729q0 336 207.5 548t525.5 212q160 0 273.5 -51.5t199.5 -161.5v186h180v-469h-194q-129 299 -447 299q-195 0 -332 -113.5t-176 -308.5h574v-174h-586q10 -240 153.5 -385t352.5 -145q176 0 317.5 113.5t204.5 310.5l180 -109q-72 -240 -258 -376t-442 -136 q-322 0 -527.5 213t-205.5 547z" />
<glyph unicode="&#x405;" horiz-adv-x="1157" d="M106 0v502h187v-131q115 -213 319 -213q106 0 174 63.5t68 165.5q0 180 -190 246l-261 86q-145 47 -221 144.5t-76 232.5q0 172 114 282.5t290 110.5q182 0 317 -123v96h174v-420h-174v109q-129 158 -299 158q-98 0 -158.5 -54.5t-60.5 -144.5q0 -78 43 -126t142 -83 l251 -88q319 -111 320 -416q0 -193 -122 -310.5t-329 -117.5q-180 0 -321 123v-92h-187z" />
<glyph unicode="&#x406;" horiz-adv-x="655" d="M51 0v180h172v1102h-172v180h553v-180h-172v-1102h172v-180h-553z" />
<glyph unicode="&#x407;" horiz-adv-x="655" d="M14 1772q0 47 35 80.5t82 33.5t82 -33.5t35 -80.5q0 -51 -34 -85t-83 -34t-83 34t-34 85zM51 0v180h172v1102h-172v180h553v-180h-172v-1102h172v-180h-553zM410 1772q0 47 34.5 80.5t81.5 33.5t82 -33.5t35 -80.5q0 -51 -34 -85t-83 -34t-82.5 34t-33.5 85z" />
<glyph unicode="&#x408;" horiz-adv-x="655" d="M-59 -152q41 -8 98 -8q113 0 148.5 81t35.5 263v1098h-172v180h553v-180h-172v-1182q0 -227 -82 -334.5t-276 -107.5q-76 0 -133 12v178z" />
<glyph unicode="&#x409;" horiz-adv-x="2082" d="M20 -12v192q51 -18 119 -18q215 0 215 631v489h-172v180h1262v-180h-172v-412h219q254 0 387 -116.5t133 -311.5q0 -201 -131 -321.5t-375 -120.5h-614v180h172v1102h-524v-520q0 -418 -97.5 -605.5t-291.5 -187.5q-85 1 -130 19zM1272 180h203q150 0 230.5 66.5 t80.5 183.5q0 121 -78 192.5t-229 71.5h-207v-514z" />
<glyph unicode="&#x40a;" horiz-adv-x="2086" d="M51 0v180h172v1102h-172v180h553v-180h-172v-412h635v412h-172v180h553v-180h-172v-412h219q254 0 387 -116.5t133 -311.5q0 -201 -131 -321.5t-375 -120.5h-614v180h172v514h-635v-514h172v-180h-553zM1276 180h203q150 0 230.5 66.5t80.5 183.5q0 121 -78 192.5 t-229 71.5h-207v-514z" />
<glyph unicode="&#x40b;" horiz-adv-x="1615" d="M72 1081v381h1142v-381h-176v201h-290v-412h266q182 0 280.5 -92t98.5 -305v-293h172v-180h-381v420q0 158 -50.5 216t-201.5 58h-184v-514h172v-180h-553v180h172v1102h-291v-201h-176z" />
<glyph unicode="&#x40c;" horiz-adv-x="1366" d="M51 0v180h172v1102h-172v180h553v-180h-172v-504l498 504h-160v180h547v-180h-150l-475 -494l482 -608h172v-180h-574v180h146l-486 598v-598h172v-180h-553zM623 1534l211 360h206l-292 -360h-125z" />
<glyph unicode="&#x40d;" horiz-adv-x="1503" d="M397 1972h207l211 -361h-125zM51 0v180h172v1102h-172v180h553v-180h-172v-977l619 1157h401v-180h-172v-1102h172v-180h-553v180h172v959l-612 -1139h-408z" />
<glyph unicode="&#x40e;" horiz-adv-x="1501" d="M51 1282v180h555v-180h-157l292 -731l330 731h-182v180h561v-180h-180l-453 -969q-94 -205 -184 -274.5t-213 -69.5q-72 0 -119 19v184q35 -12 113 -12q68 0 105.5 21.5t76.5 92.5l25 43l-392 965h-178zM461 1831v20h157q0 -170 154 -170q152 0 152 170h157v-20 q0 -129 -80.5 -213t-228.5 -84q-164 0 -237.5 81t-73.5 216z" />
<glyph unicode="&#x40f;" horiz-adv-x="1499" d="M51 0v180h172v1102h-172v180h553v-180h-172v-1102h635v1102h-172v180h553v-180h-172v-1102h172v-180h-612v-291h-172v291h-613z" />
<glyph unicode="&#x410;" horiz-adv-x="1529" d="M41 0v180h166l385 1102h-191v180h732v-180h-179l377 -1102h158v-180h-547v180h176l-114 338h-494l-111 -338h164v-180h-522zM573 694h369l-182 545z" />
<glyph unicode="&#x411;" horiz-adv-x="1243" d="M51 0v180h172v1102h-172v180h1069v-434h-174v254h-514v-412h219q254 0 387 -116.5t133 -311.5q0 -201 -131 -321.5t-374 -120.5h-615zM432 180h203q150 0 230.5 66.5t80.5 183.5q0 121 -77.5 192.5t-229.5 71.5h-207v-514z" />
<glyph unicode="&#x412;" horiz-adv-x="1241" d="M51 0v180h172v1102h-172v180h586q223 0 338 -95t115 -277q0 -113 -52.5 -187t-167.5 -125q299 -88 299 -366q0 -201 -127 -306.5t-376 -105.5h-615zM432 180h205q152 0 233.5 66.5t81.5 183.5t-89 182.5t-259 65.5h-172v-498zM432 850h154q295 0 295 211q0 221 -281 221 h-168v-432z" />
<glyph unicode="&#x413;" horiz-adv-x="1212" d="M51 0v180h172v1102h-172v180h1110v-434h-176v254h-553v-1102h172v-180h-553z" />
<glyph unicode="&#x414;" horiz-adv-x="1505" d="M39 188h156q182 354 182 865v229h-172v180h1245v-180h-172v-1094h172v-479h-172v291h-1067v-291h-172v479zM397 188h672v1094h-508v-250q0 -488 -164 -844z" />
<glyph unicode="&#x415;" horiz-adv-x="1308" d="M51 0v180h172v1102h-172v180h1196v-434h-178v254h-637v-412h569v-176h-569v-514h637v287h178v-467h-1196z" />
<glyph unicode="&#x416;" horiz-adv-x="2111" d="M39 0v180h170l483 608l-477 494h-147v180h546v-180h-161l499 -504l-489 -598h149v-180h-573zM780 0v180h172v1102h-172v180h553v-180h-172v-504l496 504h-160v180h547v-180h-150l-475 -494l482 -608h172v-180h-574v180h146l-484 598v-598h172v-180h-553z" />
<glyph unicode="&#x417;" horiz-adv-x="1251" d="M47 373l166 104q68 -158 160 -234.5t237 -76.5q352 0 353 250q0 119 -90.5 190.5t-258.5 71.5h-172v172h154q127 0 211 60.5t84 164.5q0 217 -268 217q-121 0 -208 -73.5t-128 -202.5h-193v446h178v-168q121 195 390 195q199 0 318.5 -107.5t119.5 -269.5 q0 -113 -57.5 -201t-161.5 -133q145 -43 222 -137t77 -227q0 -203 -151.5 -324t-405.5 -121q-443 1 -576 404z" />
<glyph unicode="&#x418;" horiz-adv-x="1503" d="M51 0v180h172v1102h-172v180h553v-180h-172v-977l619 1157h401v-180h-172v-1102h172v-180h-553v180h172v959l-612 -1139h-408z" />
<glyph unicode="&#x419;" horiz-adv-x="1503" d="M51 0v180h172v1102h-172v180h553v-180h-172v-977l619 1157h401v-180h-172v-1102h172v-180h-553v180h172v959l-612 -1139h-408zM506 1831v20h158q0 -170 153 -170q152 0 152 170h157v-20q0 -129 -80.5 -213t-228.5 -84q-164 0 -237.5 81t-73.5 216z" />
<glyph unicode="&#x41a;" horiz-adv-x="1366" d="M51 0v180h172v1102h-172v180h553v-180h-172v-504l498 504h-160v180h547v-180h-150l-475 -494l482 -608h172v-180h-574v180h146l-486 598v-598h172v-180h-553z" />
<glyph unicode="&#x41b;" horiz-adv-x="1495" d="M20 -12v192q51 -18 119 -18q215 0 215 631v489h-172v180h1262v-180h-172v-1102h172v-180h-553v180h172v1102h-524v-520q0 -418 -97.5 -605.5t-291.5 -187.5q-85 1 -130 19z" />
<glyph unicode="&#x41c;" horiz-adv-x="1914" d="M51 0v180h172v1102h-172v180h510l404 -1038l413 1038h486v-180h-172v-1102h172v-180h-553v180h172v1106l-522 -1286h-43l-510 1288v-1108h172v-180h-529z" />
<glyph unicode="&#x41d;" horiz-adv-x="1499" d="M51 0v180h172v1102h-172v180h553v-180h-172v-412h635v412h-172v180h553v-180h-172v-1102h172v-180h-553v180h172v514h-635v-514h172v-180h-553z" />
<glyph unicode="&#x41e;" horiz-adv-x="1607" d="M72 729q0 336 207.5 548t525.5 212q324 0 527.5 -213t203.5 -547t-205 -547t-526.5 -213t-527 213t-205.5 547zM297 731q0 -254 144.5 -409.5t361.5 -155.5q219 0 363.5 155.5t144.5 409.5q0 250 -143.5 405.5t-364.5 155.5q-215 0 -360.5 -154.5t-145.5 -406.5z" />
<glyph unicode="&#x41f;" horiz-adv-x="1499" d="M51 0v180h172v1102h-172v180h1397v-180h-172v-1102h172v-180h-553v180h172v1102h-635v-1102h172v-180h-553z" />
<glyph unicode="&#x420;" horiz-adv-x="1273" d="M51 0v180h172v1102h-172v180h588q289 0 426 -106.5t137 -340t-137 -343t-426 -109.5h-207v-383h172v-180h-553zM432 735h176q190 0 279.5 61.5t89.5 213t-88 212t-281 60.5h-176v-547z" />
<glyph unicode="&#x421;" horiz-adv-x="1585" d="M72 729q0 336 207.5 548t525.5 212q160 0 273.5 -51.5t199.5 -161.5v186h180v-469h-194q-129 299 -443 299q-231 0 -377.5 -153.5t-146.5 -407.5t144.5 -409.5t361.5 -155.5q176 0 317.5 113.5t204.5 310.5l180 -109q-72 -240 -258 -376t-442 -136q-322 0 -527.5 213 t-205.5 547z" />
<glyph unicode="&#x422;" horiz-adv-x="1286" d="M72 895v567h1142v-567h-176v387h-290v-1102h172v-180h-553v180h172v1102h-291v-387h-176z" />
<glyph unicode="&#x423;" horiz-adv-x="1501" d="M51 1282v180h555v-180h-157l292 -731l330 731h-182v180h561v-180h-180l-453 -969q-94 -205 -184 -274.5t-213 -69.5q-72 0 -119 19v184q35 -12 113 -12q68 0 105.5 21.5t76.5 92.5l25 43l-392 965h-178z" />
<glyph unicode="&#x424;" horiz-adv-x="1552" d="M41 733q0 223 133 346t395 123h103v80h-172v180h553v-180h-172v-80h110q260 0 390 -122t130 -347q0 -215 -136 -336t-388 -121h-106v-96h172v-180h-553v180h172v96h-107q-252 0 -388 121t-136 336zM256 733q0 -281 305 -280h111v573h-111q-143 0 -224 -74t-81 -219z M881 453h110q305 0 305 280q0 145 -80.5 219t-224.5 74h-110v-573z" />
<glyph unicode="&#x425;" horiz-adv-x="1452" d="M68 0v180h165l377 551l-366 551h-176v180h559v-180h-123l233 -360l244 360h-170v180h539v-180h-154l-350 -524l377 -578h174v-180h-586v180h162l-254 391l-256 -391h164v-180h-559z" />
<glyph unicode="&#x426;" horiz-adv-x="1499" d="M51 0v180h172v1102h-172v180h553v-180h-172v-1102h635v1102h-172v180h553v-180h-172v-1102h172v-471h-172v291h-1225z" />
<glyph unicode="&#x427;" horiz-adv-x="1499" d="M51 1282v180h553v-180h-172v-203q0 -152 64.5 -200t218.5 -48q244 0 352 23v428h-172v180h553v-180h-172v-1102h172v-180h-553v180h172v496q-150 -33 -383 -33q-240 0 -350.5 91t-110.5 315v233h-172z" />
<glyph unicode="&#x428;" horiz-adv-x="2150" d="M51 0v180h172v1102h-172v180h553v-180h-172v-1102h539v1102h-172v180h553v-180h-172v-1102h538v1102h-172v180h553v-180h-172v-1102h172v-180h-2048z" />
<glyph unicode="&#x429;" horiz-adv-x="2150" d="M51 0v180h172v1102h-172v180h553v-180h-172v-1102h539v1102h-172v180h553v-180h-172v-1102h538v1102h-172v180h553v-180h-172v-1102h172v-471h-172v291h-1876z" />
<glyph unicode="&#x42a;" horiz-adv-x="1482" d="M51 1028v434h797v-180h-176v-412h219q254 0 387 -116.5t133 -311.5q0 -201 -131 -321.5t-375 -120.5h-614v180h172v1102h-236v-254h-176zM672 180h202q150 0 231 66.5t81 183.5q0 121 -78 192.5t-229 71.5h-207v-514z" />
<glyph unicode="&#x42b;" horiz-adv-x="1884" d="M51 0v180h172v1102h-172v180h553v-180h-172v-412h219q254 0 387 -116.5t133 -311.5q0 -201 -131 -321.5t-374 -120.5h-615zM432 180h203q150 0 230.5 66.5t80.5 183.5q0 121 -77.5 192.5t-229.5 71.5h-207v-514zM1280 0v180h172v1102h-172v180h553v-180h-172v-1102h172 v-180h-553z" />
<glyph unicode="&#x42c;" horiz-adv-x="1243" d="M51 0v180h172v1102h-172v180h553v-180h-172v-412h219q254 0 387 -116.5t133 -311.5q0 -201 -131 -321.5t-374 -120.5h-615zM432 180h203q150 0 230.5 66.5t80.5 183.5q0 121 -77.5 192.5t-229.5 71.5h-207v-514z" />
<glyph unicode="&#x42d;" horiz-adv-x="1576" d="M72 481l180 109q63 -197 204.5 -310.5t317.5 -113.5q211 0 353.5 144.5t152.5 383.5h-586v176h574q-39 195 -177.5 308.5t-332.5 113.5q-315 0 -445 -299h-194v469h180v-186q86 111 199.5 162t273.5 51q317 0 525 -212t208 -548q0 -334 -205.5 -547t-527.5 -213 q-256 0 -442 136t-258 376z" />
<glyph unicode="&#x42e;" horiz-adv-x="2273" d="M51 0v180h172v1102h-172v180h553v-180h-172v-412h316q45 276 244.5 447.5t477.5 171.5q324 0 528 -213t204 -547t-205 -547t-527 -213q-315 0 -515.5 199t-219.5 526h-303v-514h172v-180h-553zM963 731q0 -254 144 -409.5t361 -155.5q219 0 363.5 155.5t144.5 409.5 q0 250 -143 405.5t-365 155.5q-215 0 -360 -154.5t-145 -406.5z" />
<glyph unicode="&#x42f;" horiz-adv-x="1284" d="M20 0v180h164l207 453q-279 92 -278 387q0 201 131 321.5t374 120.5h615v-180h-172v-1102h172v-180h-553v180h172v416h-256l-281 -596h-295zM338 1036q0 -121 78 -192.5t229 -71.5h207v510h-205q-152 0 -230.5 -63.5t-78.5 -182.5z" />
<glyph unicode="&#x430;" horiz-adv-x="1093" d="M61 297q0 152 100.5 245t264.5 93q113 0 295 -74v62q0 137 -53.5 202.5t-165.5 65.5q-154 0 -248 -131l-180 45q49 119 163.5 184.5t278.5 65.5q215 0 302 -102.5t87 -325.5v-447h148v-180h-332v94q-152 -125 -322 -125q-152 0 -245 91.5t-93 236.5zM266 305 q0 -61 46 -103t120 -42q121 0 289 125v80q-147 90 -258 90q-90 0 -143.5 -41t-53.5 -109z" />
<glyph unicode="&#x431;" horiz-adv-x="1138" d="M72 582q0 379 136 582.5t441 240.5q131 16 176 31.5t62 52.5h178q-51 -143 -124 -187.5t-249 -64.5q-197 -23 -296 -112t-134 -259q39 63 132 120.5t196 57.5q223 0 355 -144t132 -390t-137 -393.5t-365 -147.5q-231 0 -367 167t-136 446zM276 514q0 -168 79 -261 t220.5 -93t219 91t77.5 261t-76.5 263t-220 93t-221.5 -92t-78 -262z" />
<glyph unicode="&#x432;" horiz-adv-x="950" d="M41 0v180h147v676h-147v172h461q168 0 262 -69.5t94 -204.5q0 -162 -160 -222q219 -43 220 -243q0 -139 -96.5 -214t-270.5 -75h-510zM373 180h178q170 0 170 129q0 135 -191 135h-157v-264zM373 596h123q94 0 138 33t44 104q0 123 -182 123h-123v-260z" />
<glyph unicode="&#x433;" horiz-adv-x="976" d="M41 0v180h147v676h-147v172h895v-379h-168v207h-395v-676h147v-180h-479z" />
<glyph unicode="&#x434;" horiz-adv-x="1128" d="M41 180h113q63 135 92.5 247t29.5 286v143h-143v172h954v-172h-145v-676h145v-413h-167v233h-711v-233h-168v413zM340 180h418v676h-314v-143q0 -182 -23.5 -298t-80.5 -235z" />
<glyph unicode="&#x435;" horiz-adv-x="1136" d="M61 512q0 246 143.5 394.5t370.5 148.5q236 0 368 -156t132 -440h-807q0 -135 90.5 -217t231.5 -82q213 0 328 182l161 -86q-160 -287 -491 -287q-240 0 -383.5 147.5t-143.5 395.5zM285 618h581q-16 127 -91 196t-199.5 69t-199.5 -68t-91 -197z" />
<glyph unicode="&#x436;" horiz-adv-x="1699" d="M37 0v180h127l352 375l-360 301h-119v172h450v-172h-114l379 -317l-502 -539h-213zM610 0v180h148v676h-148v172h480v-172h-148v-676h148v-180h-480zM948 539l381 317h-117v172h451v-172h-119l-360 -301l352 -375h127v-180h-213z" />
<glyph unicode="&#x437;" horiz-adv-x="944" d="M39 268l172 72q57 -199 256 -199q221 0 221 146q0 78 -63.5 114.5t-163.5 36.5h-94v158h77q100 0 156.5 36t56.5 105q0 137 -182 137q-90 0 -149.5 -54t-77.5 -144h-164v352h164v-88q35 47 103.5 81t150.5 34q135 0 241.5 -76t106.5 -203q0 -96 -55.5 -160.5 t-137.5 -85.5q227 -55 228 -243q0 -158 -115 -238t-293 -80q-168 0 -276.5 69.5t-161.5 229.5z" />
<glyph unicode="&#x438;" horiz-adv-x="1165" d="M41 0v180h147v676h-147v172h479v-172h-147v-582l399 754h352v-172h-147v-676h147v-180h-479v180h148v565l-398 -745h-354z" />
<glyph unicode="&#x439;" horiz-adv-x="1165" d="M41 0v180h147v676h-147v172h479v-172h-147v-582l399 754h352v-172h-147v-676h147v-180h-479v180h148v565l-398 -745h-354zM330 1425v21h157q0 -170 154 -170q152 0 152 170h157v-21q0 -129 -81 -213t-228 -84q-164 0 -237.5 81t-73.5 216z" />
<glyph unicode="&#x43a;" horiz-adv-x="1150" d="M41 0v180h147v676h-147v172h479v-172h-147v-676h147v-180h-479zM379 539l379 317h-115v172h451v-172h-119l-361 -301l353 -375h147v-180h-235z" />
<glyph unicode="&#x43b;" horiz-adv-x="1200" d="M37 -12v172q74 -16 100 -17q82 0 120 75t38 290v348h-145v172h1005v-172h-147v-676h147v-180h-479v180h147v676h-360v-360q0 -526 -299 -527q-66 1 -127 19z" />
<glyph unicode="&#x43c;" horiz-adv-x="1482" d="M41 0v180h147v676h-147v172h442l269 -649l264 649h426v-172h-148v-676h148v-180h-479v180h147v697l-358 -877h-35l-359 874v-694h148v-180h-465z" />
<glyph unicode="&#x43d;" horiz-adv-x="1169" d="M41 0v180h147v676h-147v172h479v-172h-147v-238h424v238h-148v172h479v-172h-147v-676h147v-180h-479v180h148v279h-424v-279h147v-180h-479z" />
<glyph unicode="&#x43e;" horiz-adv-x="1150" d="M61 512q0 246 143.5 394.5t371 148.5t371 -148.5t143.5 -394.5t-143.5 -394.5t-371 -148.5t-371 148.5t-143.5 394.5zM270 510q0 -164 82 -257t223 -93q133 0 219.5 95t86.5 255q0 166 -84 259t-226 93q-139 0 -220 -93t-81 -259z" />
<glyph unicode="&#x43f;" horiz-adv-x="1167" d="M41 0v180h147v676h-147v172h1085v-172h-147v-676h147v-180h-479v180h148v676h-422v-676h147v-180h-479z" />
<glyph unicode="&#x440;" horiz-adv-x="1253" d="M41 -162h147v1018h-147v172h332v-151q166 152 344 151q207 0 341 -143.5t134 -384.5q0 -240 -135 -385.5t-342 -145.5q-182 0 -342 154v-285h147v-180h-479v180zM373 504q0 -164 82 -257t223 -93q133 0 219 95t86 255q0 166 -84 259t-225 93q-139 0 -220 -93t-81 -259z " />
<glyph unicode="&#x441;" horiz-adv-x="1122" d="M61 512q0 240 141.5 391.5t356.5 151.5q172 0 303 -117v90h166v-383h-166q-55 229 -274 229q-147 0 -232.5 -96t-85.5 -264q0 -166 86 -260t230 -94q217 0 325 207l162 -80q-59 -145 -189 -231.5t-298 -86.5q-231 0 -378 148.5t-147 394.5z" />
<glyph unicode="&#x442;" horiz-adv-x="1024" d="M37 596v432h946v-432h-170v260h-211v-676h148v-180h-480v180h148v676h-211v-260h-170z" />
<glyph unicode="&#x443;" horiz-adv-x="1130" d="M37 856v172h432v-172h-119l228 -571l221 571h-119v172h410v-172h-121l-461 -1198h-350v172h245l78 203l-327 823h-117z" />
<glyph unicode="&#x444;" horiz-adv-x="1597" d="M41 502q0 260 120 406.5t326 146.5q113 0 220 -80v315h-148v172h332v-487q106 80 219 80q209 0 327.5 -135.5t118.5 -391.5q0 -244 -117.5 -400.5t-297.5 -156.5q-170 0 -250 84v-217h147v-180h-479v180h148v217q-80 -84 -250 -84q-182 0 -299 144.5t-117 386.5zM250 528 q0 -172 70.5 -270t207.5 -98q109 0 179 69v584q-84 61 -189 61q-129 0 -198.5 -95t-69.5 -251zM891 229q70 -70 178 -69q135 0 207 98t72 270q0 156 -71 251t-198 95q-104 0 -188 -61v-584z" />
<glyph unicode="&#x445;" horiz-adv-x="1085" d="M25 0v176h135l282 334l-307 346h-90v172h430v-172h-117l199 -217l188 217h-131v172h408v-172h-88l-272 -326l321 -354h82v-176h-430v176h115l-205 227l-193 -227h125v-176h-452z" />
<glyph unicode="&#x446;" horiz-adv-x="1167" d="M41 0v180h147v676h-147v172h479v-172h-147v-676h422v676h-148v172h479v-172h-147v-676h147v-413h-168v233h-917z" />
<glyph unicode="&#x447;" horiz-adv-x="1167" d="M41 856v172h479v-172h-147v-74q0 -106 43 -145t151 -39q135 0 228 18v240h-148v172h479v-172h-147v-676h147v-180h-479v180h148v279q-129 -29 -281 -29q-326 0 -326 305v121h-147z" />
<glyph unicode="&#x448;" horiz-adv-x="1724" d="M41 0v180h147v676h-147v172h479v-172h-147v-676h397v676h-147v172h479v-172h-148v-676h398v676h-148v172h479v-172h-147v-676h147v-180h-1642z" />
<glyph unicode="&#x449;" horiz-adv-x="1724" d="M41 0v180h147v676h-147v172h479v-172h-147v-676h397v676h-147v172h479v-172h-148v-676h398v676h-148v172h479v-172h-147v-676h147v-413h-167v233h-1475z" />
<glyph unicode="&#x44a;" horiz-adv-x="1155" d="M51 639v389h662v-172h-150v-238h162q172 0 270.5 -78.5t98.5 -222.5q0 -160 -98.5 -238.5t-268.5 -78.5h-496v180h148v676h-158v-217h-170zM563 180h148q94 0 140 31t46 106.5t-46 108.5t-142 33h-146v-279z" />
<glyph unicode="&#x44b;" horiz-adv-x="1511" d="M41 0v180h147v676h-147v172h479v-172h-147v-238h162q172 0 270 -78.5t98 -222.5q0 -160 -98 -238.5t-268 -78.5h-496zM373 180h147q94 0 140.5 31t46.5 106.5t-46.5 108.5t-142.5 33h-145v-279zM991 0v180h148v676h-148v172h479v-172h-147v-676h147v-180h-479z" />
<glyph unicode="&#x44c;" horiz-adv-x="944" d="M41 0v180h147v676h-147v172h479v-172h-147v-238h162q172 0 270 -78.5t98 -222.5q0 -160 -98 -238.5t-268 -78.5h-496zM373 180h147q94 0 140.5 31t46.5 106.5t-46.5 108.5t-142.5 33h-145v-279z" />
<glyph unicode="&#x44d;" horiz-adv-x="1128" d="M49 287l162 80q109 -207 326 -207q129 0 211.5 74.5t103.5 224.5h-385v159h385q-82 256 -317 256q-219 0 -275 -229h-166v383h166v-90q131 117 303 117q215 0 356.5 -151.5t141.5 -391.5q0 -246 -146.5 -394.5t-377.5 -148.5q-168 0 -298.5 86.5t-189.5 231.5z" />
<glyph unicode="&#x44e;" horiz-adv-x="1679" d="M41 0v180h147v676h-147v172h479v-172h-147v-238h223q31 207 168 322t338 115q227 0 371.5 -148.5t144.5 -394.5t-144.5 -394.5t-371.5 -148.5q-217 0 -357.5 135.5t-156.5 354.5h-215v-279h147v-180h-479zM791 514q0 -166 85 -260t226 -94q143 0 226 93t83 261t-82 261 t-227 93q-143 0 -227 -93t-84 -261z" />
<glyph unicode="&#x44f;" horiz-adv-x="1054" d="M41 0v180h127l176 262q-84 25 -135 100.5t-51 174.5q0 152 100 231.5t260 79.5h496v-172h-148v-676h148v-180h-479v180h147v234h-137l-275 -414h-229zM346 721q0 -74 47 -104.5t146 -30.5h143v270h-147q-189 0 -189 -135z" />
<glyph unicode="&#x450;" horiz-adv-x="1136" d="M221 1538h207l211 -361h-125zM61 512q0 246 143.5 394.5t370.5 148.5q236 0 368 -156t132 -440h-807q0 -135 90.5 -217t231.5 -82q213 0 328 182l161 -86q-160 -287 -491 -287q-240 0 -383.5 147.5t-143.5 395.5zM285 618h581q-16 127 -91 196t-199.5 69t-199.5 -68 t-91 -197z" />
<glyph unicode="&#x451;" horiz-adv-x="1136" d="M61 512q0 246 143.5 394.5t370.5 148.5q236 0 368 -156t132 -440h-807q0 -135 90.5 -217t231.5 -82q213 0 328 182l161 -86q-160 -287 -491 -287q-240 0 -383.5 147.5t-143.5 395.5zM268 1337q0 47 35 81t82 34t82 -34t35 -81q0 -51 -34 -84.5t-83 -33.5t-83 33.5 t-34 84.5zM285 618h581q-16 127 -91 196t-199.5 69t-199.5 -68t-91 -197zM664 1337q0 47 34.5 81t81.5 34t82 -34t35 -81q0 -51 -34 -84.5t-83 -33.5t-82.5 33.5t-33.5 84.5z" />
<glyph unicode="&#x452;" horiz-adv-x="1110" d="M41 0v180h147v942h-147v131h147v90h-147v173h332v-263h487v-131h-487v-245q184 152 346 151q152 0 200 -87t48 -279v-734q0 -113 -72 -204t-221 -91q-51 0 -119 11v168q37 -6 63 -7q98 0 131 42t33 153v586q0 154 -22.5 212t-110.5 58q-135 0 -276 -149v-527h147v-180 h-479z" />
<glyph unicode="&#x453;" horiz-adv-x="976" d="M41 0v180h147v676h-147v172h895v-379h-168v207h-395v-676h147v-180h-479zM395 1167l170 287h166l-235 -287h-101z" />
<glyph unicode="&#x454;" horiz-adv-x="1128" d="M68 512q0 240 141 391.5t356 151.5q172 0 303 -117v90h166v-383h-166q-55 229 -274 229q-125 0 -204 -68.5t-103 -187.5h342v-159h-348q12 -143 97 -221t214 -78q217 0 326 207l161 -80q-59 -145 -189 -231.5t-298 -86.5q-231 0 -377.5 148.5t-146.5 394.5z" />
<glyph unicode="&#x455;" horiz-adv-x="968" d="M72 745q0 131 101 220.5t257 89.5q160 0 275 -105v78h157v-334h-157q-8 92 -80 147.5t-185 55.5q-82 0 -129 -36t-47 -95q0 -55 40 -85t126 -48l176 -37q291 -61 291 -293q0 -150 -102.5 -242t-274.5 -92q-168 0 -278 101v-70h-166v348h166q10 -100 80.5 -157.5 t185.5 -57.5q92 0 146.5 40t54.5 101q0 57 -44 89t-143 53l-160 35q-290 63 -290 294z" />
<glyph unicode="&#x456;" horiz-adv-x="561" d="M41 0v180h147v676h-147v172h332v-848h147v-180h-479zM147 1337q0 47 35 81t82 34t82 -34t35 -81q0 -51 -34 -84.5t-83 -33.5t-83 33.5t-34 84.5z" />
<glyph unicode="&#x457;" horiz-adv-x="561" d="M-61 1337q0 47 34.5 81t81.5 34t82 -34t35 -81q0 -51 -34 -84.5t-83 -33.5t-82.5 33.5t-33.5 84.5zM41 0v180h147v676h-147v172h332v-848h147v-180h-479zM334 1337q0 47 34.5 81t82 34t82 -34t34.5 -81q0 -51 -33.5 -84.5t-83 -33.5t-83 33.5t-33.5 84.5z" />
<glyph unicode="&#x458;" horiz-adv-x="516" d="M-39 -188q37 -6 64 -7q96 0 129.5 39t33.5 136v878h-147v172h332v-1102q0 -113 -72 -204t-221 -91q-51 0 -119 11v168zM147 1337q0 47 35 81t82 34t82 -34t35 -81q0 -51 -34 -84.5t-83 -33.5t-83 33.5t-34 84.5z" />
<glyph unicode="&#x459;" horiz-adv-x="1599" d="M37 -12v172q74 -16 100 -17q82 0 120 75t38 290v348h-145v172h1005v-172h-147v-238h161q172 0 270.5 -78.5t98.5 -222.5q0 -160 -98.5 -238.5t-268.5 -78.5h-495v180h147v676h-360v-360q0 -526 -299 -527q-66 1 -127 19zM1008 180h147q94 0 140 31t46 106.5t-46 108.5 t-142 33h-145v-279z" />
<glyph unicode="&#x45a;" horiz-adv-x="1572" d="M41 0v180h147v676h-147v172h479v-172h-147v-238h424v238h-148v172h479v-172h-147v-238h162q172 0 270 -78.5t98 -222.5q0 -160 -98 -238.5t-268 -78.5h-496v180h148v279h-424v-279h147v-180h-479zM981 180h147q94 0 140.5 31t46.5 106.5t-46 108.5t-143 33h-145v-279z " />
<glyph unicode="&#x45b;" horiz-adv-x="1155" d="M41 0v180h147v942h-147v131h147v90h-147v173h332v-263h487v-131h-487v-245q184 152 346 151q152 0 200 -87t48 -279v-482h147v-180h-332v586q0 154 -22.5 212t-110.5 58q-135 0 -276 -149v-527h147v-180h-479z" />
<glyph unicode="&#x45c;" horiz-adv-x="1150" d="M41 0v180h147v676h-147v172h479v-172h-147v-676h147v-180h-479zM379 539l379 317h-115v172h451v-172h-119l-361 -301l353 -375h147v-180h-235zM522 1167l170 287h166l-235 -287h-101z" />
<glyph unicode="&#x45d;" horiz-adv-x="1165" d="M227 1538h207l211 -361h-125zM41 0v180h147v676h-147v172h479v-172h-147v-582l399 754h352v-172h-147v-676h147v-180h-479v180h148v565l-398 -745h-354z" />
<glyph unicode="&#x45e;" horiz-adv-x="1130" d="M37 856v172h432v-172h-119l228 -571l221 571h-119v172h410v-172h-121l-461 -1198h-350v172h245l78 203l-327 823h-117zM274 1421v21h158q0 -170 154 -170q152 0 151 170h158v-21q0 -129 -81 -213t-228 -84q-164 0 -238 81t-74 216z" />
<glyph unicode="&#x45f;" horiz-adv-x="1167" d="M41 0v180h147v676h-147v172h479v-172h-147v-676h422v676h-148v172h479v-172h-147v-676h147v-180h-458v-233h-168v233h-459z" />
<glyph unicode="&#x490;" horiz-adv-x="1212" d="M51 0v180h172v1102h-172v180h934v256h176v-436h-729v-1102h172v-180h-553z" />
<glyph unicode="&#x491;" horiz-adv-x="976" d="M41 0v180h147v676h-147v172h727v207h168v-379h-563v-676h147v-180h-479z" />
<glyph unicode="&#x4ae;" horiz-adv-x="1454" d="M41 1282v180h584v-180h-160l274 -432l285 432h-182v180h571v-180h-180l-406 -612v-490h172v-180h-553v180h172v490l-399 612h-178z" />
<glyph unicode="&#x4c0;" horiz-adv-x="655" d="M51 0v180h172v1102h-172v180h553v-180h-172v-1102h172v-180h-553z" />
<glyph unicode="&#x2000;" horiz-adv-x="985" />
<glyph unicode="&#x2001;" horiz-adv-x="1972" />
<glyph unicode="&#x2002;" horiz-adv-x="985" />
<glyph unicode="&#x2003;" horiz-adv-x="1972" />
<glyph unicode="&#x2004;" horiz-adv-x="657" />
<glyph unicode="&#x2005;" horiz-adv-x="491" />
<glyph unicode="&#x2006;" horiz-adv-x="327" />
<glyph unicode="&#x2007;" horiz-adv-x="327" />
<glyph unicode="&#x2008;" horiz-adv-x="245" />
<glyph unicode="&#x2009;" horiz-adv-x="393" />
<glyph unicode="&#x200a;" horiz-adv-x="108" />
<glyph unicode="&#x2013;" horiz-adv-x="1052" d="M-2 557v143h1057v-143h-1057z" />
<glyph unicode="&#x2014;" horiz-adv-x="2109" d="M0 557v143h2109v-143h-2109z" />
<glyph unicode="&#x2018;" horiz-adv-x="524" d="M129 940v256q0 279 246 293v-115q-68 -14 -92.5 -46t-24.5 -99v-33h117v-256h-246z" />
<glyph unicode="&#x2019;" horiz-adv-x="524" d="M152 913v115q68 14 92 46t24 100v32h-116v256h245v-256q1 -277 -245 -293z" />
<glyph unicode="&#x201a;" horiz-adv-x="524" d="M131 0v256h246v-256q0 -279 -246 -293v115q68 14 92.5 46t24.5 99v33h-117z" />
<glyph unicode="&#x201c;" horiz-adv-x="921" d="M143 940v256q0 279 246 293v-115q-68 -14 -92.5 -46t-24.5 -99v-33h117v-256h-246zM528 940v256q0 279 246 293v-115q-68 -14 -92.5 -46t-24.5 -99v-33h117v-256h-246z" />
<glyph unicode="&#x201d;" horiz-adv-x="921" d="M162 913v115q68 14 92.5 46t24.5 100v32h-117v256h246v-256q0 -277 -246 -293zM547 913v115q68 14 92.5 46t24.5 100v32h-117v256h246v-256q0 -277 -246 -293z" />
<glyph unicode="&#x201e;" horiz-adv-x="921" d="M139 0v256h246v-256q0 -279 -246 -293v115q68 14 92.5 46t24.5 99v33h-117zM524 0v256h246v-256q0 -279 -246 -293v115q68 14 92.5 46t24.5 99v33h-117z" />
<glyph unicode="&#x2022;" horiz-adv-x="1245" d="M317 784q0 125 89.5 214t216.5 89q125 0 214 -89t89 -214t-90.5 -215t-215 -90t-214 89t-89.5 216z" />
<glyph unicode="&#x2026;" horiz-adv-x="2109" d="M197 0v256h245v-256h-245zM899 0v256h246v-256h-246zM1602 0v256h245v-256h-245z" />
<glyph unicode="&#x202f;" horiz-adv-x="393" />
<glyph unicode="&#x2039;" horiz-adv-x="585" d="M68 520l270 322h184l-266 -322l266 -323h-184z" />
<glyph unicode="&#x203a;" horiz-adv-x="585" d="M63 197l267 323l-267 322h185l268 -322l-268 -323h-185z" />
<glyph unicode="&#x205f;" horiz-adv-x="491" />
<glyph unicode="&#x20ac;" horiz-adv-x="1042" d="M45 506l47 156h84q-4 37 -4 73q0 31 4 72h-131l47 154h96q68 528 480 528q190 0 293 -80v-197q-94 94 -269 95q-272 0 -313 -346h510l-49 -154h-478q-2 -20 -2 -72q0 -55 2 -73h431l-48 -156h-366q41 -354 315 -354q170 0 267 96v-201q-90 -76 -293 -76q-412 0 -478 535 h-145z" />
<glyph unicode="&#x2122;" d="M248 1419v82h467v-82h-176v-473h-113v473h-178zM838 946v555h153l156 -397l145 397h156v-555h-102v459l-170 -459h-58l-180 459v-459h-100z" />
<glyph unicode="&#xe000;" horiz-adv-x="1030" d="M0 1030h1030v-1030h-1030v1030z" />
</font>
</defs>
</svg>
