<?xml version="1.0" standalone="no"?>
<!DOCTYPE svg PUBLIC "-//W3C//DTD SVG 1.1//EN" "http://www.w3.org/Graphics/SVG/1.1/DTD/svg11.dtd" >
<svg xmlns="http://www.w3.org/2000/svg">
<metadata>
This is a custom SVG webfont generated by Font Squirrel.
Copyright   : Copyright C 1993 Type Market Ltd Moscow 119136 Box 20 phone0951427712 Created by AKustov
</metadata>
<defs>
<font id="RodeoCBold" horiz-adv-x="1099" >
<font-face units-per-em="2048" ascent="1548" descent="-500" />
<missing-glyph horiz-adv-x="546" />
<glyph unicode=" "  horiz-adv-x="546" />
<glyph unicode="&#x09;" horiz-adv-x="546" />
<glyph unicode="&#xa0;" horiz-adv-x="546" />
<glyph unicode="!" horiz-adv-x="604" d="M141 0v342h322v-342h-322zM141 1042v420h322v-420l-84 -532h-156z" />
<glyph unicode="&#x22;" horiz-adv-x="698" d="M82 905v576h199v-576h-199zM418 905v576h198v-576h-198z" />
<glyph unicode="#" horiz-adv-x="1624" d="M47 418l78 207h291l90 249h-309l75 207h308l151 428h227l-149 -428h250l151 428h228l-152 -428h291l-76 -207h-289l-88 -249h301l-73 -207h-301l-152 -428h-227l151 428h-250l-155 -428h-225l149 428h-295zM641 625h258l90 249h-258z" />
<glyph unicode="$" d="M70 1083q0 170 100 269.5t281 107.5v166h137v-168q72 -27 145 -86v92h223v-458h-223v102q-35 96 -153 131v-344l129 -74q166 -96 243.5 -200.5t77.5 -243.5q0 -186 -111.5 -284.5t-324.5 -98.5h-6v-213h-137v229q-86 27 -144 82v-92h-227v502h227v-121q23 -92 154 -156 v412l-133 74q-135 78 -196.5 166.5t-61.5 205.5zM334 1114q0 -94 131 -170v309q-61 -4 -96 -42t-35 -97zM578 211q174 16 174 162q0 66 -41 112.5t-133 92.5v-367z" />
<glyph unicode="%" horiz-adv-x="1679" d="M37 1067q0 195 93 308.5t245 113.5q154 0 246 -112.5t92 -309.5t-92.5 -308.5t-245.5 -111.5q-152 0 -245 112.5t-93 307.5zM256 1067q0 -104 33 -163.5t84 -59.5q53 0 87 59.5t34 163.5t-34 164.5t-87 60.5q-51 0 -84 -60.5t-33 -164.5zM299 -31l895 1520h184 l-895 -1520h-184zM965 389.5q0 194.5 93 308t245 113.5q154 0 245.5 -112.5t91.5 -309t-92 -308.5t-245 -112q-152 0 -245 113t-93 307.5zM1184 389.5q0 -104.5 32.5 -164t83.5 -59.5q53 0 87 59.5t34 164t-33.5 164.5t-87.5 60q-51 0 -83.5 -60t-32.5 -164.5z" />
<glyph unicode="&#x26;" horiz-adv-x="1566" d="M51 449q0 285 371 458q-102 145 -103 256q0 143 103.5 234.5t269.5 91.5q172 0 272.5 -85t100.5 -220q0 -94 -57.5 -169t-180.5 -147l211 -268q113 160 160 299h315v-231h-159q-84 -174 -166 -267l129 -168h196v-233h-399l-127 168q-190 -199 -434 -199 q-209 0 -355.5 138.5t-146.5 341.5zM365 494q0 -92 74.5 -164t172.5 -72q109 0 230 109l-285 360q-92 -39 -142 -101t-50 -132zM600 1210q0 -66 86 -170q123 82 123 168q0 39 -30.5 69t-73.5 30q-49 0 -77 -26t-28 -71z" />
<glyph unicode="'" horiz-adv-x="364" d="M84 905v576h197v-576h-197z" />
<glyph unicode="(" horiz-adv-x="899" d="M225 579.5q0 354.5 147.5 590t415.5 319.5v-205q-250 -166 -249 -700q0 -545 249 -709v-207q-268 84 -415.5 320.5t-147.5 591z" />
<glyph unicode=")" horiz-adv-x="899" d="M111 -127q250 166 249 702q0 543 -249 707v207q268 -84 415.5 -320.5t147.5 -591t-147.5 -590t-415.5 -319.5v205z" />
<glyph unicode="*" horiz-adv-x="995" d="M145 1169l56 166l217 -82l-8 236h174l-9 -236l222 82l53 -168l-225 -63l145 -184l-141 -103l-131 195l-129 -195l-142 105l144 182z" />
<glyph unicode="+" horiz-adv-x="1757" d="M260 528v203h514v526h209v-526h512v-203h-512v-528h-209v528h-514z" />
<glyph unicode="," horiz-adv-x="548" d="M100 -193q80 14 117 53.5t37 114.5v25h-143v342h321v-305q0 -195 -78 -287t-254 -100v157z" />
<glyph unicode="-" horiz-adv-x="702" d="M78 395v273h547v-273h-547z" />
<glyph unicode="." horiz-adv-x="548" d="M115 0v342h321v-342h-321z" />
<glyph unicode="/" horiz-adv-x="671" d="M-66 -197l576 1686h174l-578 -1686h-172z" />
<glyph unicode="0" d="M61 729.5q0 364.5 130.5 562t357.5 197.5q231 0 360 -201t129 -577q0 -350 -132 -546t-357 -196q-227 0 -357.5 198t-130.5 562.5zM385 733q0 -258 45 -396t119 -138t120 139t46 395q0 258 -45 396.5t-121 138.5t-120 -138.5t-44 -396.5z" />
<glyph unicode="1" d="M195 0v229h198v1016h-198v217h512v-1233h184v-229h-696z" />
<glyph unicode="2" horiz-adv-x="1097" d="M63 0v63q0 291 191 510q53 61 181 181t173 188q57 82 58 178q0 147 -138 148q-160 0 -159 -273v-32h-273q-2 23 -2 67q0 215 124 337t343 122q197 0 311.5 -102.5t114.5 -274.5q0 -78 -18.5 -138.5t-64.5 -117.5t-91 -98t-129 -107q-82 -66 -125 -103.5t-93 -92 t-74.5 -107.5t-31.5 -117h398v211h229v-442h-924z" />
<glyph unicode="3" d="M70 453v41h262q8 -276 186 -277q84 0 131 59.5t47 165.5q0 229 -256 230v227h6q231 0 232 203q0 168 -139 168q-141 0 -160 -209h-248q0 199 114.5 313.5t313.5 114.5q190 0 303 -106.5t113 -280.5q0 -238 -246 -322q291 -76 291 -364q0 -197 -133 -322t-346 -125 q-225 0 -348 125.5t-123 358.5z" />
<glyph unicode="4" horiz-adv-x="1097" d="M2 565l635 924h246v-889h161v-209h-161v-160h149v-231h-586v231h152v160h-541q-14 90 -55 174zM240 590h358l14 547z" />
<glyph unicode="5" d="M47 397l275 33q10 -109 57 -167t129 -58q92 0 145.5 71.5t53.5 200.5q0 119 -50.5 186.5t-132.5 67.5q-104 0 -182 -127l-236 113l56 745h803v-356h-215l-17 129h-360l-27 -358q135 84 268 84q182 0 299 -130.5t117 -343.5q0 -242 -132 -380t-363 -138 q-213 0 -342.5 113.5t-145.5 314.5z" />
<glyph unicode="6" d="M74 731q0 367 137 562.5t387 195.5q178 0 285.5 -98.5t128.5 -282.5l-246 -37q-18 104 -57 153.5t-107 49.5q-96 0 -150.5 -101.5t-54.5 -293.5v-37q131 98 262 98q170 0 275.5 -126t105.5 -337q0 -227 -130 -367.5t-332 -140.5q-231 0 -367.5 201t-136.5 561zM397 629 q0 -197 53.5 -304.5t137.5 -107.5q74 0 117 62.5t43 177.5q0 121 -49.5 187.5t-135.5 66.5q-78 0 -166 -62v-20z" />
<glyph unicode="7" d="M84 1020v442h946v-194q-338 -516 -356 -1039h182v-229h-690v229h186v13q0 387 400 991h-443v-213h-225z" />
<glyph unicode="8" d="M49 391q0 289 285 383q-250 80 -250 332q0 166 128 274.5t337 108.5t338 -108.5t129 -274.5q0 -252 -250 -332q283 -92 283 -383q0 -184 -138.5 -303t-359.5 -119q-225 0 -363.5 119t-138.5 303zM354 424q0 -98 56.5 -162.5t138.5 -64.5t139 65.5t57 161.5t-56 159.5 t-140 63.5q-82 0 -138.5 -64.5t-56.5 -158.5zM381 1071q0 -88 48 -146.5t120 -58.5q70 0 120 58.5t50 146.5t-49 145.5t-121 57.5t-120 -57.5t-48 -145.5z" />
<glyph unicode="9" d="M57 981q0 229 129 368.5t332 139.5q231 0 367.5 -199.5t136.5 -560.5q0 -369 -137 -564.5t-387 -195.5q-178 0 -285 98.5t-127 282.5l246 37q18 -104 57 -153.5t107 -49.5q94 0 148 101.5t54 292.5v38q-133 -98 -262 -98q-170 0 -274.5 126t-104.5 337zM348 1001 q0 -121 49 -187t135 -66q78 0 166 61v18q0 197 -52 305.5t-136 108.5q-74 0 -118 -62.5t-44 -177.5z" />
<glyph unicode=":" horiz-adv-x="598" d="M137 0v342h322v-342h-322zM137 700v342h322v-342h-322z" />
<glyph unicode=";" horiz-adv-x="598" d="M127 -193q80 14 117 53.5t37 114.5v25h-144v342h322v-305q0 -195 -78 -287t-254 -100v157zM137 700v342h322v-342h-322z" />
<glyph unicode="&#x3c;" horiz-adv-x="1757" d="M270 528v203l1215 500v-227l-920 -375l920 -375v-227z" />
<glyph unicode="=" horiz-adv-x="1757" d="M260 305v205h1235v-205h-1235zM260 750v204h1235v-204h-1235z" />
<glyph unicode="&#x3e;" horiz-adv-x="1757" d="M270 27v227l922 375l-922 375v227l1215 -500v-203z" />
<glyph unicode="?" horiz-adv-x="1095" d="M45 1030v23q0 197 138.5 317.5t363.5 120.5q221 0 355 -124t134 -323q0 -172 -106.5 -273t-294.5 -101h-29l-35 -168h-151l-21 395q57 -14 105 -14q100 0 154.5 49t54.5 139t-52.5 143.5t-140.5 53.5q-84 0 -134 -55.5t-50 -149.5v-33h-291zM336 0v342h321v-342h-321z " />
<glyph unicode="@" horiz-adv-x="2109" d="M92 537q0 434 301 711.5t756 277.5q375 0 622.5 -203t247.5 -535q0 -270 -169 -473.5t-427 -203.5q-221 0 -221 170q-113 -170 -305 -170q-164 0 -249 90t-85 262q0 248 144.5 413.5t353.5 165.5q168 0 244 -135l53 103h184l-151 -617q-6 -25 -7 -43q0 -72 97 -71 q147 0 246.5 166.5t99.5 347.5q0 244 -189.5 404.5t-494.5 160.5q-377 0 -618.5 -233.5t-241.5 -585.5q0 -315 213 -505t569 -190q340 0 623 197l84 -121q-317 -238 -703 -237q-276 0 -497.5 102t-350.5 299t-129 453zM782 459q0 -94 37 -137t117 -43q88 0 163 57t99 162 l55 225q-25 170 -180 170q-117 0 -204 -128t-87 -306z" />
<glyph unicode="A" horiz-adv-x="1652" d="M57 0v238h160l324 997h-199v227h977v-227h-176l325 -997h134v-238h-650v238h156l-80 274h-424l-78 -274h162v-238h-631zM659 702h318l-158 541z" />
<glyph unicode="B" horiz-adv-x="1333" d="M33 0v238h157v997h-157v227h639q530 0 530 -389q0 -115 -52 -184.5t-171 -110.5q270 -100 270 -366q0 -203 -128 -307.5t-378 -104.5h-710zM539 238h108q133 0 193.5 42t60.5 144q0 229 -276 229h-86v-415zM539 868h88q231 0 231 187q0 100 -52 140t-171 40h-96v-367z " />
<glyph unicode="C" horiz-adv-x="1599" d="M61 729q0 328 209 544t535 216q289 0 452 -182v155h220v-506h-220q-80 145 -177 214t-228 69q-186 0 -293.5 -134t-107.5 -369.5t108.5 -370t296.5 -134.5q154 0 263.5 94.5t166.5 274.5l260 -125q-86 -246 -269 -376t-448 -130q-332 0 -550 216t-218 544z" />
<glyph unicode="D" horiz-adv-x="1540" d="M37 0v238h158v997h-158v227h719q344 0 532.5 -191.5t188.5 -539.5t-188.5 -539.5t-532.5 -191.5h-719zM543 238h116q219 0 323.5 121.5t104.5 377.5q0 252 -113.5 375t-344.5 123h-86v-997z" />
<glyph unicode="E" horiz-adv-x="1331" d="M43 0v238h158v997h-158v227h1231v-452h-264v225h-461v-358h383v-240h-383v-399h461v239h264v-477h-1231z" />
<glyph unicode="F" horiz-adv-x="1290" d="M43 0v238h158v997h-158v227h1188v-452h-262v225h-420v-358h317v-240h-317v-399h158v-238h-664z" />
<glyph unicode="G" horiz-adv-x="1650" d="M63 729q0 330 212 545t540 215q293 0 457 -182v155h217v-506h-217q-82 145 -180.5 214t-229.5 69q-188 0 -298.5 -133t-110.5 -368.5t110.5 -371t300.5 -135.5q150 0 244 73t109 198h-256v235h624v-45q0 -338 -197.5 -530.5t-547.5 -192.5q-336 0 -556.5 214t-220.5 546z " />
<glyph unicode="H" horiz-adv-x="1536" d="M43 0v238h158v997h-158v227h664v-227h-158v-336h436v336h-158v227h664v-227h-158v-997h158v-238h-664v238h158v424h-436v-424h158v-238h-664z" />
<glyph unicode="I" horiz-adv-x="770" d="M45 0v238h158v997h-158v227h664v-227h-158v-997h158v-238h-664z" />
<glyph unicode="J" horiz-adv-x="800" d="M-27 -43q61 -18 115 -18q90 0 121 51t31 172v1073h-158v227h663v-227h-157v-1067q0 -264 -99.5 -387t-328.5 -123q-90 0 -187 31v268z" />
<glyph unicode="K" horiz-adv-x="1570" d="M43 0v238h158v997h-158v227h664v-227h-158v-997h158v-238h-664zM559 774l445 461h-160v227h604v-227h-121l-401 -420l454 -577h158v-238h-725v238h156z" />
<glyph unicode="L" horiz-adv-x="1261" d="M43 0v238h158v997h-158v227h664v-227h-158v-997h409v448h230v-686h-1145z" />
<glyph unicode="M" horiz-adv-x="2027" d="M43 0v238h158v997h-158v227h614l322 -901l330 901h651v-227h-158v-997h158v-238h-664v238h158v997l-450 -1235h-134l-442 1235v-997h152v-238h-537z" />
<glyph unicode="N" horiz-adv-x="1593" d="M45 0v238h158v997h-158v227h567l543 -946l-10 719h-158v227h578v-227h-158v-1235h-315l-635 1102l8 -864h158v-238h-578z" />
<glyph unicode="O" horiz-adv-x="1650" d="M63 729q0 334 216.5 547t558.5 213q330 0 539.5 -212t209.5 -548t-214 -548t-548 -212q-332 0 -547 215t-215 545zM453 735.5q0 -229.5 104.5 -366t268 -136.5t268 136.5t104.5 366t-103.5 365.5t-269.5 136t-269 -136t-103 -365.5z" />
<glyph unicode="P" horiz-adv-x="1363" d="M43 0v238h158v997h-158v227h694q289 0 424 -108.5t135 -345.5q0 -240 -136 -353.5t-423 -113.5h-188v-303h158v-238h-664zM549 780h76q156 0 226.5 52.5t70.5 175t-71 175t-226 52.5h-76v-455z" />
<glyph unicode="Q" horiz-adv-x="1650" d="M63 729q0 332 218.5 546t543.5 214q344 0 553 -212t209 -548q0 -289 -158.5 -487.5t-439.5 -255.5q150 -86 283 -86q45 0 112 12l-73 -231q-31 -16 -82 -17q-96 0 -278.5 76t-250.5 76q-106 0 -204 -86l-111 137q115 111 229 129q-260 74 -405.5 266.5t-145.5 466.5z M453 735.5q0 -229.5 104.5 -366t268 -136.5t268 136.5t104.5 366t-103.5 365.5t-269.5 136t-269 -136t-103 -365.5z" />
<glyph unicode="R" horiz-adv-x="1470" d="M43 0v238h158v997h-158v227h694q291 0 424 -95t133 -314q0 -289 -247 -348l237 -467h166v-238h-410l-331 645h-160v-407h158v-238h-664zM549 877h104q139 0 203 40.5t64 139t-63.5 138.5t-203.5 40h-104v-358z" />
<glyph unicode="S" horiz-adv-x="1243" d="M100 1077q0 180 118 296t304 116q176 0 322 -113v86h235v-434h-235q0 104 -62.5 168t-160.5 64q-76 0 -121 -40t-45 -108q0 -57 35.5 -95t119.5 -77l191 -86q182 -82 269 -192.5t87 -264.5q0 -190 -122 -309t-318 -119q-219 0 -365 123v-92h-233v502h233 q0 -141 66.5 -213t191.5 -72q86 0 137.5 44t51.5 112q0 70 -48.5 118t-158.5 101l-207 102q-147 72 -216 163t-69 220z" />
<glyph unicode="T" horiz-adv-x="1288" d="M23 893v569h1232v-569h-237v342h-205v-997h158v-238h-664v238h158v997h-205v-342h-237z" />
<glyph unicode="U" horiz-adv-x="1536" d="M43 1235v227h664v-227h-158v-666q0 -338 221 -338q213 0 213 338v666h-158v227h664v-227h-158v-666q0 -600 -571 -600q-297 0 -428 151.5t-131 448.5v666h-158z" />
<glyph unicode="V" horiz-adv-x="1515" d="M45 1235v227h643v-227h-133l221 -764l232 764h-160v227h625v-227h-138l-422 -1235h-305l-420 1235h-143z" />
<glyph unicode="W" horiz-adv-x="2076" d="M20 1235v227h598v-227h-124l206 -778l213 778h-118v227h510v-227h-121l213 -778l213 778h-119v227h551v-227h-127l-393 -1235h-281l-209 750l-205 -750h-282l-391 1235h-134z" />
<glyph unicode="X" horiz-adv-x="1552" d="M27 0v238h194l361 516l-334 481h-164v227h676v-227h-129l188 -264l182 264h-104v227h573v-227h-157l-342 -487l356 -510h191v-238h-715v238h141l-209 297l-211 -297h127v-238h-624z" />
<glyph unicode="Y" horiz-adv-x="1478" d="M23 1235v227h667v-227h-127l193 -326l188 326h-125v227h606v-227h-163l-377 -625v-372h157v-238h-663v238h158v409l-353 588h-161z" />
<glyph unicode="Z" horiz-adv-x="1241" d="M37 0v238l672 995h-387v-258h-238v487h1077v-211l-682 -1013h459v303h238v-541h-1139z" />
<glyph unicode="[" horiz-adv-x="899" d="M274 -313v1777h576v-198h-277v-1379h277v-200h-576z" />
<glyph unicode="\" horiz-adv-x="671" d="M-12 1489h172l577 -1686h-172z" />
<glyph unicode="]" horiz-adv-x="899" d="M47 -113h279v1379h-279v198h578v-1777h-578v200z" />
<glyph unicode="^" horiz-adv-x="2109" d="M428 926l496 577h260l495 -577h-243l-381 381l-383 -381h-244z" />
<glyph unicode="_" horiz-adv-x="1052" d="M-2 -287h1057v-213h-1057v213z" />
<glyph unicode="`" horiz-adv-x="1054" d="M227 1563h265l202 -383h-145z" />
<glyph unicode="a" horiz-adv-x="1165" d="M55 297q0 168 100.5 267.5t270.5 99.5q117 0 258 -58v64q0 199 -178 198q-127 0 -197 -94l-229 49q29 113 141.5 178.5t292.5 65.5q260 0 371.5 -91t111.5 -312v-435h138v-229h-451v72q-127 -102 -299 -103q-152 0 -241 88t-89 240zM365 317q0 -61 32.5 -99t87.5 -38 q90 0 199 99v118q-86 66 -172 66q-70 0 -108.5 -38t-38.5 -108z" />
<glyph unicode="b" horiz-adv-x="1308" d="M31 0v229h137v1008h-137v225h450v-567q141 147 316 147q195 0 322.5 -154.5t127.5 -398.5q0 -236 -123 -378t-317 -142q-201 0 -326 168v-137h-450zM481 510q0 -143 59.5 -223t159.5 -80q102 0 163 80t61 223t-60.5 222t-163 79t-161 -78t-58.5 -223z" />
<glyph unicode="c" horiz-adv-x="1171" d="M51 518q0 242 147.5 395.5t374.5 153.5q186 0 306 -119v94h223v-428h-236q-61 197 -250 197q-113 0 -177 -76t-64 -215q0 -143 63.5 -219t184.5 -76q178 0 262 197l245 -125q-166 -328 -524 -328q-248 0 -401.5 150.5t-153.5 398.5z" />
<glyph unicode="d" horiz-adv-x="1316" d="M61 489q0 244 128 398.5t323 154.5q174 0 315 -147v342h-137v225h451v-1233h137v-229h-451v137q-125 -168 -325 -168q-195 0 -318 142t-123 378zM385 510q0 -143 60.5 -223t162.5 -80q100 0 159.5 80t59.5 223t-58 222t-160.5 79t-163 -79t-60.5 -222z" />
<glyph unicode="e" horiz-adv-x="1196" d="M57 518q0 250 147.5 399.5t391.5 149.5q246 0 391.5 -157.5t145.5 -432.5v-16h-752q6 -125 70.5 -193.5t179.5 -68.5q143 0 229 141l244 -78q-59 -137 -192.5 -215t-315.5 -78q-242 0 -390.5 149.5t-148.5 399.5zM383 639h416q-6 90 -63.5 146.5t-145.5 56.5 t-144.5 -55.5t-62.5 -147.5z" />
<glyph unicode="f" horiz-adv-x="661" d="M23 0v229h137v590h-137v223h137v115q0 156 101 244t276 88q254 0 329 -205l-262 -96q-25 88 -76 88q-55 0 -55 -96v-138h137v-223h-137v-590h137v-229h-587z" />
<glyph unicode="g" horiz-adv-x="1304" d="M66 512q0 229 130 379.5t320 150.5q174 0 315 -155v155h451v-225h-137v-706q0 -248 -140.5 -363t-416.5 -115q-268 0 -453 127l158 179q166 -74 295 -74q244 0 243 225v68q-127 -158 -325 -158q-201 0 -320.5 137t-119.5 375zM389 510q0 -143 60.5 -223t162.5 -80 q100 0 159.5 82t59.5 223q0 145 -58 223t-160.5 78t-163 -80t-60.5 -223z" />
<glyph unicode="h" horiz-adv-x="1257" d="M23 0v229h137v1008h-137v225h450v-516q150 96 307 96q137 0 211 -89t74 -259v-465h137v-229h-450v618q0 92 -27 132.5t-90 40.5q-86 0 -162 -68v-494h137v-229h-587z" />
<glyph unicode="i" horiz-adv-x="667" d="M47 0v229h137v588h-137v225h451v-813h137v-229h-588zM164 1317q0 74 50 125t122 51q70 0 122 -52t52 -124q0 -70 -51 -120t-123 -50t-122 49t-50 121z" />
<glyph unicode="j" horiz-adv-x="608" d="M-70 -111q43 -6 52 -6q106 0 140 41t34 152v741h-138v225h451v-999q0 -211 -99.5 -311.5t-310.5 -100.5q-59 0 -129 13v245zM135 1311q0 74 50.5 125t121.5 51q70 0 122 -52.5t52 -123.5q0 -70 -51 -120t-122.5 -50t-122 49t-50.5 121z" />
<glyph unicode="k" horiz-adv-x="1282" d="M43 0v229h137v1008h-137v225h451v-1233h137v-229h-588zM500 524l331 293h-190v225h598v-225h-115l-286 -256l276 -332h125v-229h-309z" />
<glyph unicode="l" horiz-adv-x="684" d="M51 0v229h137v1008h-137v225h451v-1233h137v-229h-588z" />
<glyph unicode="m" horiz-adv-x="1839" d="M35 0v229h137v588h-137v225h450v-104q162 104 293 104q168 0 242 -120q215 121 348 120q293 0 293 -348v-465h137v-229h-450v616q0 92 -26 133.5t-89 41.5q-82 0 -160 -70v-492h137v-229h-450v616q0 92 -25.5 133.5t-87.5 41.5q-84 0 -162 -70v-492h138v-229h-588z" />
<glyph unicode="n" horiz-adv-x="1239" d="M35 0v229h137v588h-137v225h450v-104q162 104 303 104q137 0 211 -89t74 -259v-465h137v-229h-450v616q0 92 -26.5 133.5t-88.5 41.5q-82 0 -160 -70v-492h138v-229h-588z" />
<glyph unicode="o" horiz-adv-x="1220" d="M53 520q0 248 153.5 397.5t401.5 149.5t400.5 -150.5t152.5 -398.5q0 -246 -153.5 -397.5t-399.5 -151.5q-248 0 -401.5 150.5t-153.5 400.5zM377 520q0 -139 62.5 -217t169 -78t168 78t61.5 219q0 139 -61.5 214t-168 75t-169 -77t-62.5 -214z" />
<glyph unicode="p" horiz-adv-x="1300" d="M23 -113h137v930h-137v225h450v-147q139 147 315 147q195 0 323 -153.5t128 -399.5q0 -236 -123 -378t-317 -142q-201 0 -326 168v-250h137v-229h-587v229zM473 510q0 -141 59.5 -222t159.5 -81q102 0 162.5 80t60.5 223t-60 223t-162.5 80t-161 -79t-58.5 -224z" />
<glyph unicode="q" horiz-adv-x="1310" d="M61 489q0 246 128 399.5t323 153.5q174 0 315 -147v147h451v-225h-137v-930h137v-229h-588v229h137v250q-125 -168 -325 -168q-195 0 -318 142t-123 378zM385 510q0 -143 60.5 -223t162.5 -80q100 0 159.5 80t59.5 223t-59 223t-160 80q-102 0 -162.5 -80t-60.5 -223z " />
<glyph unicode="r" horiz-adv-x="872" d="M33 0v229h137v590h-137v223h422v-245q47 139 141 204.5t246 65.5v-322q-184 0 -271.5 -79.5t-87.5 -247.5v-189h138v-229h-588z" />
<glyph unicode="s" horiz-adv-x="1042" d="M66 739q0 147 98 237.5t260 90.5q127 0 262 -74v49h236v-301h-236q-61 115 -219 115q-55 0 -86 -21.5t-31 -58.5t34 -56.5t118 -35.5l170 -33q303 -59 303 -329q0 -156 -103.5 -254.5t-269.5 -98.5q-125 0 -268 70v-39h-244v367h244v-5q0 -82 57.5 -128t155.5 -46 q68 0 105.5 29t37.5 76q0 12 -2 22.5t-8 19.5t-11 15t-18.5 12.5t-21.5 10.5t-27.5 9t-30.5 7l-35 7q-26 5 -38 10l-181 40q-121 27 -186 102.5t-65 190.5z" />
<glyph unicode="t" horiz-adv-x="702" d="M39 819v223h119v119l313 264v-383h191v-223h-191v-448q0 -80 17.5 -111t70.5 -31q47 0 103 29v-233q-104 -53 -228 -54q-158 0 -217 66.5t-59 228.5v553h-119z" />
<glyph unicode="u" horiz-adv-x="1222" d="M20 817v225h451v-618q0 -109 22.5 -154t92.5 -45q84 0 159 68v524h-137v225h451v-813h137v-229h-451v74q-162 -104 -303 -105q-137 0 -210.5 89t-73.5 259v500h-138z" />
<glyph unicode="v" horiz-adv-x="1257" d="M20 817v225h594v-225h-125l168 -508l189 508h-127v225h520v-225h-149l-324 -817h-281l-319 817h-146z" />
<glyph unicode="w" horiz-adv-x="1806" d="M37 817v225h561v-225h-115l129 -465l199 690h266l203 -690l135 465h-108v225h465v-225h-146l-248 -817h-272l-203 664l-188 -664h-283l-250 817h-145z" />
<glyph unicode="x" horiz-adv-x="1118" d="M16 0v229h146l211 281l-217 307h-115v225h336l190 -290l205 290h281v-225h-135l-199 -268l225 -320h150v-229h-367l-201 307l-221 -307h-289z" />
<glyph unicode="y" horiz-adv-x="1269" d="M39 817v225h569v-225h-116l190 -461l168 461h-109v225h488v-225h-135l-457 -1159h-369v229h224l43 109l-359 821h-137z" />
<glyph unicode="z" horiz-adv-x="1024" d="M31 0v211l587 620h-331v-149h-211v360h897v-225l-574 -606h371v162h209v-373h-948z" />
<glyph unicode="{" horiz-adv-x="1054" d="M164 438v217q16 -4 41 -4q127 0 179 61.5t52 200.5v258q0 211 85 282t310 71q45 0 78 -4v-215q-25 4 -47 4q-111 0 -144.5 -43t-33.5 -164v-248q0 -143 -43 -211t-170 -96q127 -29 170 -95.5t43 -209.5v-250q0 -121 34 -163t144 -42q18 0 47 4v-215q-37 -4 -78 -4 q-225 0 -310 70.5t-85 279.5v260q0 139 -52 199.5t-179 60.5q-25 0 -41 -4z" />
<glyph unicode="|" horiz-adv-x="1052" d="M420 -498v2110h215v-2110h-215z" />
<glyph unicode="}" horiz-adv-x="1054" d="M147 -209q29 -4 48 -4q111 0 144.5 43t33.5 162v248q0 145 42 211.5t171 95.5q-127 29 -170 96.5t-43 210.5v250q0 119 -34 162t-144 43q-27 0 -48 -4v213q25 4 70 4q242 0 323 -69t81 -282v-260q0 -139 52 -199.5t179 -60.5q20 0 41 4v-221q-20 4 -37 4q-129 0 -182 -58 t-53 -198v-260q0 -213 -81 -281.5t-315 -68.5q-29 0 -78 4v215z" />
<glyph unicode="~" horiz-adv-x="1757" d="M184 430v227q219 150 400 150q127 0 320.5 -68.5t285.5 -68.5q174 0 387 157v-227q-205 -141 -391 -141q-100 0 -292 66.5t-312 66.5q-175 0 -398 -162z" />
<glyph unicode="&#xa9;" horiz-adv-x="1757" d="M115 756q0 201 96 376t273.5 283.5t394.5 108.5q326 0 547 -224.5t221 -543.5q0 -322 -228.5 -544t-540 -222t-538.5 227q-225 226 -225 539zM242 758q0 -260 189.5 -449.5t449.5 -189.5q258 0 448.5 186.5t190.5 452.5q0 260 -187.5 449.5t-451.5 189.5 q-276 0 -457.5 -190.5t-181.5 -448.5zM467 752q0 213 113.5 339t302.5 126q158 0 258 -81t108 -212h-194q-8 74 -54.5 113.5t-121.5 39.5q-92 0 -146.5 -84t-54.5 -235q0 -309 209 -309q154 0 176 165h197q-8 -143 -112 -230t-267 -87q-190 0 -302 122t-112 333z" />
<glyph unicode="&#xab;" horiz-adv-x="974" d="M59 520l269 322h219l-266 -322l266 -323h-219zM428 520l268 322h219l-266 -322l266 -323h-219z" />
<glyph unicode="&#xad;" horiz-adv-x="702" d="M78 395v273h547v-273h-547z" />
<glyph unicode="&#xae;" horiz-adv-x="1757" d="M115 756q0 203 95 378t272 282.5t397 107.5q326 0 547 -226.5t221 -541.5q0 -317 -227.5 -541.5t-540.5 -224.5q-311 0 -537.5 226.5t-226.5 539.5zM242 758q0 -268 188 -454.5t448.5 -186.5t451 185t190.5 443q0 272 -180.5 462t-458.5 190q-276 0 -457.5 -190.5 t-181.5 -448.5zM561 346v850h334q362 0 362 -244q0 -84 -49 -143t-135 -82l189 -381h-230l-162 348h-102v-348h-207zM768 819h102q90 0 132 29t42 92q0 125 -184 125h-92v-246z" />
<glyph unicode="&#xbb;" horiz-adv-x="974" d="M53 197l269 323l-269 322h221l269 -322l-269 -323h-221zM422 197l266 323l-266 322h219l270 -322l-270 -323h-219z" />
<glyph unicode="&#x2c6;" horiz-adv-x="2109" d="M428 926l496 577h260l495 -577h-243l-381 381l-383 -381h-244z" />
<glyph unicode="&#x400;" horiz-adv-x="1331" d="M264 1995h265l202 -383h-145zM43 0v238h158v997h-158v227h1231v-452h-264v225h-461v-358h383v-240h-383v-399h461v239h264v-477h-1231z" />
<glyph unicode="&#x401;" horiz-adv-x="1331" d="M43 0v238h158v997h-158v227h1231v-452h-264v225h-461v-358h383v-240h-383v-399h461v239h264v-477h-1231zM281 1786q0 74 50 125t122 51q70 0 122 -52t52 -124q0 -70 -51.5 -120t-123 -50t-121.5 49t-50 121zM741 1786q0 74 50.5 125t121.5 51q70 0 122 -52t52 -124 q0 -70 -51 -120t-122.5 -50t-122 49t-50.5 121z" />
<glyph unicode="&#x404;" horiz-adv-x="1599" d="M61 729q0 336 208 548t536 212q289 0 452 -182v155h220v-506h-220q-80 145 -177 214t-228 69q-156 0 -257 -95t-132 -270h467v-237h-475q20 -193 126.5 -299.5t274.5 -106.5q154 0 263.5 94.5t166.5 274.5l260 -125q-86 -246 -269 -376t-448 -130q-332 0 -550 216 t-218 544z" />
<glyph unicode="&#x405;" horiz-adv-x="1757" d="M285 164l465 465l-465 467l143 143l465 -465l465 465l145 -143l-465 -467l465 -465l-145 -144l-465 465l-465 -465z" />
<glyph unicode="&#x406;" horiz-adv-x="770" d="M45 0v238h158v997h-158v227h664v-227h-158v-997h158v-238h-664z" />
<glyph unicode="&#x407;" horiz-adv-x="737" d="M-31 1794q0 74 50.5 125t121.5 51q70 0 122 -52t52 -124q0 -70 -51 -120t-122.5 -50t-122 49t-50.5 121zM33 0v238h157v997h-157v227h663v-227h-157v-997h157v-238h-663zM430 1794q0 74 50 125t122 51q70 0 122 -52t52 -124q0 -70 -51 -120t-123 -50t-122 49t-50 121z " />
<glyph unicode="&#x408;" d="M10 219q0 109 68.5 179.5t173.5 70.5q76 0 162 -31q4 20 4 37q0 82 -31 152h-317v194h213q-109 201 -109 328q0 158 117 249t323 91q389 0 412 -385l-231 -27q-10 119 -51.5 172.5t-129.5 53.5q-68 0 -109.5 -42t-41.5 -110q0 -29 11 -68t23.5 -67.5t43 -94t45.5 -100.5 h274v-194h-223q8 -59 8 -107q0 -96 -33 -196q125 -47 164 -48q70 0 104.5 49.5t45.5 155.5l157 -37q-18 -242 -91.5 -358.5t-211.5 -116.5q-133 0 -262 129q-113 -129 -266 -129q-104 0 -173 69.5t-69 180.5zM166 238q0 -45 25.5 -72t66.5 -27q70 0 123 94q-74 84 -135 84 q-80 1 -80 -79z" />
<glyph unicode="&#x40d;" horiz-adv-x="1566" d="M385 1995h265l202 -383h-145zM43 0v238h158v997h-158v227h664v-227h-158v-703l452 930h515v-227h-158v-997h158v-238h-664v238h158v682l-453 -920h-514z" />
<glyph unicode="&#x40e;" horiz-adv-x="1513" d="M43 1235v227h649v-227h-129l230 -479l217 479h-125v227h598v-227h-164l-447 -948q-80 -172 -171 -245t-216 -73q-80 0 -170 23v260q45 -20 107 -21q76 0 111.5 21.5t68.5 89.5l21 45l-418 848h-162zM428 1927h205q8 -70 49 -107.5t104 -37.5q135 0 154 145h205 q0 -145 -92 -238.5t-267 -93.5q-172 0 -265 94.5t-93 237.5z" />
<glyph unicode="&#x410;" horiz-adv-x="1652" d="M57 0v238h160l324 997h-199v227h977v-227h-176l325 -997h134v-238h-650v238h156l-80 274h-424l-78 -274h162v-238h-631zM659 702h318l-158 541z" />
<glyph unicode="&#x411;" horiz-adv-x="1343" d="M43 0v238h158v997h-158v227h1165v-452h-264v225h-395v-330h223q244 0 374 -120.5t130 -329.5t-131 -332t-375 -123h-727zM549 238h98q252 0 252 217q0 102 -66.5 157.5t-185.5 55.5h-98v-430z" />
<glyph unicode="&#x412;" horiz-adv-x="1333" d="M33 0v238h157v997h-157v227h639q530 0 530 -389q0 -115 -52 -184.5t-171 -110.5q270 -100 270 -366q0 -203 -128 -307.5t-378 -104.5h-710zM539 238h108q133 0 193.5 42t60.5 144q0 229 -276 229h-86v-415zM539 868h88q231 0 231 187q0 100 -52 140t-171 40h-96v-367z " />
<glyph unicode="&#x413;" horiz-adv-x="1261" d="M43 0v238h158v997h-158v227h1188v-452h-262v225h-420v-997h158v-238h-664z" />
<glyph unicode="&#x414;" horiz-adv-x="1523" d="M43 238h133q94 188 125 313t31 391v293h-146v227h1274v-227h-157v-997h157v-537h-274v299h-869v-299h-274v537zM483 238h471v997h-336v-270q0 -266 -26.5 -416.5t-108.5 -310.5z" />
<glyph unicode="&#x415;" horiz-adv-x="1331" d="M43 0v238h158v997h-158v227h1231v-452h-264v225h-461v-358h383v-240h-383v-399h461v239h264v-477h-1231z" />
<glyph unicode="&#x416;" horiz-adv-x="2406" d="M31 0v238h157l455 577l-401 420h-121v227h604v-227h-160l445 -461l-408 -536h154v-238h-725zM864 0v238h158v997h-158v227h664v-227h-158v-997h158v-238h-664zM1382 774l445 461h-160v227h604v-227h-121l-401 -420l455 -577h157v-238h-725v238h154z" />
<glyph unicode="&#x417;" horiz-adv-x="1333" d="M66 375l249 121q74 -264 312 -265q272 0 272 211q0 205 -268 205h-94v240h90q231 0 231 178q0 78 -54 126t-151 48q-115 0 -182.5 -58.5t-128.5 -187.5h-217v469h217v-133q72 74 156 117t213 43q215 0 353 -104.5t138 -280.5q0 -113 -66.5 -203t-164.5 -110 q285 -104 284 -381q0 -201 -160.5 -321t-432.5 -120q-475 0 -596 406z" />
<glyph unicode="&#x418;" horiz-adv-x="1566" d="M43 0v238h158v997h-158v227h664v-227h-158v-703l452 930h515v-227h-158v-997h158v-238h-664v238h158v682l-453 -920h-514z" />
<glyph unicode="&#x419;" horiz-adv-x="1566" d="M43 0v238h158v997h-158v227h664v-227h-158v-703l452 930h515v-227h-158v-997h158v-238h-664v238h158v682l-453 -920h-514zM451 1921h204q16 -145 153.5 -145t152.5 145h206q0 -143 -93 -237.5t-265 -94.5t-265 94.5t-93 237.5z" />
<glyph unicode="&#x41a;" horiz-adv-x="1570" d="M43 0v238h158v997h-158v227h664v-227h-158v-997h158v-238h-664zM559 774l445 461h-160v227h604v-227h-121l-401 -420l454 -577h158v-238h-725v238h156z" />
<glyph unicode="&#x41b;" horiz-adv-x="1517" d="M6 -12v260q37 -16 113 -17q86 0 127 90.5t41 354.5v559h-158v227h1329v-227h-158v-997h158v-238h-663v238h157v997h-379v-504q0 -420 -102 -591t-301 -171q-64 1 -164 19z" />
<glyph unicode="&#x41c;" horiz-adv-x="2027" d="M43 0v238h158v997h-158v227h614l322 -901l330 901h651v-227h-158v-997h158v-238h-664v238h158v997l-450 -1235h-134l-442 1235v-997h152v-238h-537z" />
<glyph unicode="&#x41d;" horiz-adv-x="1536" d="M43 0v238h158v997h-158v227h664v-227h-158v-336h436v336h-158v227h664v-227h-158v-997h158v-238h-664v238h158v424h-436v-424h158v-238h-664z" />
<glyph unicode="&#x41e;" horiz-adv-x="1650" d="M63 729q0 334 216.5 547t558.5 213q330 0 539.5 -212t209.5 -548t-214 -548t-548 -212q-332 0 -547 215t-215 545zM453 735.5q0 -229.5 104.5 -366t268 -136.5t268 136.5t104.5 366t-103.5 365.5t-269.5 136t-269 -136t-103 -365.5z" />
<glyph unicode="&#x41f;" horiz-adv-x="1515" d="M33 0v238h157v997h-157v227h1448v-227h-158v-997h158v-238h-664v238h158v997h-436v-997h157v-238h-663z" />
<glyph unicode="&#x420;" horiz-adv-x="1363" d="M43 0v238h158v997h-158v227h694q289 0 424 -108.5t135 -345.5q0 -240 -136 -353.5t-423 -113.5h-188v-303h158v-238h-664zM549 780h76q156 0 226.5 52.5t70.5 175t-71 175t-226 52.5h-76v-455z" />
<glyph unicode="&#x421;" horiz-adv-x="1599" d="M61 729q0 328 209 544t535 216q289 0 452 -182v155h220v-506h-220q-80 145 -177 214t-228 69q-186 0 -293.5 -134t-107.5 -369.5t108.5 -370t296.5 -134.5q154 0 263.5 94.5t166.5 274.5l260 -125q-86 -246 -269 -376t-448 -130q-332 0 -550 216t-218 544z" />
<glyph unicode="&#x422;" horiz-adv-x="1288" d="M23 893v569h1232v-569h-237v342h-205v-997h158v-238h-664v238h158v997h-205v-342h-237z" />
<glyph unicode="&#x423;" horiz-adv-x="1497" d="M35 1235v227h649v-227h-129l229 -477l217 477h-124v227h598v-227h-164l-447 -948q-80 -170 -171 -244t-216 -74q-72 0 -170 25v258q45 -20 107 -21q76 0 112.5 22.5t67.5 90.5l20 43l-417 848h-162z" />
<glyph unicode="&#x424;" horiz-adv-x="1787" d="M43 733q0 233 149.5 338t458.5 105h62v59h-158v227h664v-227h-158v-59h61q309 0 459 -104.5t150 -338.5q0 -229 -132.5 -332.5t-455.5 -103.5h-82v-59h158v-238h-664v238h158v59h-82q-324 0 -456 103.5t-132 332.5zM420 739q0 -109 64.5 -161t228.5 -52v420 q-170 0 -231.5 -48t-61.5 -159zM1061 526q164 0 228.5 52.5t64.5 160.5q0 111 -61.5 159t-231.5 48v-420z" />
<glyph unicode="&#x425;" horiz-adv-x="1552" d="M27 0v238h194l361 516l-334 481h-164v227h676v-227h-129l188 -264l182 264h-104v227h573v-227h-157l-342 -487l356 -510h191v-238h-715v238h141l-209 297l-211 -297h127v-238h-624z" />
<glyph unicode="&#x426;" horiz-adv-x="1546" d="M43 0v238h158v997h-158v227h664v-227h-158v-997h436v997h-158v227h664v-227h-158v-997h158v-537h-277v299h-1171z" />
<glyph unicode="&#x427;" horiz-adv-x="1546" d="M43 1235v227h664v-227h-158v-166q0 -104 46 -145t157 -41q102 0 233 32v320h-158v227h664v-227h-158v-997h158v-238h-664v238h158v415q-197 -33 -305 -32q-225 0 -352 104t-127 315v195h-158z" />
<glyph unicode="&#x428;" horiz-adv-x="2199" d="M43 0v238h143v997h-143v227h635v-227h-143v-997h374v997h-143v227h635v-227h-144v-997h375v997h-143v227h635v-227h-144v-997h144v-238h-2081z" />
<glyph unicode="&#x429;" horiz-adv-x="2199" d="M43 0v238h143v997h-143v227h635v-227h-143v-997h374v997h-143v227h635v-227h-144v-997h375v997h-143v227h635v-227h-144v-997h144v-537h-275v299h-1806z" />
<glyph unicode="&#x42a;" horiz-adv-x="1619" d="M45 979v483h944v-227h-166v-330h224q244 0 373.5 -120.5t129.5 -329.5t-131 -332t-375 -123h-727v238h158v997h-190v-256h-240zM823 238h99q252 0 252 217q0 102 -67 157.5t-185 55.5h-99v-430z" />
<glyph unicode="&#x42b;" horiz-adv-x="2058" d="M43 0v238h158v997h-158v227h664v-227h-158v-330h223q244 0 374 -120.5t130 -329.5t-131 -332t-375 -123h-727zM549 238h98q252 0 252 217q0 102 -66.5 157.5t-185.5 55.5h-98v-430zM1350 0v238h157v997h-157v227h663v-227h-158v-997h158v-238h-663z" />
<glyph unicode="&#x42c;" horiz-adv-x="1343" d="M43 0v238h158v997h-158v227h664v-227h-158v-330h223q244 0 374 -120.5t130 -329.5t-131 -332t-375 -123h-727zM549 238h98q252 0 252 217q0 102 -66.5 157.5t-185.5 55.5h-98v-430z" />
<glyph unicode="&#x42d;" horiz-adv-x="1599" d="M59 475l260 125q57 -180 167 -274.5t264 -94.5q166 0 268 106.5t125 299.5h-467v237h467q-31 174 -132.5 269.5t-256.5 95.5q-131 0 -228.5 -68.5t-177.5 -214.5h-219v506h219v-155q164 182 453 182q326 0 534.5 -215t208.5 -545q0 -328 -218 -544t-550 -216 q-264 0 -447.5 130t-269.5 376z" />
<glyph unicode="&#x42e;" horiz-adv-x="2406" d="M43 0v238h158v997h-158v227h664v-227h-158v-338h274q72 276 279 434t493 158q332 0 540 -215t208 -545t-214 -545t-546 -215q-324 0 -531.5 191.5t-228.5 498.5h-274v-421h158v-238h-664zM1212 735.5q0 -229.5 102.5 -366t268.5 -136.5q164 0 267.5 136.5t103.5 366 t-102.5 365.5t-268.5 136t-268.5 -136t-102.5 -365.5z" />
<glyph unicode="&#x42f;" horiz-adv-x="1472" d="M27 0v238h166l202 399q-199 113 -198 371q0 209 131 331.5t374 122.5h738v-227h-158v-997h158v-238h-664v238h158v329h-207l-291 -567h-409zM573 1022q0 -104 68 -160.5t186 -56.5h107v430h-107q-254 0 -254 -213z" />
<glyph unicode="&#x430;" horiz-adv-x="1165" d="M55 297q0 168 100.5 267.5t270.5 99.5q117 0 258 -58v64q0 199 -178 198q-127 0 -197 -94l-229 49q29 113 141.5 178.5t292.5 65.5q260 0 371.5 -91t111.5 -312v-435h138v-229h-451v72q-127 -102 -299 -103q-152 0 -241 88t-89 240zM365 317q0 -61 32.5 -99t87.5 -38 q90 0 199 99v118q-86 66 -172 66q-70 0 -108.5 -38t-38.5 -108z" />
<glyph unicode="&#x431;" horiz-adv-x="1220" d="M70 633q0 369 151.5 547t444.5 217q117 14 164 31.5t61 56.5h252q-29 -178 -118 -242.5t-269 -85.5q-207 -23 -300.5 -87t-125.5 -210q115 168 323 168q225 0 361.5 -132t136.5 -374q0 -248 -148.5 -400.5t-394.5 -152.5q-254 0 -396 167t-142 497zM387 500 q0 -131 58.5 -203t163 -72t161.5 74t57 203q0 135 -56 209.5t-163 74.5q-100 0 -160.5 -78.5t-60.5 -207.5z" />
<glyph unicode="&#x432;" horiz-adv-x="1073" d="M35 0v229h137v588h-137v225h602q178 0 266 -72.5t88 -199.5q0 -86 -50 -142.5t-128 -82.5q207 -70 207 -238q0 -160 -95.5 -233.5t-299.5 -73.5h-590zM485 229h113q123 0 123 103q0 51 -35 79.5t-96 28.5h-105v-211zM485 616h82q129 0 129 100.5t-127 100.5h-84v-201z " />
<glyph unicode="&#x433;" horiz-adv-x="1032" d="M33 0v229h137v588h-137v225h973v-360h-211v135h-312v-588h138v-229h-588z" />
<glyph unicode="&#x434;" horiz-adv-x="1200" d="M31 229h116q61 131 85 222.5t24 244.5v121h-127v225h1042v-225h-127v-588h127v-465h-241v236h-658v-236h-241v465zM410 229h321v588h-221v-137q0 -98 -13.5 -177t-29.5 -126.5t-57 -147.5z" />
<glyph unicode="&#x435;" horiz-adv-x="1196" d="M57 518q0 250 147.5 399.5t391.5 149.5q246 0 391.5 -157.5t145.5 -432.5v-16h-752q6 -125 70.5 -193.5t179.5 -68.5q143 0 229 141l244 -78q-59 -137 -192.5 -215t-315.5 -78q-242 0 -390.5 149.5t-148.5 399.5zM383 639h416q-6 90 -63.5 146.5t-145.5 56.5 t-144.5 -55.5t-62.5 -147.5z" />
<glyph unicode="&#x436;" horiz-adv-x="1873" d="M29 0h309l430 524l-332 293h103v225h-510v-225h114l287 -256l-276 -332h-125v-229zM639 0v229h137v588h-137v225h588v-225h-137v-588h137v-229h-588zM1098 524l332 293h-103v225h510v-225h-115l-286 -256l276 -332h125v-229h-309z" />
<glyph unicode="&#x437;" horiz-adv-x="1046" d="M41 244l240 104q23 -66 78 -105.5t137 -39.5q174 0 174 114.5t-172 114.5h-54v209h66q137 0 137 94q0 102 -139 103q-66 0 -116 -50.5t-75 -123.5h-235v378h223v-94q98 119 273 119q160 0 265 -74.5t105 -214.5q0 -90 -51 -152.5t-119 -76.5q215 -66 215 -254 q0 -156 -119.5 -241t-341.5 -85q-182 0 -289.5 60.5t-201.5 214.5z" />
<glyph unicode="&#x438;" horiz-adv-x="1271" d="M35 817v225h588v-225h-138v-377l338 602h414v-225h-125v-588h137v-229h-587v229h137v375l-350 -604h-402v229h125v588h-137z" />
<glyph unicode="&#x439;" horiz-adv-x="1271" d="M35 817v225h588v-225h-138v-377l338 602h414v-225h-125v-588h137v-229h-587v229h137v375l-350 -604h-402v229h125v588h-137zM328 1456h204q8 -70 49.5 -107.5t104.5 -37.5q135 0 152 145h206q0 -143 -93 -236.5t-265 -93.5q-174 0 -266 93.5t-92 236.5z" />
<glyph unicode="&#x43a;" horiz-adv-x="1243" d="M23 0v229h137v588h-137v225h587v-225h-137v-588h137v-229h-587zM483 524l332 293h-104v225h510v-225h-113l-287 -256l277 -332h123v-229h-308z" />
<glyph unicode="&#x43b;" horiz-adv-x="1236" d="M20 -14v243q23 -10 80 -10q172 0 172 449v149h-127v225h1055v-225h-137v-588h137v-229h-588v229h138v588h-224v-256q0 -268 -92 -430t-297 -162q-72 1 -117 17z" />
<glyph unicode="&#x43c;" horiz-adv-x="1533" d="M43 0h444v229h-96v586l275 -815h114l285 817v-588h-96v-229h516v229h-119v588h119v225h-537l-184 -534l-182 534h-539v-225h119v-588h-119v-229z" />
<glyph unicode="&#x43d;" horiz-adv-x="1251" d="M35 0v229h125v588h-125v225h536v-225h-98v-168h313v168h-98v225h537v-225h-125v-588h125v-229h-537v229h98v211h-313v-211h98v-229h-536z" />
<glyph unicode="&#x43e;" horiz-adv-x="1220" d="M53 520q0 248 153.5 397.5t401.5 149.5t400.5 -150.5t152.5 -398.5q0 -246 -153.5 -397.5t-399.5 -151.5q-248 0 -401.5 150.5t-153.5 400.5zM377 520q0 -139 62.5 -217t169 -78t168 78t61.5 219q0 139 -61.5 214t-168 75t-169 -77t-62.5 -214z" />
<glyph unicode="&#x43f;" horiz-adv-x="1253" d="M35 0v229h125v588h-125v225h1190v-225h-125v-588h125v-229h-537v229h98v588h-313v-588h98v-229h-536z" />
<glyph unicode="&#x440;" horiz-adv-x="1300" d="M23 -113h137v930h-137v225h450v-147q139 147 315 147q195 0 323 -153.5t128 -399.5q0 -236 -123 -378t-317 -142q-201 0 -326 168v-250h137v-229h-587v229zM473 510q0 -141 59.5 -222t159.5 -81q102 0 162.5 80t60.5 223t-60 223t-162.5 80t-161 -79t-58.5 -224z" />
<glyph unicode="&#x441;" horiz-adv-x="1171" d="M51 518q0 242 147.5 395.5t374.5 153.5q186 0 306 -119v94h223v-428h-236q-61 197 -250 197q-113 0 -177 -76t-64 -215q0 -143 63.5 -219t184.5 -76q178 0 262 197l245 -125q-166 -328 -524 -328q-248 0 -401.5 150.5t-153.5 398.5z" />
<glyph unicode="&#x442;" horiz-adv-x="1062" d="M31 610v432h1005v-432h-211v207h-135v-588h137v-229h-587v229h137v588h-135v-207h-211z" />
<glyph unicode="&#x443;" horiz-adv-x="1269" d="M39 817v225h569v-225h-116l190 -461l168 461h-109v225h488v-225h-135l-457 -1159h-369v229h224l43 109l-359 821h-137z" />
<glyph unicode="&#x444;" horiz-adv-x="1767" d="M59 489q0 246 127 399.5t322 153.5q125 0 217 -88v283h-137v225h450v-508q92 88 217 88q195 0 322 -153.5t127 -399.5q0 -236 -121 -378t-315 -142q-160 0 -230 103v-185h138v-229h-588v229h137v185q-70 -102 -227 -103q-195 0 -317 142t-122 378zM383 510 q0 -143 60.5 -223t162.5 -80q66 0 119 41v524q-59 41 -119 41q-102 0 -162.5 -80t-60.5 -223zM1038 248q53 -41 119 -41q102 0 162.5 80t60.5 223t-60 223t-163 80q-59 0 -119 -41v-524z" />
<glyph unicode="&#x445;" horiz-adv-x="1118" d="M16 0v229h146l211 281l-217 307h-115v225h336l190 -290l205 290h281v-225h-135l-199 -268l225 -320h150v-229h-367l-201 307l-221 -307h-289z" />
<glyph unicode="&#x446;" horiz-adv-x="1253" d="M35 0v231h125v586h-125v225h536v-225h-98v-586h313v586h-98v225h537v-225h-125v-586h125v-467h-242v236h-948z" />
<glyph unicode="&#x447;" horiz-adv-x="1261" d="M35 817v225h536v-225h-98v-92q0 -61 29.5 -86t93.5 -25q104 0 190 29v174h-98v225h537v-225h-125v-588h125v-229h-537v229h98v197q-152 -33 -274 -33q-190 0 -271 82t-81 254v88h-125z" />
<glyph unicode="&#x448;" horiz-adv-x="1812" d="M35 0v229h125v588h-125v225h536v-225h-98v-588h279v588h-99v225h510v-225h-98v-588h278v588h-98v225h537v-225h-125v-588h125v-229h-1747z" />
<glyph unicode="&#x449;" horiz-adv-x="1828" d="M35 0v229h125v588h-125v225h536v-225h-98v-588h279v588h-99v225h510v-225h-98v-588h278v588h-98v225h537v-225h-125v-588h125v-467h-242v238h-1505z" />
<glyph unicode="&#x44a;" horiz-adv-x="1239" d="M12 666v376h807v-225h-137v-160h121q186 0 289.5 -81.5t103.5 -237.5q0 -160 -104.5 -249t-288.5 -89h-572v229h138v588h-146v-151h-211zM682 229h86q129 0 129 103q0 109 -131 108h-84v-211z" />
<glyph unicode="&#x44b;" horiz-adv-x="1699" d="M39 0v229h137v588h-137v225h588v-225h-138v-160h121q186 0 290 -81.5t104 -237.5q0 -160 -104.5 -249t-289.5 -89h-571zM489 229h86q129 0 130 103q0 109 -132 108h-84v-211zM1065 0v229h137v588h-137v225h588v-225h-137v-588h137v-229h-588z" />
<glyph unicode="&#x44c;" horiz-adv-x="1048" d="M39 0v229h137v588h-137v225h588v-225h-138v-160h121q186 0 290 -81.5t104 -237.5q0 -160 -104.5 -249t-289.5 -89h-571zM489 229h86q129 0 130 103q0 109 -132 108h-84v-211z" />
<glyph unicode="&#x44d;" horiz-adv-x="1171" d="M45 297l246 125q84 -197 262 -197q207 0 242 215h-281v176h279q-41 195 -231.5 195t-252.5 -195h-235v426h223v-94q119 119 305 119q227 0 371.5 -153.5t144.5 -395.5q0 -250 -150.5 -399.5t-398.5 -149.5q-358 0 -524 328z" />
<glyph unicode="&#x44e;" horiz-adv-x="1806" d="M18 0v229h138v588h-138v225h588v-225h-137v-168h190q37 195 180.5 306.5t354.5 111.5q250 0 403.5 -147.5t153.5 -395.5q0 -246 -155.5 -400.5t-401.5 -154.5q-227 0 -373.5 127t-169.5 344h-182v-211h137v-229h-588zM963 520q0 -139 62 -217t168.5 -78t170 78t63.5 217 q0 137 -63.5 214t-170 77t-168.5 -77t-62 -214z" />
<glyph unicode="&#x44f;" horiz-adv-x="1128" d="M16 0v229h125l144 234q-55 35 -96.5 103.5t-41.5 146.5q0 158 104.5 243.5t291.5 85.5h557v-225h-125v-588h125v-229h-537v229h99v166h-93l-233 -395h-320zM446 715q0 -111 129 -111h87v213h-87q-129 0 -129 -102z" />
<glyph unicode="&#x450;" horiz-adv-x="1196" d="M202 1573h265l202 -383h-145zM57 518q0 250 147.5 399.5t391.5 149.5q246 0 391.5 -157.5t145.5 -432.5v-16h-752q6 -125 70.5 -193.5t179.5 -68.5q143 0 229 141l244 -78q-59 -137 -192.5 -215t-315.5 -78q-242 0 -390.5 149.5t-148.5 399.5zM383 639h416 q-6 90 -63.5 146.5t-145.5 56.5t-144.5 -55.5t-62.5 -147.5z" />
<glyph unicode="&#x451;" horiz-adv-x="1196" d="M57 518q0 250 147.5 399.5t391.5 149.5q246 0 391.5 -157.5t145.5 -432.5v-16h-752q6 -125 70.5 -193.5t179.5 -68.5q143 0 229 141l244 -78q-59 -137 -192.5 -215t-315.5 -78q-242 0 -390.5 149.5t-148.5 399.5zM197 1309q0 74 50 125t122 51q70 0 122 -52.5t52 -123.5 q0 -70 -51.5 -120t-123 -50t-121.5 49t-50 121zM383 639h416q-6 90 -63.5 146.5t-145.5 56.5t-144.5 -55.5t-62.5 -147.5zM657 1309q0 74 50.5 125t121.5 51q70 0 122.5 -52.5t52.5 -123.5q0 -70 -51.5 -120t-123 -50t-122 49t-50.5 121z" />
<glyph unicode="&#x453;" d="M2 -248l47 246q78 -47 119 -47q76 0 106.5 73.5t61.5 272.5l72 440h-230v226h256l27 143q84 457 405 457q109 0 211 -56l-43 -254q-72 43 -116 43q-125 0 -154 -194l-19 -139h207v-226h-241l-54 -346q-59 -381 -151 -543.5t-293 -162.5q-121 -1 -211 67z" />
<glyph unicode="&#x454;" horiz-adv-x="1171" d="M57 518q0 242 144.5 395.5t371.5 153.5q186 0 306 -119v94h223v-426h-234q-61 197 -252 197q-92 0 -152.5 -51t-80.5 -146h279v-176h-281q35 -215 242 -215q178 0 262 197l245 -125q-166 -328 -524 -328q-248 0 -398.5 149.5t-150.5 399.5z" />
<glyph unicode="&#x455;" horiz-adv-x="1734" d="M37 893v25h166q6 -156 114 -156q53 0 84 33.5t31 93.5q0 129 -162 129v127h4q145 0 146 115q0 92 -88 92t-101 -117h-155q0 111 72.5 175.5t197.5 64.5q119 0 189.5 -59.5t70.5 -155.5q0 -137 -155 -183q184 -41 184 -205q0 -111 -84 -180t-219 -69q-141 0 -218 70.5 t-77 199.5zM332 -31l870 1520h184l-866 -1520h-188zM1038 315l400 516h155v-497h103v-115h-103v-92h97v-127h-371v127h96v92h-340q-14 59 -37 96zM1190 328h229l4 307z" />
<glyph unicode="&#x456;" horiz-adv-x="667" d="M47 0v229h137v588h-137v225h451v-813h137v-229h-588zM164 1317q0 74 50 125t122 51q70 0 122 -52t52 -124q0 -70 -51 -120t-123 -50t-122 49t-50 121z" />
<glyph unicode="&#x457;" horiz-adv-x="665" d="M-70 1317q0 74 50.5 125t121.5 51q70 0 122 -52t52 -124q0 -70 -51 -120t-122.5 -50t-122 49t-50.5 121zM45 0v229h137v588h-137v225h451v-813h137v-229h-588zM391 1317q0 74 50.5 125t121.5 51q70 0 122 -52t52 -124q0 -70 -51 -120t-122.5 -50t-122 49t-50.5 121z" />
<glyph unicode="&#x458;" horiz-adv-x="1757" d="M260 528v203h1235v-203h-1235zM723 223q0 66 46 111t109.5 45t109.5 -46t46 -110q0 -61 -46 -108t-109.5 -47t-109.5 46t-46 109zM723 1034q0 66 46 111t109.5 45t109.5 -46t46 -109.5t-45 -109.5t-110 -46q-63 0 -109.5 46t-46.5 109z" />
<glyph unicode="&#x45d;" horiz-adv-x="1271" d="M241 1573h265l202 -383h-145zM35 817v225h588v-225h-138v-377l338 602h414v-225h-125v-588h137v-229h-587v229h137v375l-350 -604h-402v229h125v588h-137z" />
<glyph unicode="&#x45e;" horiz-adv-x="1251" d="M29 817v225h569v-225h-117l191 -461l166 461h-107v225h488v-225h-138l-454 -1159h-369v223h219l47 115l-360 821h-135zM303 1464h205q18 -145 155.5 -145t151.5 145h207q0 -143 -93 -237t-265 -94q-174 0 -267.5 94t-93.5 237z" />
<glyph unicode="&#x490;" horiz-adv-x="1269" d="M-57 1235v227h647v-227h-139l208 -363l215 363h-133v227h580v-227h-166l-131 -223h186v-135h-270l-88 -140h358v-135h-428v-364h187v-238h-701v238h191v364h-402v135h346l-81 140h-265v135h183l-134 223h-163z" />
<glyph unicode="&#x491;" horiz-adv-x="1054" d="M360 1180l203 383h264l-321 -383h-146z" />
<glyph unicode="&#x4ae;" horiz-adv-x="1478" d="M23 1235v227h667v-227h-127l193 -326l188 326h-125v227h606v-227h-163l-377 -625v-372h157v-238h-663v238h158v409l-353 588h-161z" />
<glyph unicode="&#x4c0;" horiz-adv-x="770" d="M45 0v238h158v997h-158v227h664v-227h-158v-997h158v-238h-664z" />
<glyph unicode="&#x2000;" horiz-adv-x="997" />
<glyph unicode="&#x2001;" horiz-adv-x="1994" />
<glyph unicode="&#x2002;" horiz-adv-x="997" />
<glyph unicode="&#x2003;" horiz-adv-x="1994" />
<glyph unicode="&#x2004;" horiz-adv-x="663" />
<glyph unicode="&#x2005;" horiz-adv-x="497" />
<glyph unicode="&#x2006;" horiz-adv-x="331" />
<glyph unicode="&#x2007;" horiz-adv-x="331" />
<glyph unicode="&#x2008;" horiz-adv-x="247" />
<glyph unicode="&#x2009;" horiz-adv-x="397" />
<glyph unicode="&#x200a;" horiz-adv-x="110" />
<glyph unicode="&#x2010;" horiz-adv-x="702" d="M78 395v273h547v-273h-547z" />
<glyph unicode="&#x2011;" horiz-adv-x="702" d="M78 395v273h547v-273h-547z" />
<glyph unicode="&#x2012;" horiz-adv-x="702" d="M78 395v273h547v-273h-547z" />
<glyph unicode="&#x2013;" horiz-adv-x="1052" d="M-2 414v235h1057v-235h-1057z" />
<glyph unicode="&#x2014;" horiz-adv-x="2109" d="M0 414v235h2109v-235h-2109z" />
<glyph unicode="&#x2018;" horiz-adv-x="548" d="M111 797v305q0 195 77.5 287t253.5 100v-158q-80 -14 -116.5 -53t-36.5 -115v-24h143v-342h-321z" />
<glyph unicode="&#x2019;" horiz-adv-x="548" d="M113 772v158q80 14 116.5 53t36.5 115v24h-143v342h321v-305q0 -195 -77.5 -287t-253.5 -100z" />
<glyph unicode="&#x201a;" horiz-adv-x="548" d="M100 -193q80 14 117 53.5t37 114.5v25h-143v342h321v-305q0 -195 -78 -287t-254 -100v157z" />
<glyph unicode="&#x201c;" horiz-adv-x="1017" d="M117 797v305q0 195 77.5 287t254.5 100v-158q-80 -14 -117 -53t-37 -115v-24h143v-342h-321zM571 797v305q0 195 78 287t254 100v-158q-80 -14 -116.5 -53t-36.5 -115v-24h143v-342h-322z" />
<glyph unicode="&#x201d;" horiz-adv-x="1017" d="M121 772v158q80 14 116.5 53t36.5 115v24h-143v342h322v-305q0 -195 -78 -287t-254 -100zM573 772v158q80 14 117 53t37 115v24h-143v342h321v-305q0 -195 -78 -287t-254 -100z" />
<glyph unicode="&#x201e;" horiz-adv-x="1017" d="M109 -193q80 14 116.5 53.5t36.5 114.5v25h-143v342h321v-305q0 -195 -77.5 -287t-253.5 -100v157zM561 -193q80 14 117 53.5t37 114.5v25h-144v342h322v-305q0 -195 -78 -287t-254 -100v157z" />
<glyph unicode="&#x2022;" horiz-adv-x="1245" d="M317 784q0 125 89.5 214t216.5 89q125 0 214 -89t89 -214t-90.5 -215t-215 -90t-214 89t-89.5 216z" />
<glyph unicode="&#x2026;" horiz-adv-x="2109" d="M186 0v342h322v-342h-322zM889 0v342h321v-342h-321zM1591 0v342h322v-342h-322z" />
<glyph unicode="&#x202f;" horiz-adv-x="397" />
<glyph unicode="&#x2039;" horiz-adv-x="604" d="M59 520l267 322h219l-264 -322l264 -323h-219z" />
<glyph unicode="&#x203a;" horiz-adv-x="604" d="M53 197l266 323l-266 322h221l267 -322l-267 -323h-221z" />
<glyph unicode="&#x205f;" horiz-adv-x="497" />
<glyph unicode="&#x20ac;" d="M35 475l61 193h78q-2 16 -2 63q0 39 2 57h-139l61 193h94q80 508 521 508q201 0 301 -72v-272q-84 88 -256 88q-236 0 -277 -252h469l-63 -193h-426q-2 -16 -2 -55q0 -49 2 -65h385l-62 -193h-301q41 -250 277 -250q164 0 254 86v-272q-92 -68 -301 -68q-444 0 -518 504 h-158z" />
<glyph unicode="&#x2122;" horiz-adv-x="1757" d="M213 1389v116h500v-116h-172v-447h-156v447h-172zM827 942v563h203l129 -342l127 342h203v-563h-139v422l-158 -422h-64l-161 422v-422h-140z" />
<glyph unicode="&#xe000;" horiz-adv-x="1040" d="M0 1040h1040v-1040h-1040v1040z" />
</font>
</defs>
</svg>
